{
  "asset": {
    "generator": "Khronos glTF Blender I/O v1.7.33",
    "version": "2.0"
  },
  "scene": 0,
  "scenes": [
    {
      "name": "Scene",
      "nodes": [2]
    }
  ],
  "nodes": [
    {
      "mesh": 0,
      "name": "claim machine",
      "rotation": [0, -1, 0, 4.371138828673793e-8],
      "scale": [0.4782356023788452, 0.4782356023788452, 0.4782356023788452],
      "translation": [
        4.397089004516602, 0.26978349685668945, -1.8311305046081543
      ]
    },
    {
      "mesh": 1,
      "name": "claim machine_collider",
      "scale": [0.1738407462835312, 0.29884105920791626, 0.1738407462835312],
      "translation": [
        4.48234224319458, 0.29525285959243774, -1.9483208656311035
      ]
    },
    {
      "children": [0, 1],
      "name": "static",
      "scale": [5.752391338348389, 5.752391338348389, 5.752391338348389],
      "translation": [-32, 0, 32]
    }
  ],
  "materials": [
    {
      "doubleSided": true,
      "emissiveFactor": [1, 1, 1],
      "emissiveTexture": {
        "index": 0
      },
      "name": "porta loo",
      "pbrMetallicRoughness": {
        "baseColorTexture": {
          "index": 1
        },
        "metallicFactor": 0
      }
    },
    {
      "doubleSided": true,
      "emissiveFactor": [1, 1, 1],
      "emissiveTexture": {
        "index": 2
      },
      "name": "ATM",
      "pbrMetallicRoughness": {
        "baseColorTexture": {
          "index": 3
        },
        "metallicFactor": 0.7018182277679443
      }
    },
    {
      "alphaCutoff": 0.7248322367668152,
      "alphaMode": "MASK",
      "doubleSided": true,
      "name": "Ivy Shit.001",
      "pbrMetallicRoughness": {
        "baseColorTexture": {
          "index": 4
        },
        "metallicFactor": 0
      }
    }
  ],
  "meshes": [
    {
      "name": "Plane.015",
      "primitives": [
        {
          "attributes": {
            "POSITION": 0,
            "NORMAL": 1,
            "TEXCOORD_0": 2
          },
          "indices": 3,
          "material": 0
        },
        {
          "attributes": {
            "POSITION": 4,
            "NORMAL": 5,
            "TEXCOORD_0": 6
          },
          "indices": 7,
          "material": 1
        },
        {
          "attributes": {
            "POSITION": 8,
            "NORMAL": 9,
            "TEXCOORD_0": 10
          },
          "indices": 11,
          "material": 2
        }
      ]
    },
    {
      "name": "Cube.142",
      "primitives": [
        {
          "attributes": {
            "POSITION": 12,
            "NORMAL": 13,
            "TEXCOORD_0": 14
          },
          "indices": 15
        }
      ]
    }
  ],
  "textures": [
    {
      "sampler": 0,
      "source": 0
    },
    {
      "sampler": 0,
      "source": 1
    },
    {
      "sampler": 0,
      "source": 2
    },
    {
      "sampler": 0,
      "source": 3
    },
    {
      "sampler": 1,
      "source": 4
    }
  ],
  "images": [
    {
      "mimeType": "image/jpeg",
      "name": "glow_sign",
      "uri": "tex/glow_sign.jpg"
    },
    {
      "mimeType": "image/jpeg",
      "name": "Porta_loo_diffuse",
      "uri": "tex/Porta_loo_diffuse.jpg"
    },
    {
      "mimeType": "image/jpeg",
      "name": "ATM_Glow_Screen",
      "uri": "tex/ATM_Glow_Screen.jpg"
    },
    {
      "mimeType": "image/jpeg",
      "name": "Glow_Screen",
      "uri": "tex/Glow_Screen.jpg"
    },
    {
      "mimeType": "image/png",
      "name": "Ivy_1",
      "uri": "tex/Ivy_1.png"
    }
  ],
  "accessors": [
    {
      "bufferView": 0,
      "componentType": 5126,
      "count": 2738,
      "max": [0.1969377100467682, 0.6006304621696472, 4.232933044433594],
      "min": [-0.5759660005569458, -0.5110191702842712, -3.4391582012176514],
      "type": "VEC3"
    },
    {
      "bufferView": 1,
      "componentType": 5126,
      "count": 2738,
      "type": "VEC3"
    },
    {
      "bufferView": 2,
      "componentType": 5126,
      "count": 2738,
      "type": "VEC2"
    },
    {
      "bufferView": 3,
      "componentType": 5123,
      "count": 3072,
      "type": "SCALAR"
    },
    {
      "bufferView": 4,
      "componentType": 5126,
      "count": 4389,
      "max": [0.33882132172584534, 0.21880722045898438, 3.5579965114593506],
      "min": [-0.17370307445526123, -0.5406182408332825, -3.803736448287964],
      "type": "VEC3"
    },
    {
      "bufferView": 5,
      "componentType": 5126,
      "count": 4389,
      "type": "VEC3"
    },
    {
      "bufferView": 6,
      "componentType": 5126,
      "count": 4389,
      "type": "VEC2"
    },
    {
      "bufferView": 7,
      "componentType": 5123,
      "count": 6576,
      "type": "SCALAR"
    },
    {
      "bufferView": 8,
      "componentType": 5126,
      "count": 216,
      "max": [0.26039621233940125, 0.2631714642047882, 3.800086736679077],
      "min": [0.02632373571395874, -0.5339275002479553, -3.797560930252075],
      "type": "VEC3"
    },
    {
      "bufferView": 9,
      "componentType": 5126,
      "count": 216,
      "type": "VEC3"
    },
    {
      "bufferView": 10,
      "componentType": 5126,
      "count": 216,
      "type": "VEC2"
    },
    {
      "bufferView": 11,
      "componentType": 5123,
      "count": 216,
      "type": "SCALAR"
    },
    {
      "bufferView": 12,
      "componentType": 5126,
      "count": 96,
      "max": [1.1733136177062988, 1, 11.01309871673584],
      "min": [-1.173313856124878, -1, -11.013096809387207],
      "type": "VEC3"
    },
    {
      "bufferView": 13,
      "componentType": 5126,
      "count": 96,
      "type": "VEC3"
    },
    {
      "bufferView": 14,
      "componentType": 5126,
      "count": 96,
      "type": "VEC2"
    },
    {
      "bufferView": 15,
      "componentType": 5123,
      "count": 144,
      "type": "SCALAR"
    }
  ],
  "bufferViews": [
    {
      "buffer": 0,
      "byteLength": 32856,
      "byteOffset": 0
    },
    {
      "buffer": 0,
      "byteLength": 32856,
      "byteOffset": 32856
    },
    {
      "buffer": 0,
      "byteLength": 21904,
      "byteOffset": 65712
    },
    {
      "buffer": 0,
      "byteLength": 6144,
      "byteOffset": 87616
    },
    {
      "buffer": 0,
      "byteLength": 52668,
      "byteOffset": 93760
    },
    {
      "buffer": 0,
      "byteLength": 52668,
      "byteOffset": 146428
    },
    {
      "buffer": 0,
      "byteLength": 35112,
      "byteOffset": 199096
    },
    {
      "buffer": 0,
      "byteLength": 13152,
      "byteOffset": 234208
    },
    {
      "buffer": 0,
      "byteLength": 2592,
      "byteOffset": 247360
    },
    {
      "buffer": 0,
      "byteLength": 2592,
      "byteOffset": 249952
    },
    {
      "buffer": 0,
      "byteLength": 1728,
      "byteOffset": 252544
    },
    {
      "buffer": 0,
      "byteLength": 432,
      "byteOffset": 254272
    },
    {
      "buffer": 0,
      "byteLength": 1152,
      "byteOffset": 254704
    },
    {
      "buffer": 0,
      "byteLength": 1152,
      "byteOffset": 255856
    },
    {
      "buffer": 0,
      "byteLength": 768,
      "byteOffset": 257008
    },
    {
      "buffer": 0,
      "byteLength": 288,
      "byteOffset": 257776
    }
  ],
  "samplers": [
    {
      "magFilter": 9729,
      "minFilter": 9987
    },
    {
      "magFilter": 9729,
      "minFilter": 9987,
      "wrapS": 33071,
      "wrapT": 33071
    }
  ],
  "buffers": [
    {
      "byteLength": 258064,
      "uri": "claimMachine.bin"
    }
  ]
}
