{
  "asset": {
    "generator": "Khronos glTF Blender I/O v1.7.33",
    "version": "2.0"
  },
  "scene": 0,
  "scenes": [
    {
      "name": "Scene",
      "nodes": [0]
    }
  ],
  "nodes": [
    {
      "mesh": 0,
      "name": "Plane.005",
      "rotation": [0, 0, -0.7071068286895752, 0.7071068286895752],
      "scale": [
        0.009999999776482582, 0.009999999776482582, 0.009999999776482582
      ]
    }
  ],
  "animations": [
    {
      "channels": [
        {
          "sampler": 0,
          "target": {
            "node": 0,
            "path": "scale"
          }
        },
        {
          "sampler": 1,
          "target": {
            "node": 0,
            "path": "rotation"
          }
        }
      ],
      "name": "Plane.005Action",
      "samplers": [
        {
          "input": 4,
          "interpolation": "LINEAR",
          "output": 5
        },
        {
          "input": 6,
          "interpolation": "LINEAR",
          "output": 7
        }
      ]
    }
  ],
  "materials": [
    {
      "alphaMode": "BLEND",
      "doubleSided": true,
      "emissiveFactor": [1, 1, 1],
      "emissiveTexture": {
        "index": 0
      },
      "name": "Lightening",
      "pbrMetallicRoughness": {
        "baseColorTexture": {
          "index": 1
        },
        "metallicFactor": 0,
        "roughnessFactor": 0.5
      }
    }
  ],
  "meshes": [
    {
      "name": "Plane.010",
      "primitives": [
        {
          "attributes": {
            "POSITION": 0,
            "NORMAL": 1,
            "TEXCOORD_0": 2
          },
          "indices": 3,
          "material": 0
        }
      ]
    }
  ],
  "textures": [
    {
      "sampler": 0,
      "source": 0
    },
    {
      "sampler": 0,
      "source": 1
    }
  ],
  "images": [
    {
      "mimeType": "image/jpeg",
      "name": "electricityTrs",
      "uri": "tex/electricityTrs.jpg"
    },
    {
      "mimeType": "image/png",
      "name": "electricityTrs",
      "uri": "tex/electricityTrs-1.png"
    }
  ],
  "accessors": [
    {
      "bufferView": 0,
      "componentType": 5126,
      "count": 16,
      "max": [1.3282562494277954, 1.3282562494277954, 1],
      "min": [-1.3282562494277954, -1.3282562494277954, -1],
      "type": "VEC3"
    },
    {
      "bufferView": 1,
      "componentType": 5126,
      "count": 16,
      "type": "VEC3"
    },
    {
      "bufferView": 2,
      "componentType": 5126,
      "count": 16,
      "type": "VEC2"
    },
    {
      "bufferView": 3,
      "componentType": 5123,
      "count": 24,
      "type": "SCALAR"
    },
    {
      "bufferView": 4,
      "componentType": 5126,
      "count": 11,
      "max": [0.3333333333333333],
      "min": [0],
      "type": "SCALAR"
    },
    {
      "bufferView": 5,
      "componentType": 5126,
      "count": 11,
      "type": "VEC3"
    },
    {
      "bufferView": 6,
      "componentType": 5126,
      "count": 10,
      "max": [0.3],
      "min": [0],
      "type": "SCALAR"
    },
    {
      "bufferView": 7,
      "componentType": 5126,
      "count": 10,
      "type": "VEC4"
    }
  ],
  "bufferViews": [
    {
      "buffer": 0,
      "byteLength": 192,
      "byteOffset": 0
    },
    {
      "buffer": 0,
      "byteLength": 192,
      "byteOffset": 192
    },
    {
      "buffer": 0,
      "byteLength": 128,
      "byteOffset": 384
    },
    {
      "buffer": 0,
      "byteLength": 48,
      "byteOffset": 512
    },
    {
      "buffer": 0,
      "byteLength": 44,
      "byteOffset": 560
    },
    {
      "buffer": 0,
      "byteLength": 132,
      "byteOffset": 604
    },
    {
      "buffer": 0,
      "byteLength": 40,
      "byteOffset": 736
    },
    {
      "buffer": 0,
      "byteLength": 160,
      "byteOffset": 776
    }
  ],
  "samplers": [
    {
      "magFilter": 9729,
      "minFilter": 9987
    }
  ],
  "buffers": [
    {
      "byteLength": 936,
      "uri": "derbyProjectileHit.bin"
    }
  ]
}
