{
  "asset": {
    "generator": "Khronos glTF Blender I/O v1.7.33",
    "version": "2.0"
  },
  "scene": 0,
  "scenes": [
    {
      "name": "Scene",
      "nodes": [2]
    }
  ],
  "nodes": [
    {
      "mesh": 0,
      "name": "Floor 4 Base",
      "rotation": [0.7071066498756409, 0, 0, 0.70710688829422],
      "scale": [0.0007797397556714714, 0.0007797397556714714, 0.0007797397556714714],
      "translation": [-0.8401931524276733, 0.742480456829071, 0.8401931524276733]
    },
    {
      "mesh": 1,
      "name": "Floor 4 Base_collider",
      "rotation": [0.7071066498756409, 0, 0, 0.70710688829422],
      "scale": [0.0007797397556714714, 0.0007797397556714714, 0.0007797397556714714],
      "translation": [-0.8401931524276733, 0.742480456829071, 0.8401931524276733]
    },
    {
      "children": [0, 1],
      "name": "Empty",
      "scale": [38.08647537231445, 38.08647537231445, 38.08647537231445]
    }
  ],
  "materials": [
    {
      "doubleSided": true,
      "name": "Floor1Base",
      "pbrMetallicRoughness": {
        "baseColorTexture": {
          "index": 0
        },
        "metallicFactor": 0
      }
    },
    {
      "doubleSided": true,
      "emissiveFactor": [1, 0.48451059736451896, 0],
      "name": "Glow",
      "pbrMetallicRoughness": {
        "baseColorFactor": [0.8000000715255737, 0.13721336424350739, 0, 1],
        "metallicFactor": 0,
        "roughnessFactor": 0.5
      }
    },
    {
      "doubleSided": true,
      "name": "Floor1Decals.001",
      "pbrMetallicRoughness": {
        "baseColorTexture": {
          "index": 1
        },
        "metallicFactor": 0
      }
    }
  ],
  "meshes": [
    {
      "name": "Cube.054",
      "primitives": [
        {
          "attributes": {
            "POSITION": 0,
            "NORMAL": 1,
            "TEXCOORD_0": 2
          },
          "indices": 3,
          "material": 0
        },
        {
          "attributes": {
            "POSITION": 4,
            "NORMAL": 5,
            "TEXCOORD_0": 6
          },
          "indices": 7,
          "material": 1
        },
        {
          "attributes": {
            "POSITION": 8,
            "NORMAL": 9,
            "TEXCOORD_0": 10
          },
          "indices": 11,
          "material": 2
        }
      ]
    },
    {
      "name": "Cube.072",
      "primitives": [
        {
          "attributes": {
            "POSITION": 12,
            "NORMAL": 13,
            "TEXCOORD_0": 14
          },
          "indices": 15
        }
      ]
    }
  ],
  "textures": [
    {
      "sampler": 0,
      "source": 0
    },
    {
      "sampler": 0,
      "source": 1
    }
  ],
  "images": [
    {
      "bufferView": 4,
      "mimeType": "image/jpeg",
      "name": "Floor1Base_2D_View"
    },
    {
      "bufferView": 13,
      "mimeType": "image/jpeg",
      "name": "Floor1Decals_2D_View"
    }
  ],
  "accessors": [
    {
      "bufferView": 0,
      "componentType": 5126,
      "count": 508,
      "max": [500.34027099609375, 500, 0.0001246035099029541],
      "min": [-500, -500, -257.5872802734375],
      "type": "VEC3"
    },
    {
      "bufferView": 1,
      "componentType": 5126,
      "count": 508,
      "type": "VEC3"
    },
    {
      "bufferView": 2,
      "componentType": 5126,
      "count": 508,
      "type": "VEC2"
    },
    {
      "bufferView": 3,
      "componentType": 5123,
      "count": 1764,
      "type": "SCALAR"
    },
    {
      "bufferView": 5,
      "componentType": 5126,
      "count": 45,
      "max": [500, 450.915283203125, 0.0001246035099029541],
      "min": [-500, -450.91522216796875, -148.86903381347656],
      "type": "VEC3"
    },
    {
      "bufferView": 6,
      "componentType": 5126,
      "count": 45,
      "type": "VEC3"
    },
    {
      "bufferView": 7,
      "componentType": 5126,
      "count": 45,
      "type": "VEC2"
    },
    {
      "bufferView": 8,
      "componentType": 5123,
      "count": 96,
      "type": "SCALAR"
    },
    {
      "bufferView": 9,
      "componentType": 5126,
      "count": 2992,
      "max": [505.016357421875, 481.41790771484375, 19.780677795410156],
      "min": [-506.7015686035156, -481.4178466796875, -176.36422729492188],
      "type": "VEC3"
    },
    {
      "bufferView": 10,
      "componentType": 5126,
      "count": 2992,
      "type": "VEC3"
    },
    {
      "bufferView": 11,
      "componentType": 5126,
      "count": 2992,
      "type": "VEC2"
    },
    {
      "bufferView": 12,
      "componentType": 5123,
      "count": 8448,
      "type": "SCALAR"
    },
    {
      "bufferView": 14,
      "componentType": 5126,
      "count": 3545,
      "max": [505.016357421875, 500, 19.780677795410156],
      "min": [-506.7015686035156, -500, -257.5872802734375],
      "type": "VEC3"
    },
    {
      "bufferView": 15,
      "componentType": 5126,
      "count": 3545,
      "type": "VEC3"
    },
    {
      "bufferView": 16,
      "componentType": 5126,
      "count": 3545,
      "type": "VEC2"
    },
    {
      "bufferView": 17,
      "componentType": 5123,
      "count": 10308,
      "type": "SCALAR"
    }
  ],
  "bufferViews": [
    {
      "buffer": 0,
      "byteLength": 6096,
      "byteOffset": 0
    },
    {
      "buffer": 0,
      "byteLength": 6096,
      "byteOffset": 6096
    },
    {
      "buffer": 0,
      "byteLength": 4064,
      "byteOffset": 12192
    },
    {
      "buffer": 0,
      "byteLength": 3528,
      "byteOffset": 16256
    },
    {
      "buffer": 0,
      "byteLength": 202089,
      "byteOffset": 19784
    },
    {
      "buffer": 0,
      "byteLength": 540,
      "byteOffset": 221876
    },
    {
      "buffer": 0,
      "byteLength": 540,
      "byteOffset": 222416
    },
    {
      "buffer": 0,
      "byteLength": 360,
      "byteOffset": 222956
    },
    {
      "buffer": 0,
      "byteLength": 192,
      "byteOffset": 223316
    },
    {
      "buffer": 0,
      "byteLength": 35904,
      "byteOffset": 223508
    },
    {
      "buffer": 0,
      "byteLength": 35904,
      "byteOffset": 259412
    },
    {
      "buffer": 0,
      "byteLength": 23936,
      "byteOffset": 295316
    },
    {
      "buffer": 0,
      "byteLength": 16896,
      "byteOffset": 319252
    },
    {
      "buffer": 0,
      "byteLength": 134989,
      "byteOffset": 336148
    },
    {
      "buffer": 0,
      "byteLength": 42540,
      "byteOffset": 471140
    },
    {
      "buffer": 0,
      "byteLength": 42540,
      "byteOffset": 513680
    },
    {
      "buffer": 0,
      "byteLength": 28360,
      "byteOffset": 556220
    },
    {
      "buffer": 0,
      "byteLength": 20616,
      "byteOffset": 584580
    }
  ],
  "samplers": [
    {
      "magFilter": 9729,
      "minFilter": 9987
    }
  ],
  "buffers": [
    {
      "byteLength": 605196,
      "uri": "data:application/octet-stream;base64,"
    }
  ]
}
