{
  "asset": {
    "generator": "Khronos glTF Blender I/O v1.7.33",
    "version": "2.0"
  },
  "scene": 0,
  "scenes": [
    {
      "name": "Scene",
      "nodes": [2]
    }
  ],
  "nodes": [
    {
      "mesh": 0,
      "name": "Floor 2 Base",
      "rotation": [0.7071066498756409, 0, 0, 0.70710688829422],
      "scale": [
        0.0012214735615998507, 0.0012214735615998507, 0.0012214735615998507
      ],
      "translation": [
        -0.8401931524276733, 1.173357605934143, 0.8401931524276733
      ]
    },
    {
      "mesh": 1,
      "name": "Floor 2 Base_collider",
      "rotation": [0.7071066498756409, 0, 0, 0.70710688829422],
      "scale": [
        0.0012214735615998507, 0.0012214735615998507, 0.0012214735615998507
      ],
      "translation": [
        -0.8401931524276733, 1.173357605934143, 0.8401931524276733
      ]
    },
    {
      "children": [0, 1],
      "name": "Empty",
      "scale": [38.08647537231445, 38.08647537231445, 38.08647537231445]
    }
  ],
  "materials": [
    {
      "doubleSided": true,
      "name": "Floor1Base",
      "pbrMetallicRoughness": {
        "baseColorTexture": {
          "index": 0
        },
        "metallicFactor": 0
      }
    },
    {
      "doubleSided": true,
      "emissiveFactor": [1, 0.48451059736451896, 0],
      "name": "Glow",
      "pbrMetallicRoughness": {
        "baseColorFactor": [0.8000000715255737, 0.13721336424350739, 0, 1],
        "metallicFactor": 0,
        "roughnessFactor": 0.5
      }
    },
    {
      "doubleSided": true,
      "name": "Floor1Decals.001",
      "pbrMetallicRoughness": {
        "baseColorTexture": {
          "index": 1
        },
        "metallicFactor": 0
      }
    }
  ],
  "meshes": [
    {
      "name": "Cube.052",
      "primitives": [
        {
          "attributes": {
            "POSITION": 0,
            "NORMAL": 1,
            "TEXCOORD_0": 2
          },
          "indices": 3,
          "material": 0
        },
        {
          "attributes": {
            "POSITION": 4,
            "NORMAL": 5,
            "TEXCOORD_0": 6
          },
          "indices": 7,
          "material": 1
        },
        {
          "attributes": {
            "POSITION": 8,
            "NORMAL": 9,
            "TEXCOORD_0": 10
          },
          "indices": 11,
          "material": 2
        }
      ]
    },
    {
      "name": "Cube.061",
      "primitives": [
        {
          "attributes": {
            "POSITION": 12,
            "NORMAL": 13,
            "TEXCOORD_0": 14
          },
          "indices": 15
        }
      ]
    }
  ],
  "textures": [
    {
      "sampler": 0,
      "source": 0
    },
    {
      "sampler": 0,
      "source": 1
    }
  ],
  "images": [
    {
      "bufferView": 4,
      "mimeType": "image/jpeg",
      "name": "Floor1Base_2D_View"
    },
    {
      "bufferView": 13,
      "mimeType": "image/jpeg",
      "name": "Floor1Decals_2D_View"
    }
  ],
  "accessors": [
    {
      "bufferView": 0,
      "componentType": 5126,
      "count": 536,
      "max": [500.3402099609375, 499.99993896484375, 0.0002466738224029541],
      "min": [-499.99993896484375, -499.99993896484375, -257.58709716796875],
      "type": "VEC3"
    },
    {
      "bufferView": 1,
      "componentType": 5126,
      "count": 536,
      "type": "VEC3"
    },
    {
      "bufferView": 2,
      "componentType": 5126,
      "count": 536,
      "type": "VEC2"
    },
    {
      "bufferView": 3,
      "componentType": 5123,
      "count": 1992,
      "type": "SCALAR"
    },
    {
      "bufferView": 5,
      "componentType": 5126,
      "count": 420,
      "max": [498.7875671386719, 453.4923095703125, 0.0002466738224029541],
      "min": [-498.7875671386719, -453.49237060546875, -219.1659698486328],
      "type": "VEC3"
    },
    {
      "bufferView": 6,
      "componentType": 5126,
      "count": 420,
      "type": "VEC3"
    },
    {
      "bufferView": 7,
      "componentType": 5126,
      "count": 420,
      "type": "VEC2"
    },
    {
      "bufferView": 8,
      "componentType": 5123,
      "count": 972,
      "type": "SCALAR"
    },
    {
      "bufferView": 9,
      "componentType": 5126,
      "count": 953,
      "max": [483.3768310546875, 474.5788269042969, -17.599332809448242],
      "min": [-483.376708984375, -474.5789489746094, -184.47512817382812],
      "type": "VEC3"
    },
    {
      "bufferView": 10,
      "componentType": 5126,
      "count": 953,
      "type": "VEC3"
    },
    {
      "bufferView": 11,
      "componentType": 5126,
      "count": 953,
      "type": "VEC2"
    },
    {
      "bufferView": 12,
      "componentType": 5123,
      "count": 3024,
      "type": "SCALAR"
    },
    {
      "bufferView": 14,
      "componentType": 5126,
      "count": 672,
      "max": [500.3402099609375, 499.99993896484375, 0.0002466738224029541],
      "min": [-499.99993896484375, -499.99993896484375, -257.58709716796875],
      "type": "VEC3"
    },
    {
      "bufferView": 15,
      "componentType": 5126,
      "count": 672,
      "type": "VEC3"
    },
    {
      "bufferView": 16,
      "componentType": 5126,
      "count": 672,
      "type": "VEC2"
    },
    {
      "bufferView": 17,
      "componentType": 5123,
      "count": 2208,
      "type": "SCALAR"
    }
  ],
  "bufferViews": [
    {
      "buffer": 0,
      "byteLength": 6432,
      "byteOffset": 0
    },
    {
      "buffer": 0,
      "byteLength": 6432,
      "byteOffset": 6432
    },
    {
      "buffer": 0,
      "byteLength": 4288,
      "byteOffset": 12864
    },
    {
      "buffer": 0,
      "byteLength": 3984,
      "byteOffset": 17152
    },
    {
      "buffer": 0,
      "byteLength": 202089,
      "byteOffset": 21136
    },
    {
      "buffer": 0,
      "byteLength": 5040,
      "byteOffset": 223228
    },
    {
      "buffer": 0,
      "byteLength": 5040,
      "byteOffset": 228268
    },
    {
      "buffer": 0,
      "byteLength": 3360,
      "byteOffset": 233308
    },
    {
      "buffer": 0,
      "byteLength": 1944,
      "byteOffset": 236668
    },
    {
      "buffer": 0,
      "byteLength": 11436,
      "byteOffset": 238612
    },
    {
      "buffer": 0,
      "byteLength": 11436,
      "byteOffset": 250048
    },
    {
      "buffer": 0,
      "byteLength": 7624,
      "byteOffset": 261484
    },
    {
      "buffer": 0,
      "byteLength": 6048,
      "byteOffset": 269108
    },
    {
      "buffer": 0,
      "byteLength": 134989,
      "byteOffset": 275156
    },
    {
      "buffer": 0,
      "byteLength": 8064,
      "byteOffset": 410148
    },
    {
      "buffer": 0,
      "byteLength": 8064,
      "byteOffset": 418212
    },
    {
      "buffer": 0,
      "byteLength": 5376,
      "byteOffset": 426276
    },
    {
      "buffer": 0,
      "byteLength": 4416,
      "byteOffset": 431652
    }
  ],
  "samplers": [
    {
      "magFilter": 9729,
      "minFilter": 9987
    }
  ],
  "buffers": [
    {
      "byteLength": 436068,
      "uri": "data:application/octet-stream;base64,"
    }
  ]
}
