{
  "asset": {
    "generator": "Khronos glTF Blender I/O v1.7.33",
    "version": "2.0"
  },
  "scene": 0,
  "scenes": [
    {
      "name": "Scene",
      "nodes": [1]
    }
  ],
  "nodes": [
    {
      "mesh": 0,
      "name": "floor.01.machine.04_collider",
      "translation": [0, 2.1457672119140625e-6, 0]
    },
    {
      "children": [0],
      "mesh": 1,
      "name": "floor.01.machine.04",
      "rotation": [0, 0, -0.3826834559440613, 0.9238795638084412],
      "scale": [3.8938021659851074, 3.8938021659851074, 3.8938021659851074],
      "translation": [-16.84762954711914, 69.68793487548828, 32.00736618041992]
    }
  ],
  "animations": [
    {
      "channels": [
        {
          "sampler": 0,
          "target": {
            "node": 1,
            "path": "translation"
          }
        },
        {
          "sampler": 1,
          "target": {
            "node": 1,
            "path": "rotation"
          }
        },
        {
          "sampler": 2,
          "target": {
            "node": 1,
            "path": "scale"
          }
        }
      ],
      "name": "Floor 1 Machine.004Action",
      "samplers": [
        {
          "input": 12,
          "interpolation": "LINEAR",
          "output": 13
        },
        {
          "input": 14,
          "interpolation": "LINEAR",
          "output": 15
        },
        {
          "input": 12,
          "interpolation": "LINEAR",
          "output": 16
        }
      ]
    }
  ],
  "materials": [
    {
      "doubleSided": true,
      "name": "Floor1Machine.023",
      "pbrMetallicRoughness": {
        "baseColorTexture": {
          "index": 0
        },
        "metallicFactor": 0
      }
    },
    {
      "doubleSided": true,
      "emissiveFactor": [1, 0.484510600566864, 0],
      "name": "Glow.026",
      "pbrMetallicRoughness": {
        "baseColorFactor": [0.8000000715255737, 0.13721336424350739, 0, 1],
        "metallicFactor": 0,
        "roughnessFactor": 0.5
      }
    }
  ],
  "meshes": [
    {
      "name": "Cube.003",
      "primitives": [
        {
          "attributes": {
            "POSITION": 0,
            "NORMAL": 1,
            "TEXCOORD_0": 2
          },
          "indices": 3
        }
      ]
    },
    {
      "name": "Seesaw_low.005",
      "primitives": [
        {
          "attributes": {
            "POSITION": 4,
            "NORMAL": 5,
            "TEXCOORD_0": 6
          },
          "indices": 7,
          "material": 0
        },
        {
          "attributes": {
            "POSITION": 8,
            "NORMAL": 9,
            "TEXCOORD_0": 10
          },
          "indices": 11,
          "material": 1
        }
      ]
    }
  ],
  "textures": [
    {
      "sampler": 0,
      "source": 0
    }
  ],
  "images": [
    {
      "bufferView": 8,
      "mimeType": "image/jpeg",
      "name": "Floor1Machine_2D_View"
    }
  ],
  "accessors": [
    {
      "bufferView": 0,
      "componentType": 5126,
      "count": 34,
      "max": [0.14598751068115234, -2.69985294342041, 0.46126365661621094],
      "min": [-0.33847999572753906, -3.1843223571777344, -0.46505260467529297],
      "type": "VEC3"
    },
    {
      "bufferView": 1,
      "componentType": 5126,
      "count": 34,
      "type": "VEC3"
    },
    {
      "bufferView": 2,
      "componentType": 5126,
      "count": 34,
      "type": "VEC2"
    },
    {
      "bufferView": 3,
      "componentType": 5123,
      "count": 36,
      "type": "SCALAR"
    },
    {
      "bufferView": 4,
      "componentType": 5126,
      "count": 705,
      "max": [0.11975383758544922, 0.09007835388183594, 0.7313079833984375],
      "min": [-0.30351924896240234, -3.153975486755371, -0.7438530921936035],
      "type": "VEC3"
    },
    {
      "bufferView": 5,
      "componentType": 5126,
      "count": 705,
      "type": "VEC3"
    },
    {
      "bufferView": 6,
      "componentType": 5126,
      "count": 705,
      "type": "VEC2"
    },
    {
      "bufferView": 7,
      "componentType": 5123,
      "count": 3036,
      "type": "SCALAR"
    },
    {
      "bufferView": 9,
      "componentType": 5126,
      "count": 2836,
      "max": [0.16239500045776367, -1.0278797149658203, 0.44262027740478516],
      "min": [-0.3461594581604004, -3.1966161727905273, -0.44625282287597656],
      "type": "VEC3"
    },
    {
      "bufferView": 10,
      "componentType": 5126,
      "count": 2836,
      "type": "VEC3"
    },
    {
      "bufferView": 11,
      "componentType": 5126,
      "count": 2836,
      "type": "VEC2"
    },
    {
      "bufferView": 12,
      "componentType": 5123,
      "count": 13536,
      "type": "SCALAR"
    },
    {
      "bufferView": 13,
      "componentType": 5126,
      "count": 2,
      "max": [4.84],
      "min": [0],
      "type": "SCALAR"
    },
    {
      "bufferView": 14,
      "componentType": 5126,
      "count": 2,
      "type": "VEC3"
    },
    {
      "bufferView": 15,
      "componentType": 5126,
      "count": 122,
      "max": [4.84],
      "min": [0],
      "type": "SCALAR"
    },
    {
      "bufferView": 16,
      "componentType": 5126,
      "count": 122,
      "type": "VEC4"
    },
    {
      "bufferView": 17,
      "componentType": 5126,
      "count": 2,
      "type": "VEC3"
    }
  ],
  "bufferViews": [
    {
      "buffer": 0,
      "byteLength": 408,
      "byteOffset": 0
    },
    {
      "buffer": 0,
      "byteLength": 408,
      "byteOffset": 408
    },
    {
      "buffer": 0,
      "byteLength": 272,
      "byteOffset": 816
    },
    {
      "buffer": 0,
      "byteLength": 72,
      "byteOffset": 1088
    },
    {
      "buffer": 0,
      "byteLength": 8460,
      "byteOffset": 1160
    },
    {
      "buffer": 0,
      "byteLength": 8460,
      "byteOffset": 9620
    },
    {
      "buffer": 0,
      "byteLength": 5640,
      "byteOffset": 18080
    },
    {
      "buffer": 0,
      "byteLength": 6072,
      "byteOffset": 23720
    },
    {
      "buffer": 0,
      "byteLength": 321970,
      "byteOffset": 29792
    },
    {
      "buffer": 0,
      "byteLength": 34032,
      "byteOffset": 351764
    },
    {
      "buffer": 0,
      "byteLength": 34032,
      "byteOffset": 385796
    },
    {
      "buffer": 0,
      "byteLength": 22688,
      "byteOffset": 419828
    },
    {
      "buffer": 0,
      "byteLength": 27072,
      "byteOffset": 442516
    },
    {
      "buffer": 0,
      "byteLength": 8,
      "byteOffset": 469588
    },
    {
      "buffer": 0,
      "byteLength": 24,
      "byteOffset": 469596
    },
    {
      "buffer": 0,
      "byteLength": 488,
      "byteOffset": 469620
    },
    {
      "buffer": 0,
      "byteLength": 1952,
      "byteOffset": 470108
    },
    {
      "buffer": 0,
      "byteLength": 24,
      "byteOffset": 472060
    }
  ],
  "samplers": [
    {
      "magFilter": 9729,
      "minFilter": 9987
    }
  ],
  "buffers": [
    {
      "byteLength": 472084,
      "uri": "data:application/octet-stream;base64,"
    }
  ]
}
