{
  "asset": {
    "generator": "Khronos glTF Blender I/O v1.7.33",
    "version": "2.0"
  },
  "scene": 0,
  "scenes": [
    {
      "name": "Scene",
      "nodes": [1]
    }
  ],
  "nodes": [
    {
      "mesh": 0,
      "name": "floor.02.machine.05_collider",
      "rotation": [0, 0, -0.7071066498756409, 0.70710688829422],
      "scale": [70.53997802734375, 130.13351440429688, 165.95663452148438],
      "translation": [0.0004484974779188633, 0.00048828125, 0]
    },
    {
      "children": [0],
      "mesh": 1,
      "name": "floor.02.machine.05",
      "rotation": [0, 0, 0.7071066498756409, 0.70710688829422],
      "scale": [
        0.009999996982514858, 0.009999996982514858, 0.009999996982514858
      ],
      "translation": [-50.11172866821289, 51.041648864746094, 51.07048416137695]
    }
  ],
  "animations": [
    {
      "channels": [
        {
          "sampler": 0,
          "target": {
            "node": 1,
            "path": "translation"
          }
        },
        {
          "sampler": 1,
          "target": {
            "node": 1,
            "path": "rotation"
          }
        },
        {
          "sampler": 2,
          "target": {
            "node": 1,
            "path": "scale"
          }
        }
      ],
      "name": "Floor 2 Machine.005Action",
      "samplers": [
        {
          "input": 12,
          "interpolation": "LINEAR",
          "output": 13
        },
        {
          "input": 12,
          "interpolation": "LINEAR",
          "output": 14
        },
        {
          "input": 15,
          "interpolation": "LINEAR",
          "output": 16
        }
      ]
    }
  ],
  "materials": [
    {
      "doubleSided": true,
      "name": "Floor2Machine.005",
      "pbrMetallicRoughness": {
        "baseColorTexture": {
          "index": 0
        },
        "metallicFactor": 0
      }
    },
    {
      "doubleSided": true,
      "emissiveFactor": [1, 0.484510600566864, 0],
      "name": "Glow.050",
      "pbrMetallicRoughness": {
        "baseColorFactor": [0.8000000715255737, 0.13721336424350739, 0, 1],
        "metallicFactor": 0,
        "roughnessFactor": 0.5
      }
    }
  ],
  "meshes": [
    {
      "name": "Cube.029",
      "primitives": [
        {
          "attributes": {
            "POSITION": 0,
            "NORMAL": 1,
            "TEXCOORD_0": 2
          },
          "indices": 3
        }
      ]
    },
    {
      "name": "SpinningDoor_2_low.005",
      "primitives": [
        {
          "attributes": {
            "POSITION": 4,
            "NORMAL": 5,
            "TEXCOORD_0": 6
          },
          "indices": 7,
          "material": 0
        },
        {
          "attributes": {
            "POSITION": 8,
            "NORMAL": 9,
            "TEXCOORD_0": 10
          },
          "indices": 11,
          "material": 1
        }
      ]
    }
  ],
  "textures": [
    {
      "sampler": 0,
      "source": 0
    }
  ],
  "images": [
    {
      "bufferView": 8,
      "mimeType": "image/jpeg",
      "name": "Floor2Machine_2D_View"
    }
  ],
  "accessors": [
    {
      "bufferView": 0,
      "componentType": 5126,
      "count": 24,
      "max": [5.548776626586914, 1.2737866640090942, 1.0295991897583008],
      "min": [-5.626384735107422, -1.028356671333313, -0.9704008102416992],
      "type": "VEC3"
    },
    {
      "bufferView": 1,
      "componentType": 5126,
      "count": 24,
      "type": "VEC3"
    },
    {
      "bufferView": 2,
      "componentType": 5126,
      "count": 24,
      "type": "VEC2"
    },
    {
      "bufferView": 3,
      "componentType": 5123,
      "count": 36,
      "type": "SCALAR"
    },
    {
      "bufferView": 4,
      "componentType": 5126,
      "count": 352,
      "max": [165.01475524902344, 409.4993896484375, 165.506103515625],
      "min": [-166.32318115234375, -405.9390869140625, -165.831787109375],
      "type": "VEC3"
    },
    {
      "bufferView": 5,
      "componentType": 5126,
      "count": 352,
      "type": "VEC3"
    },
    {
      "bufferView": 6,
      "componentType": 5126,
      "count": 352,
      "type": "VEC2"
    },
    {
      "bufferView": 7,
      "componentType": 5123,
      "count": 1824,
      "type": "SCALAR"
    },
    {
      "bufferView": 9,
      "componentType": 5126,
      "count": 2800,
      "max": [198.39414978027344, 349.6849365234375, 198.885498046875],
      "min": [-199.70257568359375, -346.1248779296875, -199.2113037109375],
      "type": "VEC3"
    },
    {
      "bufferView": 10,
      "componentType": 5126,
      "count": 2800,
      "type": "VEC3"
    },
    {
      "bufferView": 11,
      "componentType": 5126,
      "count": 2800,
      "type": "VEC2"
    },
    {
      "bufferView": 12,
      "componentType": 5123,
      "count": 13440,
      "type": "SCALAR"
    },
    {
      "bufferView": 13,
      "componentType": 5126,
      "count": 122,
      "max": [4.84],
      "min": [0],
      "type": "SCALAR"
    },
    {
      "bufferView": 14,
      "componentType": 5126,
      "count": 122,
      "type": "VEC3"
    },
    {
      "bufferView": 15,
      "componentType": 5126,
      "count": 122,
      "type": "VEC4"
    },
    {
      "bufferView": 16,
      "componentType": 5126,
      "count": 2,
      "max": [4.84],
      "min": [0],
      "type": "SCALAR"
    },
    {
      "bufferView": 17,
      "componentType": 5126,
      "count": 2,
      "type": "VEC3"
    }
  ],
  "bufferViews": [
    {
      "buffer": 0,
      "byteLength": 288,
      "byteOffset": 0
    },
    {
      "buffer": 0,
      "byteLength": 288,
      "byteOffset": 288
    },
    {
      "buffer": 0,
      "byteLength": 192,
      "byteOffset": 576
    },
    {
      "buffer": 0,
      "byteLength": 72,
      "byteOffset": 768
    },
    {
      "buffer": 0,
      "byteLength": 4224,
      "byteOffset": 840
    },
    {
      "buffer": 0,
      "byteLength": 4224,
      "byteOffset": 5064
    },
    {
      "buffer": 0,
      "byteLength": 2816,
      "byteOffset": 9288
    },
    {
      "buffer": 0,
      "byteLength": 3648,
      "byteOffset": 12104
    },
    {
      "buffer": 0,
      "byteLength": 344261,
      "byteOffset": 15752
    },
    {
      "buffer": 0,
      "byteLength": 33600,
      "byteOffset": 360016
    },
    {
      "buffer": 0,
      "byteLength": 33600,
      "byteOffset": 393616
    },
    {
      "buffer": 0,
      "byteLength": 22400,
      "byteOffset": 427216
    },
    {
      "buffer": 0,
      "byteLength": 26880,
      "byteOffset": 449616
    },
    {
      "buffer": 0,
      "byteLength": 488,
      "byteOffset": 476496
    },
    {
      "buffer": 0,
      "byteLength": 1464,
      "byteOffset": 476984
    },
    {
      "buffer": 0,
      "byteLength": 1952,
      "byteOffset": 478448
    },
    {
      "buffer": 0,
      "byteLength": 8,
      "byteOffset": 480400
    },
    {
      "buffer": 0,
      "byteLength": 24,
      "byteOffset": 480408
    }
  ],
  "samplers": [
    {
      "magFilter": 9729,
      "minFilter": 9987
    }
  ],
  "buffers": [
    {
      "byteLength": 480432,
      "uri": "data:application/octet-stream;base64,"
    }
  ]
}
