{
  "asset": {
    "generator": "Khronos glTF Blender I/O v1.7.33",
    "version": "2.0"
  },
  "scene": 0,
  "scenes": [
    {
      "name": "Scene",
      "nodes": [1]
    }
  ],
  "nodes": [
    {
      "mesh": 0,
      "name": "floor.01.machine.11_collider",
      "translation": [
        6.7926740646362305, -0.3429679870605469, 3.1557698249816895
      ]
    },
    {
      "children": [0],
      "mesh": 1,
      "name": "floor.01.machine.11",
      "scale": [3.8938021659851074, 3.8938021659851074, 3.8938021659851074],
      "translation": [-58.44932556152344, 56.82079315185547, 19.712047576904297]
    }
  ],
  "animations": [
    {
      "channels": [
        {
          "sampler": 0,
          "target": {
            "node": 1,
            "path": "translation"
          }
        },
        {
          "sampler": 1,
          "target": {
            "node": 1,
            "path": "rotation"
          }
        },
        {
          "sampler": 2,
          "target": {
            "node": 1,
            "path": "scale"
          }
        }
      ],
      "name": "Floor 1 Machine.011Action",
      "samplers": [
        {
          "input": 12,
          "interpolation": "LINEAR",
          "output": 13
        },
        {
          "input": 14,
          "interpolation": "LINEAR",
          "output": 15
        },
        {
          "input": 12,
          "interpolation": "LINEAR",
          "output": 16
        }
      ]
    }
  ],
  "materials": [
    {
      "doubleSided": true,
      "name": "Floor1Machine.030",
      "pbrMetallicRoughness": {
        "baseColorTexture": {
          "index": 0
        },
        "metallicFactor": 0
      }
    },
    {
      "doubleSided": true,
      "emissiveFactor": [1, 0.484510600566864, 0],
      "name": "Glow.033",
      "pbrMetallicRoughness": {
        "baseColorFactor": [0.8000000715255737, 0.13721336424350739, 0, 1],
        "metallicFactor": 0,
        "roughnessFactor": 0.5
      }
    }
  ],
  "meshes": [
    {
      "name": "Cube.011",
      "primitives": [
        {
          "attributes": {
            "POSITION": 0,
            "NORMAL": 1,
            "TEXCOORD_0": 2
          },
          "indices": 3
        }
      ]
    },
    {
      "name": "Seesaw_low.012",
      "primitives": [
        {
          "attributes": {
            "POSITION": 4,
            "NORMAL": 5,
            "TEXCOORD_0": 6
          },
          "indices": 7,
          "material": 0
        },
        {
          "attributes": {
            "POSITION": 8,
            "NORMAL": 9,
            "TEXCOORD_0": 10
          },
          "indices": 11,
          "material": 1
        }
      ]
    }
  ],
  "textures": [
    {
      "sampler": 0,
      "source": 0
    }
  ],
  "images": [
    {
      "bufferView": 8,
      "mimeType": "image/jpeg",
      "name": "Floor1Machine_2D_View"
    }
  ],
  "accessors": [
    {
      "bufferView": 0,
      "componentType": 5126,
      "count": 28,
      "max": [-4.378580093383789, 0.4103679656982422, -2.604945659637451],
      "min": [-6.821199417114258, 0.3095550537109375, -3.7456917762756348],
      "type": "VEC3"
    },
    {
      "bufferView": 1,
      "componentType": 5126,
      "count": 28,
      "type": "VEC3"
    },
    {
      "bufferView": 2,
      "componentType": 5126,
      "count": 28,
      "type": "VEC2"
    },
    {
      "bufferView": 3,
      "componentType": 5123,
      "count": 36,
      "type": "SCALAR"
    },
    {
      "bufferView": 4,
      "componentType": 5126,
      "count": 797,
      "max": [2.4163565635681152, 0.06468340754508972, 0.8859500885009766],
      "min": [-0.19424867630004883, -0.06372597813606262, -0.9097895622253418],
      "type": "VEC3"
    },
    {
      "bufferView": 5,
      "componentType": 5126,
      "count": 797,
      "type": "VEC3"
    },
    {
      "bufferView": 6,
      "componentType": 5126,
      "count": 797,
      "type": "VEC2"
    },
    {
      "bufferView": 7,
      "componentType": 5123,
      "count": 1704,
      "type": "SCALAR"
    },
    {
      "bufferView": 9,
      "componentType": 5126,
      "count": 402,
      "max": [2.4163565635681152, 0.06294295191764832, 0.8859500885009766],
      "min": [-0.19424867630004883, -0.06032899022102356, -0.9097895622253418],
      "type": "VEC3"
    },
    {
      "bufferView": 10,
      "componentType": 5126,
      "count": 402,
      "type": "VEC3"
    },
    {
      "bufferView": 11,
      "componentType": 5126,
      "count": 402,
      "type": "VEC2"
    },
    {
      "bufferView": 12,
      "componentType": 5123,
      "count": 468,
      "type": "SCALAR"
    },
    {
      "bufferView": 13,
      "componentType": 5126,
      "count": 2,
      "max": [4.84],
      "min": [0],
      "type": "SCALAR"
    },
    {
      "bufferView": 14,
      "componentType": 5126,
      "count": 2,
      "type": "VEC3"
    },
    {
      "bufferView": 15,
      "componentType": 5126,
      "count": 122,
      "max": [4.84],
      "min": [0],
      "type": "SCALAR"
    },
    {
      "bufferView": 16,
      "componentType": 5126,
      "count": 122,
      "type": "VEC4"
    },
    {
      "bufferView": 17,
      "componentType": 5126,
      "count": 2,
      "type": "VEC3"
    }
  ],
  "bufferViews": [
    {
      "buffer": 0,
      "byteLength": 336,
      "byteOffset": 0
    },
    {
      "buffer": 0,
      "byteLength": 336,
      "byteOffset": 336
    },
    {
      "buffer": 0,
      "byteLength": 224,
      "byteOffset": 672
    },
    {
      "buffer": 0,
      "byteLength": 72,
      "byteOffset": 896
    },
    {
      "buffer": 0,
      "byteLength": 9564,
      "byteOffset": 968
    },
    {
      "buffer": 0,
      "byteLength": 9564,
      "byteOffset": 10532
    },
    {
      "buffer": 0,
      "byteLength": 6376,
      "byteOffset": 20096
    },
    {
      "buffer": 0,
      "byteLength": 3408,
      "byteOffset": 26472
    },
    {
      "buffer": 0,
      "byteLength": 321970,
      "byteOffset": 29880
    },
    {
      "buffer": 0,
      "byteLength": 4824,
      "byteOffset": 351852
    },
    {
      "buffer": 0,
      "byteLength": 4824,
      "byteOffset": 356676
    },
    {
      "buffer": 0,
      "byteLength": 3216,
      "byteOffset": 361500
    },
    {
      "buffer": 0,
      "byteLength": 936,
      "byteOffset": 364716
    },
    {
      "buffer": 0,
      "byteLength": 8,
      "byteOffset": 365652
    },
    {
      "buffer": 0,
      "byteLength": 24,
      "byteOffset": 365660
    },
    {
      "buffer": 0,
      "byteLength": 488,
      "byteOffset": 365684
    },
    {
      "buffer": 0,
      "byteLength": 1952,
      "byteOffset": 366172
    },
    {
      "buffer": 0,
      "byteLength": 24,
      "byteOffset": 368124
    }
  ],
  "samplers": [
    {
      "magFilter": 9729,
      "minFilter": 9987
    }
  ],
  "buffers": [
    {
      "byteLength": 368148,
      "uri": "data:application/octet-stream;base64,"
    }
  ]
}
