{
  "asset": {
    "generator": "Khronos glTF Blender I/O v1.7.33",
    "version": "2.0"
  },
  "scene": 0,
  "scenes": [
    {
      "name": "Scene",
      "nodes": [1]
    }
  ],
  "nodes": [
    {
      "mesh": 0,
      "name": "floor.01.machine.06_collider",
      "translation": [
        0.0028128623962402344, -0.055922508239746094, -0.0048065185546875
      ]
    },
    {
      "children": [0],
      "mesh": 1,
      "name": "floor.01.machine.06",
      "scale": [3.8938021659851074, 3.8938021659851074, 3.8938021659851074],
      "translation": [-25.992843627929688, 59.15521240234375, 25.81136703491211]
    }
  ],
  "animations": [
    {
      "channels": [
        {
          "sampler": 0,
          "target": {
            "node": 1,
            "path": "translation"
          }
        },
        {
          "sampler": 1,
          "target": {
            "node": 1,
            "path": "rotation"
          }
        },
        {
          "sampler": 2,
          "target": {
            "node": 1,
            "path": "scale"
          }
        }
      ],
      "name": "Floor 1 Machine.006Action",
      "samplers": [
        {
          "input": 12,
          "interpolation": "LINEAR",
          "output": 13
        },
        {
          "input": 14,
          "interpolation": "LINEAR",
          "output": 15
        },
        {
          "input": 12,
          "interpolation": "LINEAR",
          "output": 16
        }
      ]
    }
  ],
  "materials": [
    {
      "doubleSided": true,
      "name": "Floor1Machine.025",
      "pbrMetallicRoughness": {
        "baseColorTexture": {
          "index": 0
        },
        "metallicFactor": 0
      }
    },
    {
      "doubleSided": true,
      "emissiveFactor": [1, 0.484510600566864, 0],
      "name": "Glow.028",
      "pbrMetallicRoughness": {
        "baseColorFactor": [0.8000000715255737, 0.13721336424350739, 0, 1],
        "metallicFactor": 0,
        "roughnessFactor": 0.5
      }
    }
  ],
  "meshes": [
    {
      "name": "Cube.005",
      "primitives": [
        {
          "attributes": {
            "POSITION": 0,
            "NORMAL": 1,
            "TEXCOORD_0": 2
          },
          "indices": 3
        }
      ]
    },
    {
      "name": "Seesaw_low.007",
      "primitives": [
        {
          "attributes": {
            "POSITION": 4,
            "NORMAL": 5,
            "TEXCOORD_0": 6
          },
          "indices": 7,
          "material": 0
        },
        {
          "attributes": {
            "POSITION": 8,
            "NORMAL": 9,
            "TEXCOORD_0": 10
          },
          "indices": 11,
          "material": 1
        }
      ]
    }
  ],
  "textures": [
    {
      "sampler": 0,
      "source": 0
    }
  ],
  "images": [
    {
      "bufferView": 8,
      "mimeType": "image/jpeg",
      "name": "Floor1Machine_2D_View"
    }
  ],
  "accessors": [
    {
      "bufferView": 0,
      "componentType": 5126,
      "count": 152,
      "max": [1.334679365158081, 0.5410016179084778, 1.3346811532974243],
      "min": [-1.3346807956695557, -0.3773123621940613, -1.3346794843673706],
      "type": "VEC3"
    },
    {
      "bufferView": 1,
      "componentType": 5126,
      "count": 152,
      "type": "VEC3"
    },
    {
      "bufferView": 2,
      "componentType": 5126,
      "count": 152,
      "type": "VEC2"
    },
    {
      "bufferView": 3,
      "componentType": 5123,
      "count": 156,
      "type": "SCALAR"
    },
    {
      "bufferView": 4,
      "componentType": 5126,
      "count": 1040,
      "max": [1.2906540632247925, 0.355182409286499, 1.2843266725540161],
      "min": [-1.2772570848464966, -0.6497385501861572, -1.283584475517273],
      "type": "VEC3"
    },
    {
      "bufferView": 5,
      "componentType": 5126,
      "count": 1040,
      "type": "VEC3"
    },
    {
      "bufferView": 6,
      "componentType": 5126,
      "count": 1040,
      "type": "VEC2"
    },
    {
      "bufferView": 7,
      "componentType": 5123,
      "count": 3114,
      "type": "SCALAR"
    },
    {
      "bufferView": 9,
      "componentType": 5126,
      "count": 256,
      "max": [0.9033807516098022, 0.35076308250427246, 0.8970538377761841],
      "min": [-0.9063278436660767, -0.41367363929748535, -0.8963116407394409],
      "type": "VEC3"
    },
    {
      "bufferView": 10,
      "componentType": 5126,
      "count": 256,
      "type": "VEC3"
    },
    {
      "bufferView": 11,
      "componentType": 5126,
      "count": 256,
      "type": "VEC2"
    },
    {
      "bufferView": 12,
      "componentType": 5123,
      "count": 570,
      "type": "SCALAR"
    },
    {
      "bufferView": 13,
      "componentType": 5126,
      "count": 2,
      "max": [4.84],
      "min": [0],
      "type": "SCALAR"
    },
    {
      "bufferView": 14,
      "componentType": 5126,
      "count": 2,
      "type": "VEC3"
    },
    {
      "bufferView": 15,
      "componentType": 5126,
      "count": 122,
      "max": [4.84],
      "min": [0],
      "type": "SCALAR"
    },
    {
      "bufferView": 16,
      "componentType": 5126,
      "count": 122,
      "type": "VEC4"
    },
    {
      "bufferView": 17,
      "componentType": 5126,
      "count": 2,
      "type": "VEC3"
    }
  ],
  "bufferViews": [
    {
      "buffer": 0,
      "byteLength": 1824,
      "byteOffset": 0
    },
    {
      "buffer": 0,
      "byteLength": 1824,
      "byteOffset": 1824
    },
    {
      "buffer": 0,
      "byteLength": 1216,
      "byteOffset": 3648
    },
    {
      "buffer": 0,
      "byteLength": 312,
      "byteOffset": 4864
    },
    {
      "buffer": 0,
      "byteLength": 12480,
      "byteOffset": 5176
    },
    {
      "buffer": 0,
      "byteLength": 12480,
      "byteOffset": 17656
    },
    {
      "buffer": 0,
      "byteLength": 8320,
      "byteOffset": 30136
    },
    {
      "buffer": 0,
      "byteLength": 6228,
      "byteOffset": 38456
    },
    {
      "buffer": 0,
      "byteLength": 321970,
      "byteOffset": 44684
    },
    {
      "buffer": 0,
      "byteLength": 3072,
      "byteOffset": 366656
    },
    {
      "buffer": 0,
      "byteLength": 3072,
      "byteOffset": 369728
    },
    {
      "buffer": 0,
      "byteLength": 2048,
      "byteOffset": 372800
    },
    {
      "buffer": 0,
      "byteLength": 1140,
      "byteOffset": 374848
    },
    {
      "buffer": 0,
      "byteLength": 8,
      "byteOffset": 375988
    },
    {
      "buffer": 0,
      "byteLength": 24,
      "byteOffset": 375996
    },
    {
      "buffer": 0,
      "byteLength": 488,
      "byteOffset": 376020
    },
    {
      "buffer": 0,
      "byteLength": 1952,
      "byteOffset": 376508
    },
    {
      "buffer": 0,
      "byteLength": 24,
      "byteOffset": 378460
    }
  ],
  "samplers": [
    {
      "magFilter": 9729,
      "minFilter": 9987
    }
  ],
  "buffers": [
    {
      "byteLength": 378484,
      "uri": "data:application/octet-stream;base64,"
    }
  ]
}
