{
  "asset": {
    "generator": "Khronos glTF Blender I/O v1.7.33",
    "version": "2.0"
  },
  "scene": 0,
  "scenes": [
    {
      "name": "Scene",
      "nodes": [1]
    }
  ],
  "nodes": [
    {
      "mesh": 0,
      "name": "floor.01.machine.08_collider",
      "translation": [0.022020339965820312, -0.04199981689453125, -0.0023975372314453125]
    },
    {
      "children": [0],
      "mesh": 1,
      "name": "floor.01.machine.08",
      "scale": [3.8938021659851074, 3.8938021659851074, 3.8938021659851074],
      "translation": [-37.921146392822266, 59.06671142578125, 37.75055694580078]
    }
  ],
  "animations": [
    {
      "channels": [
        {
          "sampler": 0,
          "target": {
            "node": 1,
            "path": "translation"
          }
        },
        {
          "sampler": 1,
          "target": {
            "node": 1,
            "path": "rotation"
          }
        },
        {
          "sampler": 2,
          "target": {
            "node": 1,
            "path": "scale"
          }
        }
      ],
      "name": "Floor 1 Machine.008Action",
      "samplers": [
        {
          "input": 12,
          "interpolation": "LINEAR",
          "output": 13
        },
        {
          "input": 14,
          "interpolation": "LINEAR",
          "output": 15
        },
        {
          "input": 12,
          "interpolation": "LINEAR",
          "output": 16
        }
      ]
    }
  ],
  "materials": [
    {
      "doubleSided": true,
      "name": "Floor1Machine.027",
      "pbrMetallicRoughness": {
        "baseColorTexture": {
          "index": 0
        },
        "metallicFactor": 0
      }
    },
    {
      "doubleSided": true,
      "emissiveFactor": [1, 0.484510600566864, 0],
      "name": "Glow.030",
      "pbrMetallicRoughness": {
        "baseColorFactor": [0.8000000715255737, 0.13721336424350739, 0, 1],
        "metallicFactor": 0,
        "roughnessFactor": 0.5
      }
    }
  ],
  "meshes": [
    {
      "name": "Cube.007",
      "primitives": [
        {
          "attributes": {
            "POSITION": 0,
            "NORMAL": 1,
            "TEXCOORD_0": 2
          },
          "indices": 3
        }
      ]
    },
    {
      "name": "Seesaw_low.009",
      "primitives": [
        {
          "attributes": {
            "POSITION": 4,
            "NORMAL": 5,
            "TEXCOORD_0": 6
          },
          "indices": 7,
          "material": 0
        },
        {
          "attributes": {
            "POSITION": 8,
            "NORMAL": 9,
            "TEXCOORD_0": 10
          },
          "indices": 11,
          "material": 1
        }
      ]
    }
  ],
  "textures": [
    {
      "sampler": 0,
      "source": 0
    }
  ],
  "images": [
    {
      "bufferView": 8,
      "mimeType": "image/jpeg",
      "name": "Floor1Machine_2D_View"
    }
  ],
  "accessors": [
    {
      "bufferView": 0,
      "componentType": 5126,
      "count": 142,
      "max": [1.3116683959960938, 0.5498079657554626, 1.3332769870758057],
      "min": [-1.3576908111572266, -0.3685060143470764, -1.336083173751831],
      "type": "VEC3"
    },
    {
      "bufferView": 1,
      "componentType": 5126,
      "count": 142,
      "type": "VEC3"
    },
    {
      "bufferView": 2,
      "componentType": 5126,
      "count": 142,
      "type": "VEC2"
    },
    {
      "bufferView": 3,
      "componentType": 5123,
      "count": 156,
      "type": "SCALAR"
    },
    {
      "bufferView": 4,
      "componentType": 5126,
      "count": 1051,
      "max": [1.2800766229629517, 0.37791183590888977, 1.2853649854660034],
      "min": [-1.2878345251083374, -0.6270090937614441, -1.2825452089309692],
      "type": "VEC3"
    },
    {
      "bufferView": 5,
      "componentType": 5126,
      "count": 1051,
      "type": "VEC3"
    },
    {
      "bufferView": 6,
      "componentType": 5126,
      "count": 1051,
      "type": "VEC2"
    },
    {
      "bufferView": 7,
      "componentType": 5123,
      "count": 3108,
      "type": "SCALAR"
    },
    {
      "bufferView": 9,
      "componentType": 5126,
      "count": 252,
      "max": [0.8928037285804749, 0.3734925091266632, 0.8980931043624878],
      "min": [-0.9005607962608337, -0.3727833926677704, -0.8952714204788208],
      "type": "VEC3"
    },
    {
      "bufferView": 10,
      "componentType": 5126,
      "count": 252,
      "type": "VEC3"
    },
    {
      "bufferView": 11,
      "componentType": 5126,
      "count": 252,
      "type": "VEC2"
    },
    {
      "bufferView": 12,
      "componentType": 5123,
      "count": 576,
      "type": "SCALAR"
    },
    {
      "bufferView": 13,
      "componentType": 5126,
      "count": 2,
      "max": [4.84],
      "min": [0],
      "type": "SCALAR"
    },
    {
      "bufferView": 14,
      "componentType": 5126,
      "count": 2,
      "type": "VEC3"
    },
    {
      "bufferView": 15,
      "componentType": 5126,
      "count": 122,
      "max": [4.84],
      "min": [0],
      "type": "SCALAR"
    },
    {
      "bufferView": 16,
      "componentType": 5126,
      "count": 122,
      "type": "VEC4"
    },
    {
      "bufferView": 17,
      "componentType": 5126,
      "count": 2,
      "type": "VEC3"
    }
  ],
  "bufferViews": [
    {
      "buffer": 0,
      "byteLength": 1704,
      "byteOffset": 0
    },
    {
      "buffer": 0,
      "byteLength": 1704,
      "byteOffset": 1704
    },
    {
      "buffer": 0,
      "byteLength": 1136,
      "byteOffset": 3408
    },
    {
      "buffer": 0,
      "byteLength": 312,
      "byteOffset": 4544
    },
    {
      "buffer": 0,
      "byteLength": 12612,
      "byteOffset": 4856
    },
    {
      "buffer": 0,
      "byteLength": 12612,
      "byteOffset": 17468
    },
    {
      "buffer": 0,
      "byteLength": 8408,
      "byteOffset": 30080
    },
    {
      "buffer": 0,
      "byteLength": 6216,
      "byteOffset": 38488
    },
    {
      "buffer": 0,
      "byteLength": 321970,
      "byteOffset": 44704
    },
    {
      "buffer": 0,
      "byteLength": 3024,
      "byteOffset": 366676
    },
    {
      "buffer": 0,
      "byteLength": 3024,
      "byteOffset": 369700
    },
    {
      "buffer": 0,
      "byteLength": 2016,
      "byteOffset": 372724
    },
    {
      "buffer": 0,
      "byteLength": 1152,
      "byteOffset": 374740
    },
    {
      "buffer": 0,
      "byteLength": 8,
      "byteOffset": 375892
    },
    {
      "buffer": 0,
      "byteLength": 24,
      "byteOffset": 375900
    },
    {
      "buffer": 0,
      "byteLength": 488,
      "byteOffset": 375924
    },
    {
      "buffer": 0,
      "byteLength": 1952,
      "byteOffset": 376412
    },
    {
      "buffer": 0,
      "byteLength": 24,
      "byteOffset": 378364
    }
  ],
  "samplers": [
    {
      "magFilter": 9729,
      "minFilter": 9987
    }
  ],
  "buffers": [
    {
      "byteLength": 378388,
      "uri": "data:application/octet-stream;base64,"
    }
  ]
}
