{
  "asset": {
    "generator": "Khronos glTF Blender I/O v1.7.33",
    "version": "2.0"
  },
  "scene": 0,
  "scenes": [
    {
      "name": "Scene",
      "nodes": [2]
    }
  ],
  "nodes": [
    {
      "mesh": 0,
      "name": "Floor 1 Base",
      "rotation": [0.7071066498756409, 0, 0, 0.70710688829422],
      "scale": [
        0.0014375192113220692, 0.0014375192113220692, 0.0014375192113220692
      ],
      "translation": [
        -0.8401931524276733, 1.4578779935836792, 0.8401931524276733
      ]
    },
    {
      "mesh": 1,
      "name": "Floor 1 Base_collider",
      "rotation": [0.7071066498756409, 0, 0, 0.70710688829422],
      "scale": [
        0.0014375192113220692, 0.0014375192113220692, 0.0014375192113220692
      ],
      "translation": [
        -0.8401931524276733, 1.4578779935836792, 0.8401931524276733
      ]
    },
    {
      "children": [0, 1],
      "name": "Empty",
      "scale": [38.08647537231445, 38.08647537231445, 38.08647537231445]
    }
  ],
  "materials": [
    {
      "doubleSided": true,
      "name": "Floor1Base",
      "pbrMetallicRoughness": {
        "baseColorTexture": {
          "index": 0
        },
        "metallicFactor": 0
      }
    },
    {
      "doubleSided": true,
      "name": "Floor1ConveyorBelts.001",
      "pbrMetallicRoughness": {
        "baseColorTexture": {
          "index": 1
        },
        "metallicFactor": 0
      }
    },
    {
      "doubleSided": true,
      "emissiveFactor": [1, 0.48451059736451896, 0],
      "name": "Glow",
      "pbrMetallicRoughness": {
        "baseColorFactor": [0.8000000715255737, 0.13721336424350739, 0, 1],
        "metallicFactor": 0,
        "roughnessFactor": 0.5
      }
    },
    {
      "doubleSided": true,
      "name": "Floor1Decals.001",
      "pbrMetallicRoughness": {
        "baseColorTexture": {
          "index": 2
        },
        "metallicFactor": 0
      }
    },
    {
      "doubleSided": true,
      "name": "Floor1Machine.021",
      "pbrMetallicRoughness": {
        "baseColorTexture": {
          "index": 3
        },
        "metallicFactor": 0
      }
    },
    {
      "doubleSided": true,
      "emissiveFactor": [1, 0.484510600566864, 0],
      "name": "Glow.024",
      "pbrMetallicRoughness": {
        "baseColorFactor": [0.8000000715255737, 0.13721336424350739, 0, 1],
        "metallicFactor": 0,
        "roughnessFactor": 0.5
      }
    },
    {
      "doubleSided": true,
      "name": "Floor1Machine.031",
      "pbrMetallicRoughness": {
        "baseColorTexture": {
          "index": 4
        },
        "metallicFactor": 0
      }
    },
    {
      "doubleSided": true,
      "emissiveFactor": [1, 0.484510600566864, 0],
      "name": "Glow.034",
      "pbrMetallicRoughness": {
        "baseColorFactor": [0.8000000715255737, 0.13721336424350739, 0, 1],
        "metallicFactor": 0,
        "roughnessFactor": 0.5
      }
    }
  ],
  "meshes": [
    {
      "name": "Cube.027",
      "primitives": [
        {
          "attributes": {
            "POSITION": 0,
            "NORMAL": 1,
            "TEXCOORD_0": 2
          },
          "indices": 3,
          "material": 0
        },
        {
          "attributes": {
            "POSITION": 4,
            "NORMAL": 5,
            "TEXCOORD_0": 6
          },
          "indices": 7,
          "material": 1
        },
        {
          "attributes": {
            "POSITION": 8,
            "NORMAL": 9,
            "TEXCOORD_0": 10
          },
          "indices": 11,
          "material": 2
        },
        {
          "attributes": {
            "POSITION": 12,
            "NORMAL": 13,
            "TEXCOORD_0": 14
          },
          "indices": 15,
          "material": 3
        },
        {
          "attributes": {
            "POSITION": 16,
            "NORMAL": 17,
            "TEXCOORD_0": 18
          },
          "indices": 19,
          "material": 4
        },
        {
          "attributes": {
            "POSITION": 20,
            "NORMAL": 21,
            "TEXCOORD_0": 22
          },
          "indices": 23,
          "material": 5
        },
        {
          "attributes": {
            "POSITION": 24,
            "NORMAL": 25,
            "TEXCOORD_0": 26
          },
          "indices": 27,
          "material": 6
        },
        {
          "attributes": {
            "POSITION": 28,
            "NORMAL": 29,
            "TEXCOORD_0": 30
          },
          "indices": 31,
          "material": 7
        }
      ]
    },
    {
      "name": "Cube.049",
      "primitives": [
        {
          "attributes": {
            "POSITION": 32,
            "NORMAL": 33,
            "TEXCOORD_0": 34
          },
          "indices": 35
        }
      ]
    }
  ],
  "textures": [
    {
      "sampler": 0,
      "source": 0
    },
    {
      "sampler": 0,
      "source": 1
    },
    {
      "sampler": 0,
      "source": 2
    },
    {
      "sampler": 0,
      "source": 3
    },
    {
      "sampler": 0,
      "source": 3
    }
  ],
  "images": [
    {
      "bufferView": 4,
      "mimeType": "image/jpeg",
      "name": "Floor1Base_2D_View"
    },
    {
      "bufferView": 9,
      "mimeType": "image/jpeg",
      "name": "Floor1ConveyorBelts_2D_View"
    },
    {
      "bufferView": 18,
      "mimeType": "image/jpeg",
      "name": "Floor1Decals_2D_View"
    },
    {
      "bufferView": 23,
      "mimeType": "image/jpeg",
      "name": "Floor1Machine_2D_View"
    }
  ],
  "accessors": [
    {
      "bufferView": 0,
      "componentType": 5126,
      "count": 690,
      "max": [500.34027099609375, 500, 0.0003687441349029541],
      "min": [-500, -500, -257.5870361328125],
      "type": "VEC3"
    },
    {
      "bufferView": 1,
      "componentType": 5126,
      "count": 690,
      "type": "VEC3"
    },
    {
      "bufferView": 2,
      "componentType": 5126,
      "count": 690,
      "type": "VEC2"
    },
    {
      "bufferView": 3,
      "componentType": 5123,
      "count": 2130,
      "type": "SCALAR"
    },
    {
      "bufferView": 5,
      "componentType": 5126,
      "count": 683,
      "max": [501.2640075683594, 91.8155517578125, -19.999858856201172],
      "min": [-503.05670166015625, -91.3240966796875, -149.0307159423828],
      "type": "VEC3"
    },
    {
      "bufferView": 6,
      "componentType": 5126,
      "count": 683,
      "type": "VEC3"
    },
    {
      "bufferView": 7,
      "componentType": 5126,
      "count": 683,
      "type": "VEC2"
    },
    {
      "bufferView": 8,
      "componentType": 5123,
      "count": 2664,
      "type": "SCALAR"
    },
    {
      "bufferView": 10,
      "componentType": 5126,
      "count": 711,
      "max": [500.430419921875, 294.4371643066406, -20.000049591064453],
      "min": [-502.33184814453125, -295.4606628417969, -138.7159881591797],
      "type": "VEC3"
    },
    {
      "bufferView": 11,
      "componentType": 5126,
      "count": 711,
      "type": "VEC3"
    },
    {
      "bufferView": 12,
      "componentType": 5126,
      "count": 711,
      "type": "VEC2"
    },
    {
      "bufferView": 13,
      "componentType": 5123,
      "count": 2316,
      "type": "SCALAR"
    },
    {
      "bufferView": 14,
      "componentType": 5126,
      "count": 1474,
      "max": [446.0930480957031, 294.4371643066406, -17.751371383666992],
      "min": [-462.4508972167969, -295.4606628417969, -39.67228317260742],
      "type": "VEC3"
    },
    {
      "bufferView": 15,
      "componentType": 5126,
      "count": 1474,
      "type": "VEC3"
    },
    {
      "bufferView": 16,
      "componentType": 5126,
      "count": 1474,
      "type": "VEC2"
    },
    {
      "bufferView": 17,
      "componentType": 5123,
      "count": 6432,
      "type": "SCALAR"
    },
    {
      "bufferView": 19,
      "componentType": 5126,
      "count": 3323,
      "max": [113.79549407958984, 462.5741271972656, -21.18658447265625],
      "min": [-100.02623748779297, 319.5990295410156, -206.36172485351562],
      "type": "VEC3"
    },
    {
      "bufferView": 20,
      "componentType": 5126,
      "count": 3323,
      "type": "VEC3"
    },
    {
      "bufferView": 21,
      "componentType": 5126,
      "count": 3323,
      "type": "VEC2"
    },
    {
      "bufferView": 22,
      "componentType": 5123,
      "count": 4434,
      "type": "SCALAR"
    },
    {
      "bufferView": 24,
      "componentType": 5126,
      "count": 1355,
      "max": [100.56006622314453, 390.87298583984375, -30.162567138671875],
      "min": [-86.79080963134766, 340.981201171875, -197.45248413085938],
      "type": "VEC3"
    },
    {
      "bufferView": 25,
      "componentType": 5126,
      "count": 1355,
      "type": "VEC3"
    },
    {
      "bufferView": 26,
      "componentType": 5126,
      "count": 1355,
      "type": "VEC2"
    },
    {
      "bufferView": 27,
      "componentType": 5123,
      "count": 1710,
      "type": "SCALAR"
    },
    {
      "bufferView": 28,
      "componentType": 5126,
      "count": 3315,
      "max": [113.79544067382812, -319.5990905761719, -21.186744689941406],
      "min": [-100.02629089355469, -462.57421875, -206.36184692382812],
      "type": "VEC3"
    },
    {
      "bufferView": 29,
      "componentType": 5126,
      "count": 3315,
      "type": "VEC3"
    },
    {
      "bufferView": 30,
      "componentType": 5126,
      "count": 3315,
      "type": "VEC2"
    },
    {
      "bufferView": 31,
      "componentType": 5123,
      "count": 4434,
      "type": "SCALAR"
    },
    {
      "bufferView": 32,
      "componentType": 5126,
      "count": 1347,
      "max": [100.56001281738281, -340.98126220703125, -30.162704467773438],
      "min": [-86.79086303710938, -390.8730773925781, -197.45263671875],
      "type": "VEC3"
    },
    {
      "bufferView": 33,
      "componentType": 5126,
      "count": 1347,
      "type": "VEC3"
    },
    {
      "bufferView": 34,
      "componentType": 5126,
      "count": 1347,
      "type": "VEC2"
    },
    {
      "bufferView": 35,
      "componentType": 5123,
      "count": 1710,
      "type": "SCALAR"
    },
    {
      "bufferView": 36,
      "componentType": 5126,
      "count": 1666,
      "max": [501.2640075683594, 500, 0.0003687441349029541],
      "min": [-503.05670166015625, -500, -257.5870361328125],
      "type": "VEC3"
    },
    {
      "bufferView": 37,
      "componentType": 5126,
      "count": 1666,
      "type": "VEC3"
    },
    {
      "bufferView": 38,
      "componentType": 5126,
      "count": 1666,
      "type": "VEC2"
    },
    {
      "bufferView": 39,
      "componentType": 5123,
      "count": 5838,
      "type": "SCALAR"
    }
  ],
  "bufferViews": [
    {
      "buffer": 0,
      "byteLength": 8280,
      "byteOffset": 0
    },
    {
      "buffer": 0,
      "byteLength": 8280,
      "byteOffset": 8280
    },
    {
      "buffer": 0,
      "byteLength": 5520,
      "byteOffset": 16560
    },
    {
      "buffer": 0,
      "byteLength": 4260,
      "byteOffset": 22080
    },
    {
      "buffer": 0,
      "byteLength": 202089,
      "byteOffset": 26340
    },
    {
      "buffer": 0,
      "byteLength": 8196,
      "byteOffset": 228432
    },
    {
      "buffer": 0,
      "byteLength": 8196,
      "byteOffset": 236628
    },
    {
      "buffer": 0,
      "byteLength": 5464,
      "byteOffset": 244824
    },
    {
      "buffer": 0,
      "byteLength": 5328,
      "byteOffset": 250288
    },
    {
      "buffer": 0,
      "byteLength": 232538,
      "byteOffset": 255616
    },
    {
      "buffer": 0,
      "byteLength": 8532,
      "byteOffset": 488156
    },
    {
      "buffer": 0,
      "byteLength": 8532,
      "byteOffset": 496688
    },
    {
      "buffer": 0,
      "byteLength": 5688,
      "byteOffset": 505220
    },
    {
      "buffer": 0,
      "byteLength": 4632,
      "byteOffset": 510908
    },
    {
      "buffer": 0,
      "byteLength": 17688,
      "byteOffset": 515540
    },
    {
      "buffer": 0,
      "byteLength": 17688,
      "byteOffset": 533228
    },
    {
      "buffer": 0,
      "byteLength": 11792,
      "byteOffset": 550916
    },
    {
      "buffer": 0,
      "byteLength": 12864,
      "byteOffset": 562708
    },
    {
      "buffer": 0,
      "byteLength": 134989,
      "byteOffset": 575572
    },
    {
      "buffer": 0,
      "byteLength": 39876,
      "byteOffset": 710564
    },
    {
      "buffer": 0,
      "byteLength": 39876,
      "byteOffset": 750440
    },
    {
      "buffer": 0,
      "byteLength": 26584,
      "byteOffset": 790316
    },
    {
      "buffer": 0,
      "byteLength": 8868,
      "byteOffset": 816900
    },
    {
      "buffer": 0,
      "byteLength": 321970,
      "byteOffset": 825768
    },
    {
      "buffer": 0,
      "byteLength": 16260,
      "byteOffset": 1147740
    },
    {
      "buffer": 0,
      "byteLength": 16260,
      "byteOffset": 1164000
    },
    {
      "buffer": 0,
      "byteLength": 10840,
      "byteOffset": 1180260
    },
    {
      "buffer": 0,
      "byteLength": 3420,
      "byteOffset": 1191100
    },
    {
      "buffer": 0,
      "byteLength": 39780,
      "byteOffset": 1194520
    },
    {
      "buffer": 0,
      "byteLength": 39780,
      "byteOffset": 1234300
    },
    {
      "buffer": 0,
      "byteLength": 26520,
      "byteOffset": 1274080
    },
    {
      "buffer": 0,
      "byteLength": 8868,
      "byteOffset": 1300600
    },
    {
      "buffer": 0,
      "byteLength": 16164,
      "byteOffset": 1309468
    },
    {
      "buffer": 0,
      "byteLength": 16164,
      "byteOffset": 1325632
    },
    {
      "buffer": 0,
      "byteLength": 10776,
      "byteOffset": 1341796
    },
    {
      "buffer": 0,
      "byteLength": 3420,
      "byteOffset": 1352572
    },
    {
      "buffer": 0,
      "byteLength": 19992,
      "byteOffset": 1355992
    },
    {
      "buffer": 0,
      "byteLength": 19992,
      "byteOffset": 1375984
    },
    {
      "buffer": 0,
      "byteLength": 13328,
      "byteOffset": 1395976
    },
    {
      "buffer": 0,
      "byteLength": 11676,
      "byteOffset": 1409304
    }
  ],
  "samplers": [
    {
      "magFilter": 9729,
      "minFilter": 9987
    }
  ],
  "buffers": [
    {
      "byteLength": 1420980,
      "uri": "data:application/octet-stream;base64,"
    }
  ]
}
