{
  "asset": {
    "generator": "Khronos glTF Blender I/O v1.7.33",
    "version": "2.0"
  },
  "scene": 0,
  "scenes": [
    {
      "name": "Scene",
      "nodes": [2]
    }
  ],
  "nodes": [
    {
      "mesh": 0,
      "name": "Floor 3 Base",
      "rotation": [0.7071066498756409, 0, 0, 0.70710688829422],
      "scale": [0.0010026195086538792, 0.0010026195086538792, 0.0010026195086538792],
      "translation": [-0.8401931524276733, 0.9321063756942749, 0.8401931524276733]
    },
    {
      "mesh": 1,
      "name": "Floor 3 Base_collider",
      "rotation": [0.7071066498756409, 0, 0, 0.70710688829422],
      "scale": [0.0010026195086538792, 0.0010026195086538792, 0.0010026195086538792],
      "translation": [-0.8401931524276733, 0.9321063756942749, 0.8401931524276733]
    },
    {
      "children": [0, 1],
      "name": "Empty",
      "scale": [38.08647537231445, 38.08647537231445, 38.08647537231445]
    }
  ],
  "materials": [
    {
      "doubleSided": true,
      "name": "Floor1Base",
      "pbrMetallicRoughness": {
        "baseColorTexture": {
          "index": 0
        },
        "metallicFactor": 0
      }
    },
    {
      "doubleSided": true,
      "emissiveFactor": [1, 0.48451059736451896, 0],
      "name": "Glow",
      "pbrMetallicRoughness": {
        "baseColorFactor": [0.8000000715255737, 0.13721336424350739, 0, 1],
        "metallicFactor": 0,
        "roughnessFactor": 0.5
      }
    },
    {
      "doubleSided": true,
      "name": "Floor1Decals.001",
      "pbrMetallicRoughness": {
        "baseColorTexture": {
          "index": 1
        },
        "metallicFactor": 0
      }
    }
  ],
  "meshes": [
    {
      "name": "Cube.053",
      "primitives": [
        {
          "attributes": {
            "POSITION": 0,
            "NORMAL": 1,
            "TEXCOORD_0": 2
          },
          "indices": 3,
          "material": 0
        },
        {
          "attributes": {
            "POSITION": 4,
            "NORMAL": 5,
            "TEXCOORD_0": 6
          },
          "indices": 7,
          "material": 1
        },
        {
          "attributes": {
            "POSITION": 8,
            "NORMAL": 9,
            "TEXCOORD_0": 10
          },
          "indices": 11,
          "material": 2
        }
      ]
    },
    {
      "name": "Cube.070",
      "primitives": [
        {
          "attributes": {
            "POSITION": 12,
            "NORMAL": 13,
            "TEXCOORD_0": 14
          },
          "indices": 15
        }
      ]
    }
  ],
  "textures": [
    {
      "sampler": 0,
      "source": 0
    },
    {
      "sampler": 0,
      "source": 1
    }
  ],
  "images": [
    {
      "bufferView": 4,
      "mimeType": "image/jpeg",
      "name": "Floor1Base_2D_View"
    },
    {
      "bufferView": 13,
      "mimeType": "image/jpeg",
      "name": "Floor1Decals_2D_View"
    }
  ],
  "accessors": [
    {
      "bufferView": 0,
      "componentType": 5126,
      "count": 736,
      "max": [500.34039306640625, 500.0001220703125, 2.5331983124488033e-6],
      "min": [-500.0001220703125, -500.0001220703125, -257.58746337890625],
      "type": "VEC3"
    },
    {
      "bufferView": 1,
      "componentType": 5126,
      "count": 736,
      "type": "VEC3"
    },
    {
      "bufferView": 2,
      "componentType": 5126,
      "count": 736,
      "type": "VEC2"
    },
    {
      "bufferView": 3,
      "componentType": 5123,
      "count": 2520,
      "type": "SCALAR"
    },
    {
      "bufferView": 5,
      "componentType": 5126,
      "count": 584,
      "max": [500.34039306640625, 450.7639465332031, 2.5331983124488033e-6],
      "min": [-498.9019775390625, -450.7638854980469, -194.18865966796875],
      "type": "VEC3"
    },
    {
      "bufferView": 6,
      "componentType": 5126,
      "count": 584,
      "type": "VEC3"
    },
    {
      "bufferView": 7,
      "componentType": 5126,
      "count": 584,
      "type": "VEC2"
    },
    {
      "bufferView": 8,
      "componentType": 5123,
      "count": 1020,
      "type": "SCALAR"
    },
    {
      "bufferView": 9,
      "componentType": 5126,
      "count": 9706,
      "max": [478.7320556640625, 398.5516662597656, -1.0426807403564453],
      "min": [-480.3370361328125, -395.2207946777344, -31.6484432220459],
      "type": "VEC3"
    },
    {
      "bufferView": 10,
      "componentType": 5126,
      "count": 9706,
      "type": "VEC3"
    },
    {
      "bufferView": 11,
      "componentType": 5126,
      "count": 9706,
      "type": "VEC2"
    },
    {
      "bufferView": 12,
      "componentType": 5123,
      "count": 27792,
      "type": "SCALAR"
    },
    {
      "bufferView": 14,
      "componentType": 5126,
      "count": 1316,
      "max": [500.34039306640625, 500.0001220703125, 2.5331983124488033e-6],
      "min": [-500.0001220703125, -500.0001220703125, -257.58746337890625],
      "type": "VEC3"
    },
    {
      "bufferView": 15,
      "componentType": 5126,
      "count": 1316,
      "type": "VEC3"
    },
    {
      "bufferView": 16,
      "componentType": 5126,
      "count": 1316,
      "type": "VEC2"
    },
    {
      "bufferView": 17,
      "componentType": 5123,
      "count": 3570,
      "type": "SCALAR"
    }
  ],
  "bufferViews": [
    {
      "buffer": 0,
      "byteLength": 8832,
      "byteOffset": 0
    },
    {
      "buffer": 0,
      "byteLength": 8832,
      "byteOffset": 8832
    },
    {
      "buffer": 0,
      "byteLength": 5888,
      "byteOffset": 17664
    },
    {
      "buffer": 0,
      "byteLength": 5040,
      "byteOffset": 23552
    },
    {
      "buffer": 0,
      "byteLength": 202089,
      "byteOffset": 28592
    },
    {
      "buffer": 0,
      "byteLength": 7008,
      "byteOffset": 230684
    },
    {
      "buffer": 0,
      "byteLength": 7008,
      "byteOffset": 237692
    },
    {
      "buffer": 0,
      "byteLength": 4672,
      "byteOffset": 244700
    },
    {
      "buffer": 0,
      "byteLength": 2040,
      "byteOffset": 249372
    },
    {
      "buffer": 0,
      "byteLength": 116472,
      "byteOffset": 251412
    },
    {
      "buffer": 0,
      "byteLength": 116472,
      "byteOffset": 367884
    },
    {
      "buffer": 0,
      "byteLength": 77648,
      "byteOffset": 484356
    },
    {
      "buffer": 0,
      "byteLength": 55584,
      "byteOffset": 562004
    },
    {
      "buffer": 0,
      "byteLength": 134989,
      "byteOffset": 617588
    },
    {
      "buffer": 0,
      "byteLength": 15792,
      "byteOffset": 752580
    },
    {
      "buffer": 0,
      "byteLength": 15792,
      "byteOffset": 768372
    },
    {
      "buffer": 0,
      "byteLength": 10528,
      "byteOffset": 784164
    },
    {
      "buffer": 0,
      "byteLength": 7140,
      "byteOffset": 794692
    }
  ],
  "samplers": [
    {
      "magFilter": 9729,
      "minFilter": 9987
    }
  ],
  "buffers": [
    {
      "byteLength": 801832,
      "uri": "data:application/octet-stream;base64,"
    }
  ]
}
