{
  "asset": {
    "generator": "Khronos glTF Blender I/O v1.7.33",
    "version": "2.0"
  },
  "scene": 0,
  "scenes": [
    {
      "name": "Scene",
      "nodes": [2]
    }
  ],
  "nodes": [
    {
      "mesh": 0,
      "name": "Floor 5 Base",
      "scale": [0.24108539521694183, 0.24108539521694183, 0.24108539521694183],
      "translation": [-0.8401931524276733, 0.4439098834991455, 0.8401931524276733]
    },
    {
      "mesh": 1,
      "name": "Floor 5 Base_collider",
      "scale": [0.24108539521694183, 0.24108539521694183, 0.24108539521694183],
      "translation": [-0.8401931524276733, 0.4439098834991455, 0.8401931524276733]
    },
    {
      "children": [0, 1],
      "name": "Empty",
      "scale": [38.08647537231445, 38.08647537231445, 38.08647537231445]
    }
  ],
  "materials": [
    {
      "doubleSided": true,
      "name": "Floor1Base",
      "pbrMetallicRoughness": {
        "baseColorTexture": {
          "index": 0
        },
        "metallicFactor": 0
      }
    },
    {
      "doubleSided": true,
      "emissiveFactor": [1, 0.48451059736451896, 0],
      "name": "Glow",
      "pbrMetallicRoughness": {
        "baseColorFactor": [0.8000000715255737, 0.13721336424350739, 0, 1],
        "metallicFactor": 0,
        "roughnessFactor": 0.5
      }
    }
  ],
  "meshes": [
    {
      "name": "Circle",
      "primitives": [
        {
          "attributes": {
            "POSITION": 0,
            "NORMAL": 1,
            "TEXCOORD_0": 2
          },
          "indices": 3,
          "material": 0
        },
        {
          "attributes": {
            "POSITION": 4,
            "NORMAL": 5,
            "TEXCOORD_0": 6
          },
          "indices": 7,
          "material": 1
        }
      ]
    },
    {
      "name": "Circle.001",
      "primitives": [
        {
          "attributes": {
            "POSITION": 8,
            "NORMAL": 9,
            "TEXCOORD_0": 10
          },
          "indices": 11
        }
      ]
    }
  ],
  "textures": [
    {
      "sampler": 0,
      "source": 0
    }
  ],
  "images": [
    {
      "bufferView": 4,
      "mimeType": "image/jpeg",
      "name": "Floor1Base_2D_View"
    }
  ],
  "accessors": [
    {
      "bufferView": 0,
      "componentType": 5126,
      "count": 104,
      "max": [1, 0.18886038661003113, 1],
      "min": [-1, -1.834984302520752, -1],
      "type": "VEC3"
    },
    {
      "bufferView": 1,
      "componentType": 5126,
      "count": 104,
      "type": "VEC3"
    },
    {
      "bufferView": 2,
      "componentType": 5126,
      "count": 104,
      "type": "VEC2"
    },
    {
      "bufferView": 3,
      "componentType": 5123,
      "count": 162,
      "type": "SCALAR"
    },
    {
      "bufferView": 5,
      "componentType": 5126,
      "count": 72,
      "max": [1.0575038194656372, 0.18886038661003113, 1.0575038194656372],
      "min": [-1.0575038194656372, -0.15321719646453857, -1.0575038194656372],
      "type": "VEC3"
    },
    {
      "bufferView": 6,
      "componentType": 5126,
      "count": 72,
      "type": "VEC3"
    },
    {
      "bufferView": 7,
      "componentType": 5126,
      "count": 72,
      "type": "VEC2"
    },
    {
      "bufferView": 8,
      "componentType": 5123,
      "count": 114,
      "type": "SCALAR"
    },
    {
      "bufferView": 9,
      "componentType": 5126,
      "count": 176,
      "max": [1.0575038194656372, 0.18886038661003113, 1.0575038194656372],
      "min": [-1.0575038194656372, -1.834984302520752, -1.0575038194656372],
      "type": "VEC3"
    },
    {
      "bufferView": 10,
      "componentType": 5126,
      "count": 176,
      "type": "VEC3"
    },
    {
      "bufferView": 11,
      "componentType": 5126,
      "count": 176,
      "type": "VEC2"
    },
    {
      "bufferView": 12,
      "componentType": 5123,
      "count": 276,
      "type": "SCALAR"
    }
  ],
  "bufferViews": [
    {
      "buffer": 0,
      "byteLength": 1248,
      "byteOffset": 0
    },
    {
      "buffer": 0,
      "byteLength": 1248,
      "byteOffset": 1248
    },
    {
      "buffer": 0,
      "byteLength": 832,
      "byteOffset": 2496
    },
    {
      "buffer": 0,
      "byteLength": 324,
      "byteOffset": 3328
    },
    {
      "buffer": 0,
      "byteLength": 202089,
      "byteOffset": 3652
    },
    {
      "buffer": 0,
      "byteLength": 864,
      "byteOffset": 205744
    },
    {
      "buffer": 0,
      "byteLength": 864,
      "byteOffset": 206608
    },
    {
      "buffer": 0,
      "byteLength": 576,
      "byteOffset": 207472
    },
    {
      "buffer": 0,
      "byteLength": 228,
      "byteOffset": 208048
    },
    {
      "buffer": 0,
      "byteLength": 2112,
      "byteOffset": 208276
    },
    {
      "buffer": 0,
      "byteLength": 2112,
      "byteOffset": 210388
    },
    {
      "buffer": 0,
      "byteLength": 1408,
      "byteOffset": 212500
    },
    {
      "buffer": 0,
      "byteLength": 552,
      "byteOffset": 213908
    }
  ],
  "samplers": [
    {
      "magFilter": 9729,
      "minFilter": 9987
    }
  ],
  "buffers": [
    {
      "byteLength": 214460,
      "uri": "data:application/octet-stream;base64,"
    }
  ]
}
