{
  "asset": {
    "generator": "Khronos glTF Blender I/O v1.7.33",
    "version": "2.0"
  },
  "scene": 0,
  "scenes": [
    {
      "name": "Scene",
      "nodes": [1]
    }
  ],
  "nodes": [
    {
      "mesh": 0,
      "name": "floor.03.machine.03_collider",
      "rotation": [-0.7071068286895752, 0, 0, 0.7071067094802856],
      "scale": [61.30900955200195, 112.58012390136719, 98.40666198730469],
      "translation": [-0.000244140625, 0, 0.00010232275235466659]
    },
    {
      "children": [0],
      "mesh": 1,
      "name": "floor.03.machine.03",
      "rotation": [0.7071068286895752, 0, 0, 0.7071067094802856],
      "scale": [
        0.016310812905430794, 0.016310812905430794, 0.016310812905430794
      ],
      "translation": [-57.24095916748047, 38.72855758666992, 17.21631622314453]
    }
  ],
  "animations": [
    {
      "channels": [
        {
          "sampler": 0,
          "target": {
            "node": 1,
            "path": "translation"
          }
        },
        {
          "sampler": 1,
          "target": {
            "node": 1,
            "path": "rotation"
          }
        },
        {
          "sampler": 2,
          "target": {
            "node": 1,
            "path": "scale"
          }
        }
      ],
      "name": "SpinningBaton_2_low.003Action",
      "samplers": [
        {
          "input": 12,
          "interpolation": "LINEAR",
          "output": 13
        },
        {
          "input": 14,
          "interpolation": "LINEAR",
          "output": 15
        },
        {
          "input": 14,
          "interpolation": "LINEAR",
          "output": 16
        }
      ]
    }
  ],
  "materials": [
    {
      "doubleSided": true,
      "name": "Floor3Machine.002",
      "pbrMetallicRoughness": {
        "baseColorTexture": {
          "index": 0
        },
        "metallicFactor": 0
      }
    },
    {
      "doubleSided": true,
      "emissiveFactor": [1, 0.484510600566864, 0],
      "name": "Glow.054",
      "pbrMetallicRoughness": {
        "baseColorFactor": [0.8000000715255737, 0.13721336424350739, 0, 1],
        "metallicFactor": 0,
        "roughnessFactor": 0.5
      }
    }
  ],
  "meshes": [
    {
      "name": "Cube.033",
      "primitives": [
        {
          "attributes": {
            "POSITION": 0,
            "NORMAL": 1,
            "TEXCOORD_0": 2
          },
          "indices": 3
        }
      ]
    },
    {
      "name": "SpinningBaton_2_low.002",
      "primitives": [
        {
          "attributes": {
            "POSITION": 4,
            "NORMAL": 5,
            "TEXCOORD_0": 6
          },
          "indices": 7,
          "material": 0
        },
        {
          "attributes": {
            "POSITION": 8,
            "NORMAL": 9,
            "TEXCOORD_0": 10
          },
          "indices": 11,
          "material": 1
        }
      ]
    }
  ],
  "textures": [
    {
      "sampler": 0,
      "source": 0
    }
  ],
  "images": [
    {
      "bufferView": 8,
      "mimeType": "image/jpeg",
      "name": "Floor3Machine_2D_View"
    }
  ],
  "accessors": [
    {
      "bufferView": 0,
      "componentType": 5126,
      "count": 66,
      "max": [6.496242523193359, 1.3607349395751953, 1.3380770683288574],
      "min": [-2.636404037475586, -1.3020992279052734, -1.3247566223144531],
      "type": "VEC3"
    },
    {
      "bufferView": 1,
      "componentType": 5126,
      "count": 66,
      "type": "VEC3"
    },
    {
      "bufferView": 2,
      "componentType": 5126,
      "count": 66,
      "type": "VEC2"
    },
    {
      "bufferView": 3,
      "componentType": 5123,
      "count": 84,
      "type": "SCALAR"
    },
    {
      "bufferView": 4,
      "componentType": 5126,
      "count": 248,
      "max": [369.40185546875, 122.32354736328125, 118.69337463378906],
      "min": [-162.9339599609375, -123.01739501953125, -127.076416015625],
      "type": "VEC3"
    },
    {
      "bufferView": 5,
      "componentType": 5126,
      "count": 248,
      "type": "VEC3"
    },
    {
      "bufferView": 6,
      "componentType": 5126,
      "count": 248,
      "type": "VEC2"
    },
    {
      "bufferView": 7,
      "componentType": 5123,
      "count": 1098,
      "type": "SCALAR"
    },
    {
      "bufferView": 9,
      "componentType": 5126,
      "count": 106,
      "max": [267.704345703125, 119.91497802734375, 80.70707702636719],
      "min": [-162.9339599609375, -120.6087646484375, -89.62403869628906],
      "type": "VEC3"
    },
    {
      "bufferView": 10,
      "componentType": 5126,
      "count": 106,
      "type": "VEC3"
    },
    {
      "bufferView": 11,
      "componentType": 5126,
      "count": 106,
      "type": "VEC2"
    },
    {
      "bufferView": 12,
      "componentType": 5123,
      "count": 288,
      "type": "SCALAR"
    },
    {
      "bufferView": 13,
      "componentType": 5126,
      "count": 41,
      "max": [1.6],
      "min": [0],
      "type": "SCALAR"
    },
    {
      "bufferView": 14,
      "componentType": 5126,
      "count": 41,
      "type": "VEC3"
    },
    {
      "bufferView": 15,
      "componentType": 5126,
      "count": 2,
      "max": [1.6],
      "min": [0],
      "type": "SCALAR"
    },
    {
      "bufferView": 16,
      "componentType": 5126,
      "count": 2,
      "type": "VEC4"
    },
    {
      "bufferView": 17,
      "componentType": 5126,
      "count": 2,
      "type": "VEC3"
    }
  ],
  "bufferViews": [
    {
      "buffer": 0,
      "byteLength": 792,
      "byteOffset": 0
    },
    {
      "buffer": 0,
      "byteLength": 792,
      "byteOffset": 792
    },
    {
      "buffer": 0,
      "byteLength": 528,
      "byteOffset": 1584
    },
    {
      "buffer": 0,
      "byteLength": 168,
      "byteOffset": 2112
    },
    {
      "buffer": 0,
      "byteLength": 2976,
      "byteOffset": 2280
    },
    {
      "buffer": 0,
      "byteLength": 2976,
      "byteOffset": 5256
    },
    {
      "buffer": 0,
      "byteLength": 1984,
      "byteOffset": 8232
    },
    {
      "buffer": 0,
      "byteLength": 2196,
      "byteOffset": 10216
    },
    {
      "buffer": 0,
      "byteLength": 274195,
      "byteOffset": 12412
    },
    {
      "buffer": 0,
      "byteLength": 1272,
      "byteOffset": 286608
    },
    {
      "buffer": 0,
      "byteLength": 1272,
      "byteOffset": 287880
    },
    {
      "buffer": 0,
      "byteLength": 848,
      "byteOffset": 289152
    },
    {
      "buffer": 0,
      "byteLength": 576,
      "byteOffset": 290000
    },
    {
      "buffer": 0,
      "byteLength": 164,
      "byteOffset": 290576
    },
    {
      "buffer": 0,
      "byteLength": 492,
      "byteOffset": 290740
    },
    {
      "buffer": 0,
      "byteLength": 8,
      "byteOffset": 291232
    },
    {
      "buffer": 0,
      "byteLength": 32,
      "byteOffset": 291240
    },
    {
      "buffer": 0,
      "byteLength": 24,
      "byteOffset": 291272
    }
  ],
  "samplers": [
    {
      "magFilter": 9729,
      "minFilter": 9987
    }
  ],
  "buffers": [
    {
      "byteLength": 291296,
      "uri": "data:application/octet-stream;base64,"
    }
  ]
}
