{
  "asset": {
    "generator": "Khronos glTF Blender I/O v1.7.33",
    "version": "2.0"
  },
  "scene": 0,
  "scenes": [
    {
      "name": "Scene",
      "nodes": [1]
    }
  ],
  "nodes": [
    {
      "mesh": 0,
      "name": "floor.03.machine.10_collider",
      "rotation": [-0.7071068286895752, 0, 0, 0.7071067094802856],
      "scale": [61.30900955200195, 112.58012390136719, 98.40666198730469],
      "translation": [0.0009765625, -0.0001220703125, -0.0005057548405602574]
    },
    {
      "children": [0],
      "mesh": 1,
      "name": "floor.03.machine.10",
      "rotation": [0.7071068286895752, 0, 0, 0.7071067094802856],
      "scale": [0.016310812905430794, 0.016310812905430794, 0.016310812905430794],
      "translation": [-50.61615753173828, 38.31282424926758, 31.759281158447266]
    }
  ],
  "animations": [
    {
      "channels": [
        {
          "sampler": 0,
          "target": {
            "node": 1,
            "path": "translation"
          }
        },
        {
          "sampler": 1,
          "target": {
            "node": 1,
            "path": "rotation"
          }
        },
        {
          "sampler": 2,
          "target": {
            "node": 1,
            "path": "scale"
          }
        }
      ],
      "name": "SpinningBaton_2_low.010Action",
      "samplers": [
        {
          "input": 12,
          "interpolation": "LINEAR",
          "output": 13
        },
        {
          "input": 14,
          "interpolation": "LINEAR",
          "output": 15
        },
        {
          "input": 14,
          "interpolation": "LINEAR",
          "output": 16
        }
      ]
    }
  ],
  "materials": [
    {
      "doubleSided": true,
      "name": "Floor3Machine.009",
      "pbrMetallicRoughness": {
        "baseColorTexture": {
          "index": 0
        },
        "metallicFactor": 0
      }
    },
    {
      "doubleSided": true,
      "emissiveFactor": [1, 0.484510600566864, 0],
      "name": "Glow.061",
      "pbrMetallicRoughness": {
        "baseColorFactor": [0.8000000715255737, 0.13721336424350739, 0, 1],
        "metallicFactor": 0,
        "roughnessFactor": 0.5
      }
    }
  ],
  "meshes": [
    {
      "name": "Cube.040",
      "primitives": [
        {
          "attributes": {
            "POSITION": 0,
            "NORMAL": 1,
            "TEXCOORD_0": 2
          },
          "indices": 3
        }
      ]
    },
    {
      "name": "SpinningBaton_2_low.009",
      "primitives": [
        {
          "attributes": {
            "POSITION": 4,
            "NORMAL": 5,
            "TEXCOORD_0": 6
          },
          "indices": 7,
          "material": 0
        },
        {
          "attributes": {
            "POSITION": 8,
            "NORMAL": 9,
            "TEXCOORD_0": 10
          },
          "indices": 11,
          "material": 1
        }
      ]
    }
  ],
  "textures": [
    {
      "sampler": 0,
      "source": 0
    }
  ],
  "images": [
    {
      "bufferView": 8,
      "mimeType": "image/jpeg",
      "name": "Floor3Machine_2D_View"
    }
  ],
  "accessors": [
    {
      "bufferView": 0,
      "componentType": 5126,
      "count": 20,
      "max": [1.7094383239746094, 1.9568439722061157, 1.9593929052352905],
      "min": [-0.2905616760253906, -1.0972503423690796, -1.6594542264938354],
      "type": "VEC3"
    },
    {
      "bufferView": 1,
      "componentType": 5126,
      "count": 20,
      "type": "VEC3"
    },
    {
      "bufferView": 2,
      "componentType": 5126,
      "count": 20,
      "type": "VEC2"
    },
    {
      "bufferView": 3,
      "componentType": 5123,
      "count": 24,
      "type": "SCALAR"
    },
    {
      "bufferView": 4,
      "componentType": 5126,
      "count": 62,
      "max": [102.302001953125, 193.30332946777344, 127.44365692138672],
      "min": [-234.314208984375, -163.78744506835938, -226.17901611328125],
      "type": "VEC3"
    },
    {
      "bufferView": 5,
      "componentType": 5126,
      "count": 62,
      "type": "VEC3"
    },
    {
      "bufferView": 6,
      "componentType": 5126,
      "count": 62,
      "type": "VEC2"
    },
    {
      "bufferView": 7,
      "componentType": 5123,
      "count": 306,
      "type": "SCALAR"
    },
    {
      "bufferView": 9,
      "componentType": 5126,
      "count": 4,
      "max": [86.1580810546875, 128.80307006835938, 105.03382110595703],
      "min": [-15.2889404296875, -99.28715515136719, -192.99282836914062],
      "type": "VEC3"
    },
    {
      "bufferView": 10,
      "componentType": 5126,
      "count": 4,
      "type": "VEC3"
    },
    {
      "bufferView": 11,
      "componentType": 5126,
      "count": 4,
      "type": "VEC2"
    },
    {
      "bufferView": 12,
      "componentType": 5123,
      "count": 6,
      "type": "SCALAR"
    },
    {
      "bufferView": 13,
      "componentType": 5126,
      "count": 122,
      "max": [4.84],
      "min": [0],
      "type": "SCALAR"
    },
    {
      "bufferView": 14,
      "componentType": 5126,
      "count": 122,
      "type": "VEC3"
    },
    {
      "bufferView": 15,
      "componentType": 5126,
      "count": 2,
      "max": [4.84],
      "min": [0],
      "type": "SCALAR"
    },
    {
      "bufferView": 16,
      "componentType": 5126,
      "count": 2,
      "type": "VEC4"
    },
    {
      "bufferView": 17,
      "componentType": 5126,
      "count": 2,
      "type": "VEC3"
    }
  ],
  "bufferViews": [
    {
      "buffer": 0,
      "byteLength": 240,
      "byteOffset": 0
    },
    {
      "buffer": 0,
      "byteLength": 240,
      "byteOffset": 240
    },
    {
      "buffer": 0,
      "byteLength": 160,
      "byteOffset": 480
    },
    {
      "buffer": 0,
      "byteLength": 48,
      "byteOffset": 640
    },
    {
      "buffer": 0,
      "byteLength": 744,
      "byteOffset": 688
    },
    {
      "buffer": 0,
      "byteLength": 744,
      "byteOffset": 1432
    },
    {
      "buffer": 0,
      "byteLength": 496,
      "byteOffset": 2176
    },
    {
      "buffer": 0,
      "byteLength": 612,
      "byteOffset": 2672
    },
    {
      "buffer": 0,
      "byteLength": 274195,
      "byteOffset": 3284
    },
    {
      "buffer": 0,
      "byteLength": 48,
      "byteOffset": 277480
    },
    {
      "buffer": 0,
      "byteLength": 48,
      "byteOffset": 277528
    },
    {
      "buffer": 0,
      "byteLength": 32,
      "byteOffset": 277576
    },
    {
      "buffer": 0,
      "byteLength": 12,
      "byteOffset": 277608
    },
    {
      "buffer": 0,
      "byteLength": 488,
      "byteOffset": 277620
    },
    {
      "buffer": 0,
      "byteLength": 1464,
      "byteOffset": 278108
    },
    {
      "buffer": 0,
      "byteLength": 8,
      "byteOffset": 279572
    },
    {
      "buffer": 0,
      "byteLength": 32,
      "byteOffset": 279580
    },
    {
      "buffer": 0,
      "byteLength": 24,
      "byteOffset": 279612
    }
  ],
  "samplers": [
    {
      "magFilter": 9729,
      "minFilter": 9987
    }
  ],
  "buffers": [
    {
      "byteLength": 279636,
      "uri": "data:application/octet-stream;base64,"
    }
  ]
}
