{
  "asset": {
    "generator": "Khronos glTF Blender I/O v1.7.33",
    "version": "2.0"
  },
  "scene": 0,
  "scenes": [
    {
      "name": "Scene",
      "nodes": [1]
    }
  ],
  "nodes": [
    {
      "mesh": 0,
      "name": "floor.01.machine.10_collider"
    },
    {
      "children": [0],
      "mesh": 1,
      "name": "floor.01.machine.10",
      "rotation": [0, 0, 0.3826834559440613, 0.9238795638084412],
      "scale": [3.8938021659851074, 3.8938021659851074, 3.8938021659851074],
      "translation": [-47.490779876708984, 69.66019439697266, 32.00470733642578]
    }
  ],
  "animations": [
    {
      "channels": [
        {
          "sampler": 0,
          "target": {
            "node": 1,
            "path": "translation"
          }
        },
        {
          "sampler": 1,
          "target": {
            "node": 1,
            "path": "rotation"
          }
        },
        {
          "sampler": 2,
          "target": {
            "node": 1,
            "path": "scale"
          }
        }
      ],
      "name": "Floor 1 Machine.010Action",
      "samplers": [
        {
          "input": 12,
          "interpolation": "LINEAR",
          "output": 13
        },
        {
          "input": 14,
          "interpolation": "LINEAR",
          "output": 15
        },
        {
          "input": 12,
          "interpolation": "LINEAR",
          "output": 16
        }
      ]
    }
  ],
  "materials": [
    {
      "doubleSided": true,
      "name": "Floor1Machine.029",
      "pbrMetallicRoughness": {
        "baseColorTexture": {
          "index": 0
        },
        "metallicFactor": 0
      }
    },
    {
      "doubleSided": true,
      "emissiveFactor": [1, 0.484510600566864, 0],
      "name": "Glow.032",
      "pbrMetallicRoughness": {
        "baseColorFactor": [0.8000000715255737, 0.13721336424350739, 0, 1],
        "metallicFactor": 0,
        "roughnessFactor": 0.5
      }
    }
  ],
  "meshes": [
    {
      "name": "Cube.009",
      "primitives": [
        {
          "attributes": {
            "POSITION": 0,
            "NORMAL": 1,
            "TEXCOORD_0": 2
          },
          "indices": 3
        }
      ]
    },
    {
      "name": "Seesaw_low.011",
      "primitives": [
        {
          "attributes": {
            "POSITION": 4,
            "NORMAL": 5,
            "TEXCOORD_0": 6
          },
          "indices": 7,
          "material": 0
        },
        {
          "attributes": {
            "POSITION": 8,
            "NORMAL": 9,
            "TEXCOORD_0": 10
          },
          "indices": 11,
          "material": 1
        }
      ]
    }
  ],
  "textures": [
    {
      "sampler": 0,
      "source": 0
    }
  ],
  "images": [
    {
      "bufferView": 8,
      "mimeType": "image/jpeg",
      "name": "Floor1Machine_2D_View"
    }
  ],
  "accessors": [
    {
      "bufferView": 0,
      "componentType": 5126,
      "count": 24,
      "max": [0.29088687896728516, -2.692735195159912, 0.4619483947753906],
      "min": [-0.19358062744140625, -3.17720365524292, -0.4643683433532715],
      "type": "VEC3"
    },
    {
      "bufferView": 1,
      "componentType": 5126,
      "count": 24,
      "type": "VEC3"
    },
    {
      "bufferView": 2,
      "componentType": 5126,
      "count": 24,
      "type": "VEC2"
    },
    {
      "bufferView": 3,
      "componentType": 5123,
      "count": 36,
      "type": "SCALAR"
    },
    {
      "bufferView": 4,
      "componentType": 5126,
      "count": 698,
      "max": [0.2725200653076172, 0.0971994400024414, 0.7319917678833008],
      "min": [-0.15075302124023438, -3.146857261657715, -0.7431693077087402],
      "type": "VEC3"
    },
    {
      "bufferView": 5,
      "componentType": 5126,
      "count": 698,
      "type": "VEC3"
    },
    {
      "bufferView": 6,
      "componentType": 5126,
      "count": 698,
      "type": "VEC2"
    },
    {
      "bufferView": 7,
      "componentType": 5123,
      "count": 3036,
      "type": "SCALAR"
    },
    {
      "bufferView": 9,
      "componentType": 5126,
      "count": 2836,
      "max": [0.31516170501708984, -1.0207586288452148, 0.44330406188964844],
      "min": [-0.19339466094970703, -3.189497947692871, -0.4455695152282715],
      "type": "VEC3"
    },
    {
      "bufferView": 10,
      "componentType": 5126,
      "count": 2836,
      "type": "VEC3"
    },
    {
      "bufferView": 11,
      "componentType": 5126,
      "count": 2836,
      "type": "VEC2"
    },
    {
      "bufferView": 12,
      "componentType": 5123,
      "count": 13536,
      "type": "SCALAR"
    },
    {
      "bufferView": 13,
      "componentType": 5126,
      "count": 2,
      "max": [4.84],
      "min": [0],
      "type": "SCALAR"
    },
    {
      "bufferView": 14,
      "componentType": 5126,
      "count": 2,
      "type": "VEC3"
    },
    {
      "bufferView": 15,
      "componentType": 5126,
      "count": 122,
      "max": [4.84],
      "min": [0],
      "type": "SCALAR"
    },
    {
      "bufferView": 16,
      "componentType": 5126,
      "count": 122,
      "type": "VEC4"
    },
    {
      "bufferView": 17,
      "componentType": 5126,
      "count": 2,
      "type": "VEC3"
    }
  ],
  "bufferViews": [
    {
      "buffer": 0,
      "byteLength": 288,
      "byteOffset": 0
    },
    {
      "buffer": 0,
      "byteLength": 288,
      "byteOffset": 288
    },
    {
      "buffer": 0,
      "byteLength": 192,
      "byteOffset": 576
    },
    {
      "buffer": 0,
      "byteLength": 72,
      "byteOffset": 768
    },
    {
      "buffer": 0,
      "byteLength": 8376,
      "byteOffset": 840
    },
    {
      "buffer": 0,
      "byteLength": 8376,
      "byteOffset": 9216
    },
    {
      "buffer": 0,
      "byteLength": 5584,
      "byteOffset": 17592
    },
    {
      "buffer": 0,
      "byteLength": 6072,
      "byteOffset": 23176
    },
    {
      "buffer": 0,
      "byteLength": 321970,
      "byteOffset": 29248
    },
    {
      "buffer": 0,
      "byteLength": 34032,
      "byteOffset": 351220
    },
    {
      "buffer": 0,
      "byteLength": 34032,
      "byteOffset": 385252
    },
    {
      "buffer": 0,
      "byteLength": 22688,
      "byteOffset": 419284
    },
    {
      "buffer": 0,
      "byteLength": 27072,
      "byteOffset": 441972
    },
    {
      "buffer": 0,
      "byteLength": 8,
      "byteOffset": 469044
    },
    {
      "buffer": 0,
      "byteLength": 24,
      "byteOffset": 469052
    },
    {
      "buffer": 0,
      "byteLength": 488,
      "byteOffset": 469076
    },
    {
      "buffer": 0,
      "byteLength": 1952,
      "byteOffset": 469564
    },
    {
      "buffer": 0,
      "byteLength": 24,
      "byteOffset": 471516
    }
  ],
  "samplers": [
    {
      "magFilter": 9729,
      "minFilter": 9987
    }
  ],
  "buffers": [
    {
      "byteLength": 471540,
      "uri": "data:application/octet-stream;base64,"
    }
  ]
}
