{
  "asset": {
    "generator": "Khronos glTF Blender I/O v1.7.33",
    "version": "2.0"
  },
  "scene": 0,
  "scenes": [
    {
      "name": "Scene",
      "nodes": [1]
    }
  ],
  "nodes": [
    {
      "mesh": 0,
      "name": "floor.04.machine.02_collider",
      "scale": [88.33429718017578, 88.33429718017578, 88.33429718017578],
      "translation": [0.0003662109375, 0, 0]
    },
    {
      "children": [0],
      "mesh": 1,
      "name": "floor.04.machine.02",
      "scale": [
        0.022248581051826477, 0.022248581051826477, 0.022248581051826477
      ],
      "translation": [-32.00071334838867, 32.27012634277344, 22.40357208251953]
    }
  ],
  "animations": [
    {
      "channels": [
        {
          "sampler": 0,
          "target": {
            "node": 1,
            "path": "translation"
          }
        },
        {
          "sampler": 1,
          "target": {
            "node": 1,
            "path": "rotation"
          }
        },
        {
          "sampler": 2,
          "target": {
            "node": 1,
            "path": "scale"
          }
        }
      ],
      "name": "floor.04.machine.02Action",
      "samplers": [
        {
          "input": 12,
          "interpolation": "LINEAR",
          "output": 13
        },
        {
          "input": 12,
          "interpolation": "LINEAR",
          "output": 14
        },
        {
          "input": 15,
          "interpolation": "LINEAR",
          "output": 16
        }
      ]
    }
  ],
  "materials": [
    {
      "doubleSided": true,
      "name": "Floor 4 Machine.003",
      "pbrMetallicRoughness": {
        "baseColorTexture": {
          "index": 0
        },
        "metallicFactor": 0
      }
    },
    {
      "doubleSided": true,
      "emissiveFactor": [1, 0.484510600566864, 0],
      "name": "Glow.065",
      "pbrMetallicRoughness": {
        "baseColorFactor": [0.8000000715255737, 0.13721336424350739, 0, 1],
        "metallicFactor": 0,
        "roughnessFactor": 0.5
      }
    }
  ],
  "meshes": [
    {
      "name": "Cube.044",
      "primitives": [
        {
          "attributes": {
            "POSITION": 0,
            "NORMAL": 1,
            "TEXCOORD_0": 2
          },
          "indices": 3
        }
      ]
    },
    {
      "name": "SwingingBaton_low.003",
      "primitives": [
        {
          "attributes": {
            "POSITION": 4,
            "NORMAL": 5,
            "TEXCOORD_0": 6
          },
          "indices": 7,
          "material": 0
        },
        {
          "attributes": {
            "POSITION": 8,
            "NORMAL": 9,
            "TEXCOORD_0": 10
          },
          "indices": 11,
          "material": 1
        }
      ]
    }
  ],
  "textures": [
    {
      "sampler": 0,
      "source": 0
    }
  ],
  "images": [
    {
      "bufferView": 8,
      "mimeType": "image/jpeg",
      "name": "Floor 4 Machine_2D_View"
    }
  ],
  "accessors": [
    {
      "bufferView": 0,
      "componentType": 5126,
      "count": 96,
      "max": [1.4085794687271118, 1.4080464839935303, 1.6055679321289062],
      "min": [-1.4078508615493774, -1.408383846282959, -1.904374599456787],
      "type": "VEC3"
    },
    {
      "bufferView": 1,
      "componentType": 5126,
      "count": 96,
      "type": "VEC3"
    },
    {
      "bufferView": 2,
      "componentType": 5126,
      "count": 96,
      "type": "VEC2"
    },
    {
      "bufferView": 3,
      "componentType": 5123,
      "count": 144,
      "type": "SCALAR"
    },
    {
      "bufferView": 4,
      "componentType": 5126,
      "count": 1321,
      "max": [122.15528869628906, 122.41190338134766, 141.56661987304688],
      "min": [-122.74456787109375, -122.38308715820312, -219.02932739257812],
      "type": "VEC3"
    },
    {
      "bufferView": 5,
      "componentType": 5126,
      "count": 1321,
      "type": "VEC3"
    },
    {
      "bufferView": 6,
      "componentType": 5126,
      "count": 1321,
      "type": "VEC2"
    },
    {
      "bufferView": 7,
      "componentType": 5123,
      "count": 5904,
      "type": "SCALAR"
    },
    {
      "bufferView": 9,
      "componentType": 5126,
      "count": 768,
      "max": [117.88238525390625, 106.09074401855469, 137.29376220703125],
      "min": [-118.4716796875, -106.24069213867188, -99.06039428710938],
      "type": "VEC3"
    },
    {
      "bufferView": 10,
      "componentType": 5126,
      "count": 768,
      "type": "VEC3"
    },
    {
      "bufferView": 11,
      "componentType": 5126,
      "count": 768,
      "type": "VEC2"
    },
    {
      "bufferView": 12,
      "componentType": 5123,
      "count": 1152,
      "type": "SCALAR"
    },
    {
      "bufferView": 13,
      "componentType": 5126,
      "count": 101,
      "max": [4],
      "min": [0],
      "type": "SCALAR"
    },
    {
      "bufferView": 14,
      "componentType": 5126,
      "count": 101,
      "type": "VEC3"
    },
    {
      "bufferView": 15,
      "componentType": 5126,
      "count": 101,
      "type": "VEC4"
    },
    {
      "bufferView": 16,
      "componentType": 5126,
      "count": 2,
      "max": [4],
      "min": [0],
      "type": "SCALAR"
    },
    {
      "bufferView": 17,
      "componentType": 5126,
      "count": 2,
      "type": "VEC3"
    }
  ],
  "bufferViews": [
    {
      "buffer": 0,
      "byteLength": 1152,
      "byteOffset": 0
    },
    {
      "buffer": 0,
      "byteLength": 1152,
      "byteOffset": 1152
    },
    {
      "buffer": 0,
      "byteLength": 768,
      "byteOffset": 2304
    },
    {
      "buffer": 0,
      "byteLength": 288,
      "byteOffset": 3072
    },
    {
      "buffer": 0,
      "byteLength": 15852,
      "byteOffset": 3360
    },
    {
      "buffer": 0,
      "byteLength": 15852,
      "byteOffset": 19212
    },
    {
      "buffer": 0,
      "byteLength": 10568,
      "byteOffset": 35064
    },
    {
      "buffer": 0,
      "byteLength": 11808,
      "byteOffset": 45632
    },
    {
      "buffer": 0,
      "byteLength": 474770,
      "byteOffset": 57440
    },
    {
      "buffer": 0,
      "byteLength": 9216,
      "byteOffset": 532212
    },
    {
      "buffer": 0,
      "byteLength": 9216,
      "byteOffset": 541428
    },
    {
      "buffer": 0,
      "byteLength": 6144,
      "byteOffset": 550644
    },
    {
      "buffer": 0,
      "byteLength": 2304,
      "byteOffset": 556788
    },
    {
      "buffer": 0,
      "byteLength": 404,
      "byteOffset": 559092
    },
    {
      "buffer": 0,
      "byteLength": 1212,
      "byteOffset": 559496
    },
    {
      "buffer": 0,
      "byteLength": 1616,
      "byteOffset": 560708
    },
    {
      "buffer": 0,
      "byteLength": 8,
      "byteOffset": 562324
    },
    {
      "buffer": 0,
      "byteLength": 24,
      "byteOffset": 562332
    }
  ],
  "samplers": [
    {
      "magFilter": 9729,
      "minFilter": 9987
    }
  ],
  "buffers": [
    {
      "byteLength": 562356,
      "uri": "data:application/octet-stream;base64,"
    }
  ]
}
