{
  "asset": {
    "generator": "Khronos glTF Blender I/O v1.7.33",
    "version": "2.0"
  },
  "scene": 0,
  "scenes": [
    {
      "name": "Scene",
      "nodes": [1]
    }
  ],
  "nodes": [
    {
      "mesh": 0,
      "name": "floor.04.machine.01_collider",
      "scale": [88.33429718017578, 88.33429718017578, 88.33429718017578],
      "translation": [0.0001220703125, 0.000244140625, -0.0001220703125]
    },
    {
      "children": [0],
      "mesh": 1,
      "name": "floor.04.machine.01",
      "scale": [0.022248581051826477, 0.022248581051826477, 0.022248581051826477],
      "translation": [-32.009525299072266, 32.305076599121094, 41.58977127075195]
    }
  ],
  "animations": [
    {
      "channels": [
        {
          "sampler": 0,
          "target": {
            "node": 1,
            "path": "translation"
          }
        },
        {
          "sampler": 1,
          "target": {
            "node": 1,
            "path": "rotation"
          }
        },
        {
          "sampler": 2,
          "target": {
            "node": 1,
            "path": "scale"
          }
        }
      ],
      "name": "floor.04.machine.01Action.002",
      "samplers": [
        {
          "input": 12,
          "interpolation": "LINEAR",
          "output": 13
        },
        {
          "input": 12,
          "interpolation": "LINEAR",
          "output": 14
        },
        {
          "input": 15,
          "interpolation": "LINEAR",
          "output": 16
        }
      ]
    }
  ],
  "materials": [
    {
      "doubleSided": true,
      "name": "Floor 4 Machine.002",
      "pbrMetallicRoughness": {
        "baseColorTexture": {
          "index": 0
        },
        "metallicFactor": 0
      }
    },
    {
      "doubleSided": true,
      "emissiveFactor": [1, 0.484510600566864, 0],
      "name": "Glow.064",
      "pbrMetallicRoughness": {
        "baseColorFactor": [0.8000000715255737, 0.13721336424350739, 0, 1],
        "metallicFactor": 0,
        "roughnessFactor": 0.5
      }
    }
  ],
  "meshes": [
    {
      "name": "Cube.043",
      "primitives": [
        {
          "attributes": {
            "POSITION": 0,
            "NORMAL": 1,
            "TEXCOORD_0": 2
          },
          "indices": 3
        }
      ]
    },
    {
      "name": "SwingingBaton_low.002",
      "primitives": [
        {
          "attributes": {
            "POSITION": 4,
            "NORMAL": 5,
            "TEXCOORD_0": 6
          },
          "indices": 7,
          "material": 0
        },
        {
          "attributes": {
            "POSITION": 8,
            "NORMAL": 9,
            "TEXCOORD_0": 10
          },
          "indices": 11,
          "material": 1
        }
      ]
    }
  ],
  "textures": [
    {
      "sampler": 0,
      "source": 0
    }
  ],
  "images": [
    {
      "bufferView": 8,
      "mimeType": "image/jpeg",
      "name": "Floor 4 Machine_2D_View"
    }
  ],
  "accessors": [
    {
      "bufferView": 0,
      "componentType": 5126,
      "count": 96,
      "max": [1.413063645362854, 1.3902640342712402, 1.9077568054199219],
      "min": [-1.4033666849136353, -1.426166296005249, -1.6021852493286133],
      "type": "VEC3"
    },
    {
      "bufferView": 1,
      "componentType": 5126,
      "count": 96,
      "type": "VEC3"
    },
    {
      "bufferView": 2,
      "componentType": 5126,
      "count": 96,
      "type": "VEC2"
    },
    {
      "bufferView": 3,
      "componentType": 5123,
      "count": 144,
      "type": "SCALAR"
    },
    {
      "bufferView": 4,
      "componentType": 5126,
      "count": 1364,
      "max": [122.5513916015625, 120.8413314819336, 219.32794189453125],
      "min": [-122.34846496582031, -123.95366668701172, -141.2679443359375],
      "type": "VEC3"
    },
    {
      "bufferView": 5,
      "componentType": 5126,
      "count": 1364,
      "type": "VEC3"
    },
    {
      "bufferView": 6,
      "componentType": 5126,
      "count": 1364,
      "type": "VEC2"
    },
    {
      "bufferView": 7,
      "componentType": 5123,
      "count": 5904,
      "type": "SCALAR"
    },
    {
      "bufferView": 9,
      "componentType": 5126,
      "count": 768,
      "max": [117.5268783569336, 104.12217712402344, 98.60736083984375],
      "min": [-117.32395935058594, -107.3609390258789, -136.243408203125],
      "type": "VEC3"
    },
    {
      "bufferView": 10,
      "componentType": 5126,
      "count": 768,
      "type": "VEC3"
    },
    {
      "bufferView": 11,
      "componentType": 5126,
      "count": 768,
      "type": "VEC2"
    },
    {
      "bufferView": 12,
      "componentType": 5123,
      "count": 1152,
      "type": "SCALAR"
    },
    {
      "bufferView": 13,
      "componentType": 5126,
      "count": 101,
      "max": [4],
      "min": [0],
      "type": "SCALAR"
    },
    {
      "bufferView": 14,
      "componentType": 5126,
      "count": 101,
      "type": "VEC3"
    },
    {
      "bufferView": 15,
      "componentType": 5126,
      "count": 101,
      "type": "VEC4"
    },
    {
      "bufferView": 16,
      "componentType": 5126,
      "count": 2,
      "max": [4],
      "min": [0],
      "type": "SCALAR"
    },
    {
      "bufferView": 17,
      "componentType": 5126,
      "count": 2,
      "type": "VEC3"
    }
  ],
  "bufferViews": [
    {
      "buffer": 0,
      "byteLength": 1152,
      "byteOffset": 0
    },
    {
      "buffer": 0,
      "byteLength": 1152,
      "byteOffset": 1152
    },
    {
      "buffer": 0,
      "byteLength": 768,
      "byteOffset": 2304
    },
    {
      "buffer": 0,
      "byteLength": 288,
      "byteOffset": 3072
    },
    {
      "buffer": 0,
      "byteLength": 16368,
      "byteOffset": 3360
    },
    {
      "buffer": 0,
      "byteLength": 16368,
      "byteOffset": 19728
    },
    {
      "buffer": 0,
      "byteLength": 10912,
      "byteOffset": 36096
    },
    {
      "buffer": 0,
      "byteLength": 11808,
      "byteOffset": 47008
    },
    {
      "buffer": 0,
      "byteLength": 474770,
      "byteOffset": 58816
    },
    {
      "buffer": 0,
      "byteLength": 9216,
      "byteOffset": 533588
    },
    {
      "buffer": 0,
      "byteLength": 9216,
      "byteOffset": 542804
    },
    {
      "buffer": 0,
      "byteLength": 6144,
      "byteOffset": 552020
    },
    {
      "buffer": 0,
      "byteLength": 2304,
      "byteOffset": 558164
    },
    {
      "buffer": 0,
      "byteLength": 404,
      "byteOffset": 560468
    },
    {
      "buffer": 0,
      "byteLength": 1212,
      "byteOffset": 560872
    },
    {
      "buffer": 0,
      "byteLength": 1616,
      "byteOffset": 562084
    },
    {
      "buffer": 0,
      "byteLength": 8,
      "byteOffset": 563700
    },
    {
      "buffer": 0,
      "byteLength": 24,
      "byteOffset": 563708
    }
  ],
  "samplers": [
    {
      "magFilter": 9729,
      "minFilter": 9987
    }
  ],
  "buffers": [
    {
      "byteLength": 563732,
      "uri": "data:application/octet-stream;base64,"
    }
  ]
}
