{
  "asset": {
    "generator": "Khronos glTF Blender I/O v1.7.33",
    "version": "2.0"
  },
  "scene": 0,
  "scenes": [
    {
      "name": "Scene",
      "nodes": [1]
    }
  ],
  "nodes": [
    {
      "mesh": 0,
      "name": "floor.02.machine.07_collider",
      "rotation": [0, 0, -0.7071066498756409, 0.70710688829422],
      "scale": [70.53997802734375, 130.13351440429688, 165.95663452148438],
      "translation": [-0.00039751912117935717, -0.000244140625, -0.0009765625]
    },
    {
      "children": [0],
      "mesh": 1,
      "name": "floor.02.machine.07",
      "rotation": [0, 0, 0.7071066498756409, 0.70710688829422],
      "scale": [
        0.009999996982514858, 0.009999996982514858, 0.009999996982514858
      ],
      "translation": [-19.599987030029297, 50.70616149902344, 42.08930587768555]
    }
  ],
  "animations": [
    {
      "channels": [
        {
          "sampler": 0,
          "target": {
            "node": 1,
            "path": "translation"
          }
        },
        {
          "sampler": 1,
          "target": {
            "node": 1,
            "path": "rotation"
          }
        },
        {
          "sampler": 2,
          "target": {
            "node": 1,
            "path": "scale"
          }
        }
      ],
      "name": "Floor 2 Machine.007Action",
      "samplers": [
        {
          "input": 12,
          "interpolation": "LINEAR",
          "output": 13
        },
        {
          "input": 12,
          "interpolation": "LINEAR",
          "output": 14
        },
        {
          "input": 15,
          "interpolation": "LINEAR",
          "output": 16
        }
      ]
    }
  ],
  "materials": [
    {
      "doubleSided": true,
      "name": "Floor2Machine.007",
      "pbrMetallicRoughness": {
        "baseColorTexture": {
          "index": 0
        },
        "metallicFactor": 0
      }
    },
    {
      "doubleSided": true,
      "emissiveFactor": [1, 0.484510600566864, 0],
      "name": "Glow.052",
      "pbrMetallicRoughness": {
        "baseColorFactor": [0.8000000715255737, 0.13721336424350739, 0, 1],
        "metallicFactor": 0,
        "roughnessFactor": 0.5
      }
    }
  ],
  "meshes": [
    {
      "name": "Cube.031",
      "primitives": [
        {
          "attributes": {
            "POSITION": 0,
            "NORMAL": 1,
            "TEXCOORD_0": 2
          },
          "indices": 3
        }
      ]
    },
    {
      "name": "SpinningDoor_2_low.007",
      "primitives": [
        {
          "attributes": {
            "POSITION": 4,
            "NORMAL": 5,
            "TEXCOORD_0": 6
          },
          "indices": 7,
          "material": 0
        },
        {
          "attributes": {
            "POSITION": 8,
            "NORMAL": 9,
            "TEXCOORD_0": 10
          },
          "indices": 11,
          "material": 1
        }
      ]
    }
  ],
  "textures": [
    {
      "sampler": 0,
      "source": 0
    }
  ],
  "images": [
    {
      "bufferView": 8,
      "mimeType": "image/jpeg",
      "name": "Floor2Machine_2D_View"
    }
  ],
  "accessors": [
    {
      "bufferView": 0,
      "componentType": 5126,
      "count": 24,
      "max": [0.3068695068359375, 3.8109488487243652, 3.1013708114624023],
      "min": [-0.29315185546875, -3.8104987144470215, -0.7316789627075195],
      "type": "VEC3"
    },
    {
      "bufferView": 1,
      "componentType": 5126,
      "count": 24,
      "type": "VEC3"
    },
    {
      "bufferView": 2,
      "componentType": 5126,
      "count": 24,
      "type": "VEC2"
    },
    {
      "bufferView": 3,
      "componentType": 5123,
      "count": 36,
      "type": "SCALAR"
    },
    {
      "bufferView": 4,
      "componentType": 5126,
      "count": 627,
      "max": [501.2447814941406, 50.095703125, 1160.850341796875],
      "min": [-498.64886474609375, -49.904296875, -155.452880859375],
      "type": "VEC3"
    },
    {
      "bufferView": 5,
      "componentType": 5126,
      "count": 627,
      "type": "VEC3"
    },
    {
      "bufferView": 6,
      "componentType": 5126,
      "count": 627,
      "type": "VEC2"
    },
    {
      "bufferView": 7,
      "componentType": 5123,
      "count": 2274,
      "type": "SCALAR"
    },
    {
      "bufferView": 9,
      "componentType": 5126,
      "count": 160,
      "max": [350.4483947753906, 28.0948486328125, 136.85284423828125],
      "min": [-347.8524475097656, -27.9034423828125, -153.732177734375],
      "type": "VEC3"
    },
    {
      "bufferView": 10,
      "componentType": 5126,
      "count": 160,
      "type": "VEC3"
    },
    {
      "bufferView": 11,
      "componentType": 5126,
      "count": 160,
      "type": "VEC2"
    },
    {
      "bufferView": 12,
      "componentType": 5123,
      "count": 384,
      "type": "SCALAR"
    },
    {
      "bufferView": 13,
      "componentType": 5126,
      "count": 122,
      "max": [4.84],
      "min": [0],
      "type": "SCALAR"
    },
    {
      "bufferView": 14,
      "componentType": 5126,
      "count": 122,
      "type": "VEC3"
    },
    {
      "bufferView": 15,
      "componentType": 5126,
      "count": 122,
      "type": "VEC4"
    },
    {
      "bufferView": 16,
      "componentType": 5126,
      "count": 2,
      "max": [4.84],
      "min": [0],
      "type": "SCALAR"
    },
    {
      "bufferView": 17,
      "componentType": 5126,
      "count": 2,
      "type": "VEC3"
    }
  ],
  "bufferViews": [
    {
      "buffer": 0,
      "byteLength": 288,
      "byteOffset": 0
    },
    {
      "buffer": 0,
      "byteLength": 288,
      "byteOffset": 288
    },
    {
      "buffer": 0,
      "byteLength": 192,
      "byteOffset": 576
    },
    {
      "buffer": 0,
      "byteLength": 72,
      "byteOffset": 768
    },
    {
      "buffer": 0,
      "byteLength": 7524,
      "byteOffset": 840
    },
    {
      "buffer": 0,
      "byteLength": 7524,
      "byteOffset": 8364
    },
    {
      "buffer": 0,
      "byteLength": 5016,
      "byteOffset": 15888
    },
    {
      "buffer": 0,
      "byteLength": 4548,
      "byteOffset": 20904
    },
    {
      "buffer": 0,
      "byteLength": 344261,
      "byteOffset": 25452
    },
    {
      "buffer": 0,
      "byteLength": 1920,
      "byteOffset": 369716
    },
    {
      "buffer": 0,
      "byteLength": 1920,
      "byteOffset": 371636
    },
    {
      "buffer": 0,
      "byteLength": 1280,
      "byteOffset": 373556
    },
    {
      "buffer": 0,
      "byteLength": 768,
      "byteOffset": 374836
    },
    {
      "buffer": 0,
      "byteLength": 488,
      "byteOffset": 375604
    },
    {
      "buffer": 0,
      "byteLength": 1464,
      "byteOffset": 376092
    },
    {
      "buffer": 0,
      "byteLength": 1952,
      "byteOffset": 377556
    },
    {
      "buffer": 0,
      "byteLength": 8,
      "byteOffset": 379508
    },
    {
      "buffer": 0,
      "byteLength": 24,
      "byteOffset": 379516
    }
  ],
  "samplers": [
    {
      "magFilter": 9729,
      "minFilter": 9987
    }
  ],
  "buffers": [
    {
      "byteLength": 379540,
      "uri": "data:application/octet-stream;base64,"
    }
  ]
}
