{
  "asset": {
    "generator": "Khronos glTF Blender I/O v1.7.33",
    "version": "2.0"
  },
  "scene": 0,
  "scenes": [
    {
      "name": "Scene",
      "nodes": [1]
    }
  ],
  "nodes": [
    {
      "mesh": 0,
      "name": "floor.03.machine.07_collider",
      "rotation": [-0.7071068286895752, 0, 0, 0.7071067094802856],
      "scale": [61.30900955200195, 112.58012390136719, 98.40666198730469],
      "translation": [-6.103515625e-5, -0.000244140625, 0.00015647246618755162]
    },
    {
      "children": [0],
      "mesh": 1,
      "name": "floor.03.machine.07",
      "rotation": [0.7071068286895752, 0, 0, 0.7071067094802856],
      "scale": [
        0.016310812905430794, 0.016310812905430794, 0.016310812905430794
      ],
      "translation": [-16.62395477294922, 36.231353759765625, 40.28071975708008]
    }
  ],
  "animations": [
    {
      "channels": [
        {
          "sampler": 0,
          "target": {
            "node": 1,
            "path": "translation"
          }
        },
        {
          "sampler": 1,
          "target": {
            "node": 1,
            "path": "rotation"
          }
        },
        {
          "sampler": 2,
          "target": {
            "node": 1,
            "path": "scale"
          }
        }
      ],
      "name": "SpinningBaton_2_low.007Action",
      "samplers": [
        {
          "input": 12,
          "interpolation": "LINEAR",
          "output": 13
        },
        {
          "input": 14,
          "interpolation": "LINEAR",
          "output": 15
        },
        {
          "input": 12,
          "interpolation": "LINEAR",
          "output": 16
        }
      ]
    }
  ],
  "materials": [
    {
      "doubleSided": true,
      "name": "Floor3Machine.006",
      "pbrMetallicRoughness": {
        "baseColorTexture": {
          "index": 0
        },
        "metallicFactor": 0
      }
    },
    {
      "doubleSided": true,
      "emissiveFactor": [1, 0.484510600566864, 0],
      "name": "Glow.058",
      "pbrMetallicRoughness": {
        "baseColorFactor": [0.8000000715255737, 0.13721336424350739, 0, 1],
        "metallicFactor": 0,
        "roughnessFactor": 0.5
      }
    }
  ],
  "meshes": [
    {
      "name": "Cube.037",
      "primitives": [
        {
          "attributes": {
            "POSITION": 0,
            "NORMAL": 1,
            "TEXCOORD_0": 2
          },
          "indices": 3
        }
      ]
    },
    {
      "name": "SpinningBaton_2_low.006",
      "primitives": [
        {
          "attributes": {
            "POSITION": 4,
            "NORMAL": 5,
            "TEXCOORD_0": 6
          },
          "indices": 7,
          "material": 0
        },
        {
          "attributes": {
            "POSITION": 8,
            "NORMAL": 9,
            "TEXCOORD_0": 10
          },
          "indices": 11,
          "material": 1
        }
      ]
    }
  ],
  "textures": [
    {
      "sampler": 0,
      "source": 0
    }
  ],
  "images": [
    {
      "bufferView": 8,
      "mimeType": "image/jpeg",
      "name": "Floor3Machine_2D_View"
    }
  ],
  "accessors": [
    {
      "bufferView": 0,
      "componentType": 5126,
      "count": 32,
      "max": [2.670379638671875, 0.6238486170768738, 0.7181286811828613],
      "min": [-2.591310501098633, -0.4653134346008301, -0.6937060356140137],
      "type": "VEC3"
    },
    {
      "bufferView": 1,
      "componentType": 5126,
      "count": 32,
      "type": "VEC3"
    },
    {
      "bufferView": 2,
      "componentType": 5126,
      "count": 32,
      "type": "VEC2"
    },
    {
      "bufferView": 3,
      "componentType": 5123,
      "count": 36,
      "type": "SCALAR"
    },
    {
      "bufferView": 4,
      "componentType": 5126,
      "count": 352,
      "max": [164.98419189453125, 67.44390869140625, 67.48200988769531],
      "min": [-167.5665283203125, -67.6817626953125, -67.64358520507812],
      "type": "VEC3"
    },
    {
      "bufferView": 5,
      "componentType": 5126,
      "count": 352,
      "type": "VEC3"
    },
    {
      "bufferView": 6,
      "componentType": 5126,
      "count": 352,
      "type": "VEC2"
    },
    {
      "bufferView": 7,
      "componentType": 5123,
      "count": 1824,
      "type": "SCALAR"
    },
    {
      "bufferView": 9,
      "componentType": 5126,
      "count": 1400,
      "max": [140.59075927734375, 111.08074951171875, 104.900390625],
      "min": [-143.17303466796875, -111.318603515625, -105.0621337890625],
      "type": "VEC3"
    },
    {
      "bufferView": 10,
      "componentType": 5126,
      "count": 1400,
      "type": "VEC3"
    },
    {
      "bufferView": 11,
      "componentType": 5126,
      "count": 1400,
      "type": "VEC2"
    },
    {
      "bufferView": 12,
      "componentType": 5123,
      "count": 6720,
      "type": "SCALAR"
    },
    {
      "bufferView": 13,
      "componentType": 5126,
      "count": 2,
      "max": [4.84],
      "min": [0],
      "type": "SCALAR"
    },
    {
      "bufferView": 14,
      "componentType": 5126,
      "count": 2,
      "type": "VEC3"
    },
    {
      "bufferView": 15,
      "componentType": 5126,
      "count": 122,
      "max": [4.84],
      "min": [0],
      "type": "SCALAR"
    },
    {
      "bufferView": 16,
      "componentType": 5126,
      "count": 122,
      "type": "VEC4"
    },
    {
      "bufferView": 17,
      "componentType": 5126,
      "count": 2,
      "type": "VEC3"
    }
  ],
  "bufferViews": [
    {
      "buffer": 0,
      "byteLength": 384,
      "byteOffset": 0
    },
    {
      "buffer": 0,
      "byteLength": 384,
      "byteOffset": 384
    },
    {
      "buffer": 0,
      "byteLength": 256,
      "byteOffset": 768
    },
    {
      "buffer": 0,
      "byteLength": 72,
      "byteOffset": 1024
    },
    {
      "buffer": 0,
      "byteLength": 4224,
      "byteOffset": 1096
    },
    {
      "buffer": 0,
      "byteLength": 4224,
      "byteOffset": 5320
    },
    {
      "buffer": 0,
      "byteLength": 2816,
      "byteOffset": 9544
    },
    {
      "buffer": 0,
      "byteLength": 3648,
      "byteOffset": 12360
    },
    {
      "buffer": 0,
      "byteLength": 274195,
      "byteOffset": 16008
    },
    {
      "buffer": 0,
      "byteLength": 16800,
      "byteOffset": 290204
    },
    {
      "buffer": 0,
      "byteLength": 16800,
      "byteOffset": 307004
    },
    {
      "buffer": 0,
      "byteLength": 11200,
      "byteOffset": 323804
    },
    {
      "buffer": 0,
      "byteLength": 13440,
      "byteOffset": 335004
    },
    {
      "buffer": 0,
      "byteLength": 8,
      "byteOffset": 348444
    },
    {
      "buffer": 0,
      "byteLength": 24,
      "byteOffset": 348452
    },
    {
      "buffer": 0,
      "byteLength": 488,
      "byteOffset": 348476
    },
    {
      "buffer": 0,
      "byteLength": 1952,
      "byteOffset": 348964
    },
    {
      "buffer": 0,
      "byteLength": 24,
      "byteOffset": 350916
    }
  ],
  "samplers": [
    {
      "magFilter": 9729,
      "minFilter": 9987
    }
  ],
  "buffers": [
    {
      "byteLength": 350940,
      "uri": "data:application/octet-stream;base64,"
    }
  ]
}
