{
  "asset": {
    "generator": "Khronos glTF Blender I/O v1.7.33",
    "version": "2.0"
  },
  "scene": 0,
  "scenes": [
    {
      "name": "Scene",
      "nodes": [1]
    }
  ],
  "nodes": [
    {
      "mesh": 0,
      "name": "Lava Pool",
      "scale": [0.8250237703323364, 0.13773180544376373, 0.8267927169799805],
      "translation": [-0.8401931524276733, 0.1426442712545395, 0.8401931524276733]
    },
    {
      "children": [0],
      "name": "Empty",
      "scale": [38.08647537231445, 38.08647537231445, 38.08647537231445]
    }
  ],
  "materials": [
    {
      "doubleSided": true,
      "name": "Material.008",
      "pbrMetallicRoughness": {
        "baseColorTexture": {
          "index": 0
        },
        "metallicFactor": 0
      }
    }
  ],
  "meshes": [
    {
      "name": "Cube.055",
      "primitives": [
        {
          "attributes": {
            "POSITION": 0,
            "NORMAL": 1,
            "TEXCOORD_0": 2
          },
          "indices": 3,
          "material": 0
        }
      ]
    }
  ],
  "textures": [
    {
      "sampler": 0,
      "source": 0
    }
  ],
  "images": [
    {
      "bufferView": 4,
      "mimeType": "image/jpeg",
      "name": "DefaultMaterial_2D_View"
    }
  ],
  "accessors": [
    {
      "bufferView": 0,
      "componentType": 5126,
      "count": 514,
      "max": [1, 5.15634822845459, 1],
      "min": [-1, -1, -1],
      "type": "VEC3"
    },
    {
      "bufferView": 1,
      "componentType": 5126,
      "count": 514,
      "type": "VEC3"
    },
    {
      "bufferView": 2,
      "componentType": 5126,
      "count": 514,
      "type": "VEC2"
    },
    {
      "bufferView": 3,
      "componentType": 5123,
      "count": 2406,
      "type": "SCALAR"
    }
  ],
  "bufferViews": [
    {
      "buffer": 0,
      "byteLength": 6168,
      "byteOffset": 0
    },
    {
      "buffer": 0,
      "byteLength": 6168,
      "byteOffset": 6168
    },
    {
      "buffer": 0,
      "byteLength": 4112,
      "byteOffset": 12336
    },
    {
      "buffer": 0,
      "byteLength": 4812,
      "byteOffset": 16448
    },
    {
      "buffer": 0,
      "byteLength": 290475,
      "byteOffset": 21260
    }
  ],
  "samplers": [
    {
      "magFilter": 9729,
      "minFilter": 9987
    }
  ],
  "buffers": [
    {
      "byteLength": 311736,
      "uri": "data:application/octet-stream;base64,"
    }
  ]
}
