{
    "asset" : {
        "generator" : "Khronos glTF Blender I/O v1.7.33",
        "version" : "2.0"
    },
    "scene" : 0,
    "scenes" : [
        {
            "name" : "Scene",
            "nodes" : [
                2
            ]
        }
    ],
    "nodes" : [
        {
            "mesh" : 0,
            "name" : "platforms",
            "scale" : [
                -0.02688598819077015,
                -0.02688598819077015,
                -0.02688598819077015
            ],
            "translation" : [
                1.284802794456482,
                -0.20264317095279694,
                -0.9023658037185669
            ]
        },
        {
            "mesh" : 1,
            "name" : "platforms_collider",
            "rotation" : [
                0,
                -0.02438274584710598,
                0,
                0.9997026920318604
            ],
            "scale" : [
                -0.029292026534676552,
                -0.02929203025996685,
                -0.029292026534676552
            ],
            "translation" : [
                1.2904850244522095,
                -0.22696280479431152,
                -0.9132034182548523
            ]
        },
        {
            "children" : [
                0,
                1
            ],
            "name" : "Empty",
            "scale" : [
                -37.194095611572266,
                -37.194095611572266,
                -37.194095611572266
            ]
        }
    ],
    "materials" : [
        {
            "name" : "glTF_maroon_metal",
            "normalTexture" : {
                "index" : 0,
                "scale" : 0.33000001311302185
            },
            "pbrMetallicRoughness" : {
                "baseColorFactor" : [
                    0.1065390557050705,
                    0.001714675803668797,
                    0.019416268914937973,
                    1
                ],
                "metallicRoughnessTexture" : {
                    "index" : 1
                }
            }
        },
        {
            "doubleSided" : true,
            "emissiveFactor" : [
                0.4986773282289505,
                0,
                1
            ],
            "name" : "Colorway 2",
            "pbrMetallicRoughness" : {
                "baseColorFactor" : [
                    0.33462974429130554,
                    0,
                    0.8000000715255737,
                    1
                ],
                "metallicFactor" : 0,
                "roughnessFactor" : 0.5
            }
        }
    ],
    "meshes" : [
        {
            "name" : "Circle.002",
            "primitives" : [
                {
                    "attributes" : {
                        "POSITION" : 0,
                        "NORMAL" : 1,
                        "TEXCOORD_0" : 2
                    },
                    "indices" : 3,
                    "material" : 0
                },
                {
                    "attributes" : {
                        "POSITION" : 4,
                        "NORMAL" : 5,
                        "TEXCOORD_0" : 6
                    },
                    "indices" : 7,
                    "material" : 1
                }
            ]
        },
        {
            "name" : "Cylinder.003",
            "primitives" : [
                {
                    "attributes" : {
                        "POSITION" : 8,
                        "NORMAL" : 9,
                        "TEXCOORD_0" : 10
                    },
                    "indices" : 11
                }
            ]
        }
    ],
    "textures" : [
        {
            "sampler" : 0,
            "source" : 0
        },
        {
            "sampler" : 0,
            "source" : 1
        }
    ],
    "images" : [
        {
            "mimeType" : "image/jpeg",
            "name" : "rough-layered-02-n",
            "uri" : "tex/rough-layered-02-n.jpg"
        },
        {
            "mimeType" : "image/jpeg",
            "name" : "rough-layered-02",
            "uri" : "tex/rough-layered-02.jpg"
        }
    ],
    "accessors" : [
        {
            "bufferView" : 0,
            "componentType" : 5126,
            "count" : 1080,
            "max" : [
                32.832637786865234,
                4.46693754196167,
                8.897809028625488
            ],
            "min" : [
                -33.258487701416016,
                -4.747896671295166,
                -24.826690673828125
            ],
            "type" : "VEC3"
        },
        {
            "bufferView" : 1,
            "componentType" : 5126,
            "count" : 1080,
            "type" : "VEC3"
        },
        {
            "bufferView" : 2,
            "componentType" : 5126,
            "count" : 1080,
            "type" : "VEC2"
        },
        {
            "bufferView" : 3,
            "componentType" : 5123,
            "count" : 3690,
            "type" : "SCALAR"
        },
        {
            "bufferView" : 4,
            "componentType" : 5126,
            "count" : 990,
            "max" : [
                32.832637786865234,
                14.380456924438477,
                8.897809028625488
            ],
            "min" : [
                -33.258487701416016,
                -5.284406661987305,
                -24.826690673828125
            ],
            "type" : "VEC3"
        },
        {
            "bufferView" : 5,
            "componentType" : 5126,
            "count" : 990,
            "type" : "VEC3"
        },
        {
            "bufferView" : 6,
            "componentType" : 5126,
            "count" : 990,
            "type" : "VEC2"
        },
        {
            "bufferView" : 7,
            "componentType" : 5123,
            "count" : 2592,
            "type" : "SCALAR"
        },
        {
            "bufferView" : 8,
            "componentType" : 5126,
            "count" : 720,
            "max" : [
                30.029531478881836,
                3.3164217472076416,
                8.100496292114258
            ],
            "min" : [
                -30.54690170288086,
                -4.138382911682129,
                -23.179391860961914
            ],
            "type" : "VEC3"
        },
        {
            "bufferView" : 9,
            "componentType" : 5126,
            "count" : 720,
            "type" : "VEC3"
        },
        {
            "bufferView" : 10,
            "componentType" : 5126,
            "count" : 720,
            "type" : "VEC2"
        },
        {
            "bufferView" : 11,
            "componentType" : 5123,
            "count" : 1260,
            "type" : "SCALAR"
        }
    ],
    "bufferViews" : [
        {
            "buffer" : 0,
            "byteLength" : 12960,
            "byteOffset" : 0
        },
        {
            "buffer" : 0,
            "byteLength" : 12960,
            "byteOffset" : 12960
        },
        {
            "buffer" : 0,
            "byteLength" : 8640,
            "byteOffset" : 25920
        },
        {
            "buffer" : 0,
            "byteLength" : 7380,
            "byteOffset" : 34560
        },
        {
            "buffer" : 0,
            "byteLength" : 11880,
            "byteOffset" : 41940
        },
        {
            "buffer" : 0,
            "byteLength" : 11880,
            "byteOffset" : 53820
        },
        {
            "buffer" : 0,
            "byteLength" : 7920,
            "byteOffset" : 65700
        },
        {
            "buffer" : 0,
            "byteLength" : 5184,
            "byteOffset" : 73620
        },
        {
            "buffer" : 0,
            "byteLength" : 8640,
            "byteOffset" : 78804
        },
        {
            "buffer" : 0,
            "byteLength" : 8640,
            "byteOffset" : 87444
        },
        {
            "buffer" : 0,
            "byteLength" : 5760,
            "byteOffset" : 96084
        },
        {
            "buffer" : 0,
            "byteLength" : 2520,
            "byteOffset" : 101844
        }
    ],
    "samplers" : [
        {
            "magFilter" : 9729,
            "minFilter" : 9987
        }
    ],
    "buffers" : [
        {
            "byteLength" : 104364,
            "uri" : "platforms.bin"
        }
    ]
}
