{
  "asset": {
    "generator": "Khronos glTF Blender I/O v3.2.43",
    "version": "2.0"
  },
  "scene": 0,
  "scenes": [
    {
      "name": "Scene",
      "nodes": [0]
    }
  ],
  "nodes": [
    {
      "mesh": 0,
      "name": "coin_yellow"
    }
  ],
  "materials": [
    {
      "alphaMode": "BLEND",
      "emissiveFactor": [1, 0, 1],
      "name": "glTF_tex_logo_atlas",
      "pbrMetallicRoughness": {
        "baseColorFactor": [0.7991030216217041, 0, 0.6866850256919861, 1],
        "baseColorTexture": {
          "index": 0
        },
        "metallicFactor": 0
      }
    },
    {
      "name": "glTF_coin_yellow",
      "pbrMetallicRoughness": {
        "baseColorFactor": [1, 0.9301109910011292, 0.0030350000597536564, 1],
        "metallicFactor": 0.800000011920929,
        "roughnessFactor": 0.30000001192092896
      }
    },
    {
      "emissiveFactor": [0.7991030216217041, 0, 0.6866850256919861],
      "name": "glTF_coin_emissive",
      "pbrMetallicRoughness": {
        "baseColorFactor": [0.7991030216217041, 0, 0.6866850256919861, 1],
        "metallicFactor": 0.800000011920929,
        "roughnessFactor": 0.30000001192092896
      }
    }
  ],
  "meshes": [
    {
      "name": "Circle.003",
      "primitives": [
        {
          "attributes": {
            "POSITION": 0,
            "NORMAL": 1,
            "TANGENT": 2,
            "TEXCOORD_0": 3
          },
          "indices": 4,
          "material": 0
        },
        {
          "attributes": {
            "POSITION": 5,
            "NORMAL": 6,
            "TANGENT": 7,
            "TEXCOORD_0": 8
          },
          "indices": 9,
          "material": 1
        },
        {
          "attributes": {
            "POSITION": 10,
            "NORMAL": 11,
            "TANGENT": 12,
            "TEXCOORD_0": 13
          },
          "indices": 14,
          "material": 2
        }
      ]
    }
  ],
  "textures": [
    {
      "sampler": 0,
      "source": 0
    }
  ],
  "images": [
    {
      "mimeType": "image/png",
      "name": "logo-atlas",
      "uri": "tex/logo-atlas.png"
    }
  ],
  "accessors": [
    {
      "bufferView": 0,
      "componentType": 5126,
      "count": 8,
      "max": [0.3344707489013672, 1.192016839981079, 0.11324641108512878],
      "min": [-0.3344707489013672, 0.5230753421783447, -0.11324641108512878],
      "type": "VEC3"
    },
    {
      "bufferView": 1,
      "componentType": 5126,
      "count": 8,
      "type": "VEC3"
    },
    {
      "bufferView": 2,
      "componentType": 5126,
      "count": 8,
      "type": "VEC4"
    },
    {
      "bufferView": 3,
      "componentType": 5126,
      "count": 8,
      "type": "VEC2"
    },
    {
      "bufferView": 4,
      "componentType": 5123,
      "count": 12,
      "type": "SCALAR"
    },
    {
      "bufferView": 5,
      "componentType": 5126,
      "count": 194,
      "max": [0.5543834567070007, 1.4091503620147705, 0.1613474190235138],
      "min": [-0.5543834567070007, 0.3003835082054138, -0.16134744882583618],
      "type": "VEC3"
    },
    {
      "bufferView": 6,
      "componentType": 5126,
      "count": 194,
      "type": "VEC3"
    },
    {
      "bufferView": 7,
      "componentType": 5126,
      "count": 194,
      "type": "VEC4"
    },
    {
      "bufferView": 8,
      "componentType": 5126,
      "count": 194,
      "type": "VEC2"
    },
    {
      "bufferView": 9,
      "componentType": 5123,
      "count": 288,
      "type": "SCALAR"
    },
    {
      "bufferView": 10,
      "componentType": 5126,
      "count": 96,
      "max": [0.5543834567070007, 1.4091503620147705, 0.1613474190235138],
      "min": [-0.5543834567070007, 0.3003835082054138, -0.16134744882583618],
      "type": "VEC3"
    },
    {
      "bufferView": 11,
      "componentType": 5126,
      "count": 96,
      "type": "VEC3"
    },
    {
      "bufferView": 12,
      "componentType": 5126,
      "count": 96,
      "type": "VEC4"
    },
    {
      "bufferView": 13,
      "componentType": 5126,
      "count": 96,
      "type": "VEC2"
    },
    {
      "bufferView": 14,
      "componentType": 5123,
      "count": 144,
      "type": "SCALAR"
    }
  ],
  "bufferViews": [
    {
      "buffer": 0,
      "byteLength": 96,
      "byteOffset": 0
    },
    {
      "buffer": 0,
      "byteLength": 96,
      "byteOffset": 96
    },
    {
      "buffer": 0,
      "byteLength": 128,
      "byteOffset": 192
    },
    {
      "buffer": 0,
      "byteLength": 64,
      "byteOffset": 320
    },
    {
      "buffer": 0,
      "byteLength": 24,
      "byteOffset": 384
    },
    {
      "buffer": 0,
      "byteLength": 2328,
      "byteOffset": 408
    },
    {
      "buffer": 0,
      "byteLength": 2328,
      "byteOffset": 2736
    },
    {
      "buffer": 0,
      "byteLength": 3104,
      "byteOffset": 5064
    },
    {
      "buffer": 0,
      "byteLength": 1552,
      "byteOffset": 8168
    },
    {
      "buffer": 0,
      "byteLength": 576,
      "byteOffset": 9720
    },
    {
      "buffer": 0,
      "byteLength": 1152,
      "byteOffset": 10296
    },
    {
      "buffer": 0,
      "byteLength": 1152,
      "byteOffset": 11448
    },
    {
      "buffer": 0,
      "byteLength": 1536,
      "byteOffset": 12600
    },
    {
      "buffer": 0,
      "byteLength": 768,
      "byteOffset": 14136
    },
    {
      "buffer": 0,
      "byteLength": 288,
      "byteOffset": 14904
    }
  ],
  "samplers": [
    {
      "magFilter": 9729,
      "minFilter": 9987
    }
  ],
  "buffers": [
    {
      "byteLength": 15192,
      "uri": "coin-yellow.bin"
    }
  ]
}
