{
  "asset": {
    "generator": "Khronos glTF Blender I/O v3.2.40",
    "version": "2.0"
  },
  "scene": 0,
  "scenes": [
    {
      "name": "Scene",
      "nodes": [11]
    }
  ],
  "nodes": [
    {
      "mesh": 0,
      "name": "fan-blade",
      "rotation": [
        -0.7071068286895752, 5.338508302088485e-8, 5.338508302088485e-8,
        0.7071068286895752
      ],
      "translation": [
        8.69238192535704e-9, -0.6000000238418579, 2.384185791015625e-7
      ]
    },
    {
      "mesh": 1,
      "name": "fan_002_collider",
      "rotation": [
        -0.6346858739852905, -0.31172728538513184, -0.31172728538513184,
        0.6346858143806458
      ],
      "translation": [
        8.69238192535704e-9, -0.6000000238418579, 2.384185791015625e-7
      ]
    },
    {
      "children": [0, 1],
      "name": "Bone",
      "rotation": [
        0.7071068286895752, -5.338508302088485e-8, -5.338508302088485e-8,
        0.7071068286895752
      ]
    },
    {
      "children": [2],
      "name": "Armature",
      "translation": [0, 2.6008269786834717, 1]
    },
    {
      "mesh": 2,
      "name": "cable.001",
      "rotation": [0, 0, -0.7071067094802856, 0.7071068286895752],
      "translation": [
        -0.1931852400302887, 3.9354333877563477, 0.6000000238418579
      ]
    },
    {
      "mesh": 3,
      "name": "cable.002",
      "rotation": [0, 0, -0.7071067094802856, 0.7071068286895752],
      "translation": [
        -0.3842618763446808, 3.9354333877563477, 0.6000000238418579
      ]
    },
    {
      "mesh": 4,
      "name": "fan-body",
      "translation": [0, 2.6008267402648926, 0]
    },
    {
      "mesh": 5,
      "name": "fan_003_collider",
      "translation": [0, 2.6008267402648926, 0.6717978715896606]
    },
    {
      "mesh": 6,
      "name": "fan_004_collider",
      "translation": [0, 2.6008267402648926, 0]
    },
    {
      "mesh": 7,
      "name": "fan_005_collider",
      "translation": [0, 2.6008267402648926, 0]
    },
    {
      "mesh": 8,
      "name": "supports",
      "rotation": [
        0.7010574340820312, 0.09229595959186554, 0.09229595959186554,
        0.7010574340820312
      ],
      "translation": [0, 2.6008267402648926, 0.800000011920929]
    },
    {
      "children": [3, 4, 5, 6, 7, 8, 9, 10],
      "name": "origin"
    }
  ],
  "animations": [
    {
      "channels": [
        {
          "sampler": 0,
          "target": {
            "node": 2,
            "path": "rotation"
          }
        }
      ],
      "name": "spin.325",
      "samplers": [
        {
          "input": 55,
          "interpolation": "LINEAR",
          "output": 56
        }
      ]
    },
    {
      "channels": [
        {
          "sampler": 0,
          "target": {
            "node": 2,
            "path": "rotation"
          }
        }
      ],
      "name": "spin.65",
      "samplers": [
        {
          "input": 57,
          "interpolation": "LINEAR",
          "output": 58
        }
      ]
    }
  ],
  "materials": [
    {
      "emissiveFactor": [
        0.05000000074505806, 0.024551019438371346, 0.00012141908699898549
      ],
      "name": "glTF_yellow",
      "normalTexture": {
        "index": 0,
        "scale": 0.33000001311302185
      },
      "pbrMetallicRoughness": {
        "baseColorFactor": [1, 0.4910203814506531, 0.0024283817037940025, 1],
        "metallicFactor": 0,
        "metallicRoughnessTexture": {
          "index": 1
        }
      }
    },
    {
      "name": "glTF_grey_darker",
      "pbrMetallicRoughness": {
        "baseColorFactor": [
          0.027477167546749115, 0.027477167546749115, 0.027477208524942398, 1
        ],
        "metallicFactor": 0,
        "roughnessFactor": 0.8554179668426514
      }
    },
    {
      "name": "glTF_accent_dark",
      "pbrMetallicRoughness": {
        "baseColorFactor": [
          0.10653655230998993, 0.013303784653544426, 0.003159443847835064, 1
        ],
        "metallicFactor": 0,
        "roughnessFactor": 0.8554179668426514
      }
    },
    {
      "name": "glTF_accent",
      "pbrMetallicRoughness": {
        "baseColorFactor": [1, 0.0182334091514349, 0, 1],
        "metallicFactor": 0,
        "roughnessFactor": 0.20000000298023224
      }
    },
    {
      "emissiveFactor": [
        0.6743273735046387, 0.001213945564813912, 0.004856448620557785
      ],
      "name": "glTF_red_b_emit",
      "pbrMetallicRoughness": {
        "baseColorFactor": [0, 0, 0, 1],
        "metallicFactor": 0,
        "roughnessFactor": 0
      }
    },
    {
      "name": "glTF_grey_metallic",
      "pbrMetallicRoughness": {
        "baseColorFactor": [
          0.21448764204978943, 0.21448764204978943, 0.2144877165555954, 1
        ],
        "roughnessFactor": 0.8554179668426514
      }
    }
  ],
  "meshes": [
    {
      "name": "Cylinder.003",
      "primitives": [
        {
          "attributes": {
            "POSITION": 0,
            "NORMAL": 1,
            "TANGENT": 2,
            "TEXCOORD_0": 3
          },
          "indices": 4,
          "material": 0
        },
        {
          "attributes": {
            "POSITION": 5,
            "NORMAL": 6,
            "TANGENT": 7,
            "TEXCOORD_0": 8
          },
          "indices": 9,
          "material": 1
        }
      ]
    },
    {
      "name": "Cylinder.005",
      "primitives": [
        {
          "attributes": {
            "POSITION": 10,
            "NORMAL": 11,
            "TANGENT": 12,
            "TEXCOORD_0": 13
          },
          "indices": 14
        }
      ]
    },
    {
      "name": "BezierCurve",
      "primitives": [
        {
          "attributes": {
            "POSITION": 15,
            "NORMAL": 16,
            "TANGENT": 17,
            "TEXCOORD_0": 18
          },
          "indices": 19,
          "material": 2
        }
      ]
    },
    {
      "name": "BezierCurve.002",
      "primitives": [
        {
          "attributes": {
            "POSITION": 20,
            "NORMAL": 21,
            "TANGENT": 22,
            "TEXCOORD_0": 23
          },
          "indices": 24,
          "material": 3
        }
      ]
    },
    {
      "name": "Cylinder",
      "primitives": [
        {
          "attributes": {
            "POSITION": 25,
            "NORMAL": 26,
            "TANGENT": 27,
            "TEXCOORD_0": 28
          },
          "indices": 29,
          "material": 1
        },
        {
          "attributes": {
            "POSITION": 30,
            "NORMAL": 31,
            "TANGENT": 32,
            "TEXCOORD_0": 33
          },
          "indices": 34,
          "material": 4
        }
      ]
    },
    {
      "name": "Cylinder.009",
      "primitives": [
        {
          "attributes": {
            "POSITION": 35,
            "NORMAL": 36,
            "TANGENT": 37,
            "TEXCOORD_0": 38
          },
          "indices": 39
        }
      ]
    },
    {
      "name": "Cylinder.010",
      "primitives": [
        {
          "attributes": {
            "POSITION": 40,
            "NORMAL": 41,
            "TANGENT": 42,
            "TEXCOORD_0": 43
          },
          "indices": 44
        }
      ]
    },
    {
      "name": "Cylinder.011",
      "primitives": [
        {
          "attributes": {
            "POSITION": 45,
            "NORMAL": 46,
            "TANGENT": 47,
            "TEXCOORD_0": 48
          },
          "indices": 49
        }
      ]
    },
    {
      "name": "Cylinder.002",
      "primitives": [
        {
          "attributes": {
            "POSITION": 50,
            "NORMAL": 51,
            "TANGENT": 52,
            "TEXCOORD_0": 53
          },
          "indices": 54,
          "material": 5
        }
      ]
    }
  ],
  "textures": [
    {
      "sampler": 0,
      "source": 0
    },
    {
      "sampler": 0,
      "source": 1
    }
  ],
  "images": [
    {
      "mimeType": "image/png",
      "name": "rough-layered-06-n",
      "uri": "tex/rough-layered-06-n.png"
    },
    {
      "mimeType": "image/png",
      "name": "rough-layered-06",
      "uri": "tex/rough-layered-06.png"
    }
  ],
  "skins": [
    {
      "inverseBindMatrices": 59,
      "joints": [2],
      "name": "Armature"
    }
  ],
  "accessors": [
    {
      "bufferView": 0,
      "componentType": 5126,
      "count": 358,
      "max": [2.257256269454956, 2.257256269454956, 0.159537672996521],
      "min": [-0.740616500377655, -2.257256269454956, -0.5909551978111267],
      "type": "VEC3"
    },
    {
      "bufferView": 1,
      "componentType": 5126,
      "count": 358,
      "type": "VEC3"
    },
    {
      "bufferView": 2,
      "componentType": 5126,
      "count": 358,
      "type": "VEC4"
    },
    {
      "bufferView": 3,
      "componentType": 5126,
      "count": 358,
      "type": "VEC2"
    },
    {
      "bufferView": 4,
      "componentType": 5123,
      "count": 780,
      "type": "SCALAR"
    },
    {
      "bufferView": 5,
      "componentType": 5126,
      "count": 140,
      "max": [0.39425989985466003, 0.3954552412033081, 3.244511859179511e-8],
      "min": [-0.39425989985466003, -0.3944348990917206, -0.42152926325798035],
      "type": "VEC3"
    },
    {
      "bufferView": 6,
      "componentType": 5126,
      "count": 140,
      "type": "VEC3"
    },
    {
      "bufferView": 7,
      "componentType": 5126,
      "count": 140,
      "type": "VEC4"
    },
    {
      "bufferView": 8,
      "componentType": 5126,
      "count": 140,
      "type": "VEC2"
    },
    {
      "bufferView": 9,
      "componentType": 5123,
      "count": 306,
      "type": "SCALAR"
    },
    {
      "bufferView": 10,
      "componentType": 5126,
      "count": 36,
      "max": [2.3868675231933594, 2.446280002593994, 0.17253518104553223],
      "min": [-2.3274316787719727, -2.1726276874542236, -0.7958329916000366],
      "type": "VEC3"
    },
    {
      "bufferView": 11,
      "componentType": 5126,
      "count": 36,
      "type": "VEC3"
    },
    {
      "bufferView": 12,
      "componentType": 5126,
      "count": 36,
      "type": "VEC4"
    },
    {
      "bufferView": 13,
      "componentType": 5126,
      "count": 36,
      "type": "VEC2"
    },
    {
      "bufferView": 14,
      "componentType": 5123,
      "count": 36,
      "type": "SCALAR"
    },
    {
      "bufferView": 15,
      "componentType": 5126,
      "count": 96,
      "max": [1.0143887996673584, 0.039613474160432816, 0.3741116225719452],
      "min": [-1.0233439207077026, -0.21361403167247772, 0.030938688665628433],
      "type": "VEC3"
    },
    {
      "bufferView": 16,
      "componentType": 5126,
      "count": 96,
      "type": "VEC3"
    },
    {
      "bufferView": 17,
      "componentType": 5126,
      "count": 96,
      "type": "VEC4"
    },
    {
      "bufferView": 18,
      "componentType": 5126,
      "count": 96,
      "type": "VEC2"
    },
    {
      "bufferView": 19,
      "componentType": 5123,
      "count": 144,
      "type": "SCALAR"
    },
    {
      "bufferView": 20,
      "componentType": 5126,
      "count": 144,
      "max": [1.0672879219055176, 0.16909094154834747, 0.38811761140823364],
      "min": [-1.0233439207077026, -0.4796473979949951, 0.03656277805566788],
      "type": "VEC3"
    },
    {
      "bufferView": 21,
      "componentType": 5126,
      "count": 144,
      "type": "VEC3"
    },
    {
      "bufferView": 22,
      "componentType": 5126,
      "count": 144,
      "type": "VEC4"
    },
    {
      "bufferView": 23,
      "componentType": 5126,
      "count": 144,
      "type": "VEC2"
    },
    {
      "bufferView": 24,
      "componentType": 5123,
      "count": 216,
      "type": "SCALAR"
    },
    {
      "bufferView": 25,
      "componentType": 5126,
      "count": 816,
      "max": [3, 2.598076343536377, 1.0000001192092896],
      "min": [-3, -2.598076581954956, -1.0000001192092896],
      "type": "VEC3"
    },
    {
      "bufferView": 26,
      "componentType": 5126,
      "count": 816,
      "type": "VEC3"
    },
    {
      "bufferView": 27,
      "componentType": 5126,
      "count": 816,
      "type": "VEC4"
    },
    {
      "bufferView": 28,
      "componentType": 5126,
      "count": 816,
      "type": "VEC2"
    },
    {
      "bufferView": 29,
      "componentType": 5123,
      "count": 2700,
      "type": "SCALAR"
    },
    {
      "bufferView": 30,
      "componentType": 5126,
      "count": 136,
      "max": [2.6286046504974365, 2.3462047576904297, 0.5000000596046448],
      "min": [-2.6286046504974365, -2.3462047576904297, -0.40000012516975403],
      "type": "VEC3"
    },
    {
      "bufferView": 31,
      "componentType": 5126,
      "count": 136,
      "type": "VEC3"
    },
    {
      "bufferView": 32,
      "componentType": 5126,
      "count": 136,
      "type": "VEC4"
    },
    {
      "bufferView": 33,
      "componentType": 5126,
      "count": 136,
      "type": "VEC2"
    },
    {
      "bufferView": 34,
      "componentType": 5123,
      "count": 324,
      "type": "SCALAR"
    },
    {
      "bufferView": 35,
      "componentType": 5126,
      "count": 12,
      "max": [2.71132493019104, 2.348076343536377, -0.9999998807907104],
      "min": [-2.71132493019104, -2.348076581954956, -1.0000001192092896],
      "type": "VEC3"
    },
    {
      "bufferView": 36,
      "componentType": 5126,
      "count": 12,
      "type": "VEC3"
    },
    {
      "bufferView": 37,
      "componentType": 5126,
      "count": 12,
      "type": "VEC4"
    },
    {
      "bufferView": 38,
      "componentType": 5126,
      "count": 12,
      "type": "VEC2"
    },
    {
      "bufferView": 39,
      "componentType": 5123,
      "count": 12,
      "type": "SCALAR"
    },
    {
      "bufferView": 40,
      "componentType": 5126,
      "count": 64,
      "max": [2.711325168609619, 2.348076343536377, 1.0000081062316895],
      "min": [-2.71132493019104, -1.1981024742126465, -0.3282022476196289],
      "type": "VEC3"
    },
    {
      "bufferView": 41,
      "componentType": 5126,
      "count": 64,
      "type": "VEC3"
    },
    {
      "bufferView": 42,
      "componentType": 5126,
      "count": 64,
      "type": "VEC4"
    },
    {
      "bufferView": 43,
      "componentType": 5126,
      "count": 64,
      "type": "VEC2"
    },
    {
      "bufferView": 44,
      "componentType": 5123,
      "count": 72,
      "type": "SCALAR"
    },
    {
      "bufferView": 45,
      "componentType": 5126,
      "count": 136,
      "max": [3, 2.598076343536377, 1.0000066757202148],
      "min": [-3, -2.598076581954956, -1.0000001192092896],
      "type": "VEC3"
    },
    {
      "bufferView": 46,
      "componentType": 5126,
      "count": 136,
      "type": "VEC3"
    },
    {
      "bufferView": 47,
      "componentType": 5126,
      "count": 136,
      "type": "VEC4"
    },
    {
      "bufferView": 48,
      "componentType": 5126,
      "count": 136,
      "type": "VEC2"
    },
    {
      "bufferView": 49,
      "componentType": 5123,
      "count": 144,
      "type": "SCALAR"
    },
    {
      "bufferView": 50,
      "componentType": 5126,
      "count": 728,
      "max": [2.3318517208099365, 0.20000000298023224, 1.7606236934661865],
      "min": [-2.3318517208099365, -0.4000000059604645, -2.294862985610962],
      "type": "VEC3"
    },
    {
      "bufferView": 51,
      "componentType": 5126,
      "count": 728,
      "type": "VEC3"
    },
    {
      "bufferView": 52,
      "componentType": 5126,
      "count": 728,
      "type": "VEC4"
    },
    {
      "bufferView": 53,
      "componentType": 5126,
      "count": 728,
      "type": "VEC2"
    },
    {
      "bufferView": 54,
      "componentType": 5123,
      "count": 1386,
      "type": "SCALAR"
    },
    {
      "bufferView": 55,
      "componentType": 5126,
      "count": 325,
      "max": [5.416666666666667],
      "min": [0.016666666666666666],
      "type": "SCALAR"
    },
    {
      "bufferView": 56,
      "componentType": 5126,
      "count": 325,
      "type": "VEC4"
    },
    {
      "bufferView": 57,
      "componentType": 5126,
      "count": 66,
      "max": [1.1],
      "min": [0.016666666666666666],
      "type": "SCALAR"
    },
    {
      "bufferView": 58,
      "componentType": 5126,
      "count": 66,
      "type": "VEC4"
    },
    {
      "bufferView": 59,
      "componentType": 5126,
      "count": 1,
      "type": "MAT4"
    }
  ],
  "bufferViews": [
    {
      "buffer": 0,
      "byteLength": 4296,
      "byteOffset": 0
    },
    {
      "buffer": 0,
      "byteLength": 4296,
      "byteOffset": 4296
    },
    {
      "buffer": 0,
      "byteLength": 5728,
      "byteOffset": 8592
    },
    {
      "buffer": 0,
      "byteLength": 2864,
      "byteOffset": 14320
    },
    {
      "buffer": 0,
      "byteLength": 1560,
      "byteOffset": 17184
    },
    {
      "buffer": 0,
      "byteLength": 1680,
      "byteOffset": 18744
    },
    {
      "buffer": 0,
      "byteLength": 1680,
      "byteOffset": 20424
    },
    {
      "buffer": 0,
      "byteLength": 2240,
      "byteOffset": 22104
    },
    {
      "buffer": 0,
      "byteLength": 1120,
      "byteOffset": 24344
    },
    {
      "buffer": 0,
      "byteLength": 612,
      "byteOffset": 25464
    },
    {
      "buffer": 0,
      "byteLength": 432,
      "byteOffset": 26076
    },
    {
      "buffer": 0,
      "byteLength": 432,
      "byteOffset": 26508
    },
    {
      "buffer": 0,
      "byteLength": 576,
      "byteOffset": 26940
    },
    {
      "buffer": 0,
      "byteLength": 288,
      "byteOffset": 27516
    },
    {
      "buffer": 0,
      "byteLength": 72,
      "byteOffset": 27804
    },
    {
      "buffer": 0,
      "byteLength": 1152,
      "byteOffset": 27876
    },
    {
      "buffer": 0,
      "byteLength": 1152,
      "byteOffset": 29028
    },
    {
      "buffer": 0,
      "byteLength": 1536,
      "byteOffset": 30180
    },
    {
      "buffer": 0,
      "byteLength": 768,
      "byteOffset": 31716
    },
    {
      "buffer": 0,
      "byteLength": 288,
      "byteOffset": 32484
    },
    {
      "buffer": 0,
      "byteLength": 1728,
      "byteOffset": 32772
    },
    {
      "buffer": 0,
      "byteLength": 1728,
      "byteOffset": 34500
    },
    {
      "buffer": 0,
      "byteLength": 2304,
      "byteOffset": 36228
    },
    {
      "buffer": 0,
      "byteLength": 1152,
      "byteOffset": 38532
    },
    {
      "buffer": 0,
      "byteLength": 432,
      "byteOffset": 39684
    },
    {
      "buffer": 0,
      "byteLength": 9792,
      "byteOffset": 40116
    },
    {
      "buffer": 0,
      "byteLength": 9792,
      "byteOffset": 49908
    },
    {
      "buffer": 0,
      "byteLength": 13056,
      "byteOffset": 59700
    },
    {
      "buffer": 0,
      "byteLength": 6528,
      "byteOffset": 72756
    },
    {
      "buffer": 0,
      "byteLength": 5400,
      "byteOffset": 79284
    },
    {
      "buffer": 0,
      "byteLength": 1632,
      "byteOffset": 84684
    },
    {
      "buffer": 0,
      "byteLength": 1632,
      "byteOffset": 86316
    },
    {
      "buffer": 0,
      "byteLength": 2176,
      "byteOffset": 87948
    },
    {
      "buffer": 0,
      "byteLength": 1088,
      "byteOffset": 90124
    },
    {
      "buffer": 0,
      "byteLength": 648,
      "byteOffset": 91212
    },
    {
      "buffer": 0,
      "byteLength": 144,
      "byteOffset": 91860
    },
    {
      "buffer": 0,
      "byteLength": 144,
      "byteOffset": 92004
    },
    {
      "buffer": 0,
      "byteLength": 192,
      "byteOffset": 92148
    },
    {
      "buffer": 0,
      "byteLength": 96,
      "byteOffset": 92340
    },
    {
      "buffer": 0,
      "byteLength": 24,
      "byteOffset": 92436
    },
    {
      "buffer": 0,
      "byteLength": 768,
      "byteOffset": 92460
    },
    {
      "buffer": 0,
      "byteLength": 768,
      "byteOffset": 93228
    },
    {
      "buffer": 0,
      "byteLength": 1024,
      "byteOffset": 93996
    },
    {
      "buffer": 0,
      "byteLength": 512,
      "byteOffset": 95020
    },
    {
      "buffer": 0,
      "byteLength": 144,
      "byteOffset": 95532
    },
    {
      "buffer": 0,
      "byteLength": 1632,
      "byteOffset": 95676
    },
    {
      "buffer": 0,
      "byteLength": 1632,
      "byteOffset": 97308
    },
    {
      "buffer": 0,
      "byteLength": 2176,
      "byteOffset": 98940
    },
    {
      "buffer": 0,
      "byteLength": 1088,
      "byteOffset": 101116
    },
    {
      "buffer": 0,
      "byteLength": 288,
      "byteOffset": 102204
    },
    {
      "buffer": 0,
      "byteLength": 8736,
      "byteOffset": 102492
    },
    {
      "buffer": 0,
      "byteLength": 8736,
      "byteOffset": 111228
    },
    {
      "buffer": 0,
      "byteLength": 11648,
      "byteOffset": 119964
    },
    {
      "buffer": 0,
      "byteLength": 5824,
      "byteOffset": 131612
    },
    {
      "buffer": 0,
      "byteLength": 2772,
      "byteOffset": 137436
    },
    {
      "buffer": 0,
      "byteLength": 1300,
      "byteOffset": 140208
    },
    {
      "buffer": 0,
      "byteLength": 5200,
      "byteOffset": 141508
    },
    {
      "buffer": 0,
      "byteLength": 264,
      "byteOffset": 146708
    },
    {
      "buffer": 0,
      "byteLength": 1056,
      "byteOffset": 146972
    },
    {
      "buffer": 0,
      "byteLength": 64,
      "byteOffset": 148028
    }
  ],
  "samplers": [
    {
      "magFilter": 9729,
      "minFilter": 9987
    }
  ],
  "buffers": [
    {
      "byteLength": 148092,
      "uri": "hexagonal-fan.bin"
    }
  ]
}
