{
  "asset": {
    "generator": "Khronos glTF Blender I/O v3.2.40",
    "version": "2.0"
  },
  "scene": 0,
  "scenes": [
    {
      "name": "Scene",
      "nodes": [4, 5]
    }
  ],
  "nodes": [
    {
      "mesh": 0,
      "name": "lights",
      "translation": [-5.051920490826197e-16, -1, -4.371138828673793e-8]
    },
    {
      "children": [0],
      "name": "Bone",
      "rotation": [
        -3.090862321641907e-8, -0.7071068286895752, -3.090862321641907e-8,
        0.7071068286895752
      ],
      "translation": [4.371138828673793e-8, 1, -3.3001180777756647e-15]
    },
    {
      "children": [1],
      "name": "Bone.001",
      "rotation": [
        4.214685134229512e-8, 0.7071068286895752, 3.090862321641907e-8,
        0.7071068286895752
      ]
    },
    {
      "children": [2],
      "name": "Armature"
    },
    {
      "children": [3],
      "name": "origin"
    },
    {
      "mesh": 1,
      "name": "column"
    }
  ],
  "animations": [
    {
      "channels": [
        {
          "sampler": 0,
          "target": {
            "node": 1,
            "path": "translation"
          }
        }
      ],
      "name": "slideUp",
      "samplers": [
        {
          "input": 15,
          "interpolation": "LINEAR",
          "output": 16
        }
      ]
    }
  ],
  "materials": [
    {
      "emissiveFactor": [1, 1, 1],
      "emissiveTexture": {
        "index": 0
      },
      "name": "PiratesPack_TX_Emissive",
      "pbrMetallicRoughness": {
        "baseColorTexture": {
          "index": 1
        },
        "metallicFactor": 0,
        "roughnessFactor": 0.5
      }
    },
    {
      "name": "PiratesPack_TX",
      "pbrMetallicRoughness": {
        "baseColorTexture": {
          "index": 2
        },
        "metallicFactor": 0,
        "roughnessFactor": 0.5
      }
    }
  ],
  "meshes": [
    {
      "name": "Cylinder.002",
      "primitives": [
        {
          "attributes": {
            "POSITION": 0,
            "NORMAL": 1,
            "TANGENT": 2,
            "TEXCOORD_0": 3
          },
          "indices": 4,
          "material": 0
        }
      ]
    },
    {
      "name": "Cylinder",
      "primitives": [
        {
          "attributes": {
            "POSITION": 5,
            "NORMAL": 6,
            "TANGENT": 7,
            "TEXCOORD_0": 8
          },
          "indices": 9,
          "material": 1
        },
        {
          "attributes": {
            "POSITION": 10,
            "NORMAL": 11,
            "TANGENT": 12,
            "TEXCOORD_0": 13
          },
          "indices": 14,
          "material": 0
        }
      ]
    }
  ],
  "textures": [
    {
      "sampler": 0,
      "source": 0
    },
    {
      "sampler": 0,
      "source": 0
    },
    {
      "sampler": 0,
      "source": 0
    }
  ],
  "images": [
    {
      "mimeType": "image/png",
      "name": "PiratesPack_TX",
      "uri": "tex/PiratesPack_TX.png"
    }
  ],
  "skins": [
    {
      "inverseBindMatrices": 17,
      "joints": [2, 1],
      "name": "Armature"
    }
  ],
  "accessors": [
    {
      "bufferView": 0,
      "componentType": 5126,
      "count": 40,
      "max": [0.5701475143432617, 0.8499999046325684, 0.9702358245849609],
      "min": [-0.5701475143432617, 0.6500000953674316, -0.9702358245849609],
      "type": "VEC3"
    },
    {
      "bufferView": 1,
      "componentType": 5126,
      "count": 40,
      "type": "VEC3"
    },
    {
      "bufferView": 2,
      "componentType": 5126,
      "count": 40,
      "type": "VEC4"
    },
    {
      "bufferView": 3,
      "componentType": 5126,
      "count": 40,
      "type": "VEC2"
    },
    {
      "bufferView": 4,
      "componentType": 5123,
      "count": 96,
      "type": "SCALAR"
    },
    {
      "bufferView": 5,
      "componentType": 5126,
      "count": 364,
      "max": [0.6000000238418579, 2, 1],
      "min": [-0.6000000238418579, -2.622603005875135e-7, -1],
      "type": "VEC3"
    },
    {
      "bufferView": 6,
      "componentType": 5126,
      "count": 364,
      "type": "VEC3"
    },
    {
      "bufferView": 7,
      "componentType": 5126,
      "count": 364,
      "type": "VEC4"
    },
    {
      "bufferView": 8,
      "componentType": 5126,
      "count": 364,
      "type": "VEC2"
    },
    {
      "bufferView": 9,
      "componentType": 5123,
      "count": 732,
      "type": "SCALAR"
    },
    {
      "bufferView": 10,
      "componentType": 5126,
      "count": 16,
      "max": [0.020000003278255463, 1.999999761581421, 0.9402360916137695],
      "min": [
        -0.019999999552965164, -2.622603005875135e-7, -0.9402360916137695
      ],
      "type": "VEC3"
    },
    {
      "bufferView": 11,
      "componentType": 5126,
      "count": 16,
      "type": "VEC3"
    },
    {
      "bufferView": 12,
      "componentType": 5126,
      "count": 16,
      "type": "VEC4"
    },
    {
      "bufferView": 13,
      "componentType": 5126,
      "count": 16,
      "type": "VEC2"
    },
    {
      "bufferView": 14,
      "componentType": 5123,
      "count": 36,
      "type": "SCALAR"
    },
    {
      "bufferView": 15,
      "componentType": 5126,
      "count": 91,
      "max": [1.5166666666666666],
      "min": [0.016666666666666666],
      "type": "SCALAR"
    },
    {
      "bufferView": 16,
      "componentType": 5126,
      "count": 91,
      "type": "VEC3"
    },
    {
      "bufferView": 17,
      "componentType": 5126,
      "count": 2,
      "type": "MAT4"
    }
  ],
  "bufferViews": [
    {
      "buffer": 0,
      "byteLength": 480,
      "byteOffset": 0
    },
    {
      "buffer": 0,
      "byteLength": 480,
      "byteOffset": 480
    },
    {
      "buffer": 0,
      "byteLength": 640,
      "byteOffset": 960
    },
    {
      "buffer": 0,
      "byteLength": 320,
      "byteOffset": 1600
    },
    {
      "buffer": 0,
      "byteLength": 192,
      "byteOffset": 1920
    },
    {
      "buffer": 0,
      "byteLength": 4368,
      "byteOffset": 2112
    },
    {
      "buffer": 0,
      "byteLength": 4368,
      "byteOffset": 6480
    },
    {
      "buffer": 0,
      "byteLength": 5824,
      "byteOffset": 10848
    },
    {
      "buffer": 0,
      "byteLength": 2912,
      "byteOffset": 16672
    },
    {
      "buffer": 0,
      "byteLength": 1464,
      "byteOffset": 19584
    },
    {
      "buffer": 0,
      "byteLength": 192,
      "byteOffset": 21048
    },
    {
      "buffer": 0,
      "byteLength": 192,
      "byteOffset": 21240
    },
    {
      "buffer": 0,
      "byteLength": 256,
      "byteOffset": 21432
    },
    {
      "buffer": 0,
      "byteLength": 128,
      "byteOffset": 21688
    },
    {
      "buffer": 0,
      "byteLength": 72,
      "byteOffset": 21816
    },
    {
      "buffer": 0,
      "byteLength": 364,
      "byteOffset": 21888
    },
    {
      "buffer": 0,
      "byteLength": 1092,
      "byteOffset": 22252
    },
    {
      "buffer": 0,
      "byteLength": 128,
      "byteOffset": 23344
    }
  ],
  "samplers": [
    {
      "magFilter": 9729,
      "minFilter": 9987
    }
  ],
  "buffers": [
    {
      "byteLength": 23472,
      "uri": "light-tubes.bin"
    }
  ]
}
