{
  "asset": {
    "generator": "Khronos glTF Blender I/O v3.2.40",
    "version": "2.0"
  },
  "scene": 0,
  "scenes": [
    {
      "name": "Scene",
      "nodes": [5]
    }
  ],
  "nodes": [
    {
      "mesh": 0,
      "name": "piston",
      "rotation": [0, -1.2037062152420224e-35, 0, 1]
    },
    {
      "mesh": 1,
      "name": "piston_collider",
      "rotation": [0, -1.2037062152420224e-35, 0, 1]
    },
    {
      "children": [0, 1],
      "name": "Bone"
    },
    {
      "children": [2],
      "name": "Armature",
      "scale": [1.5, 1.5, 1.5]
    },
    {
      "mesh": 2,
      "name": "Props_Base",
      "scale": [2, 2, 2]
    },
    {
      "children": [3, 4],
      "name": "origin",
      "scale": [0.5, 0.5, 0.5]
    }
  ],
  "animations": [
    {
      "channels": [
        {
          "sampler": 0,
          "target": {
            "node": 2,
            "path": "scale"
          }
        }
      ],
      "name": "ArmatureAction",
      "samplers": [
        {
          "input": 24,
          "interpolation": "LINEAR",
          "output": 25
        }
      ]
    }
  ],
  "materials": [
    {
      "name": "glTF_accent_dark",
      "pbrMetallicRoughness": {
        "baseColorFactor": [
          0.10653655230998993, 0.013303784653544426, 0.003159443847835064, 1
        ],
        "metallicFactor": 0,
        "roughnessFactor": 0.8554179668426514
      }
    },
    {
      "name": "glTF_grey",
      "pbrMetallicRoughness": {
        "baseColorFactor": [
          0.21448764204978943, 0.21448764204978943, 0.2144877165555954, 1
        ],
        "metallicFactor": 0,
        "roughnessFactor": 0.8554179668426514
      }
    },
    {
      "name": "glTF_accent",
      "pbrMetallicRoughness": {
        "baseColorFactor": [1, 0.0182334091514349, 0, 1],
        "metallicFactor": 0,
        "roughnessFactor": 0.20000000298023224
      }
    },
    {
      "name": "glTF_grey_dark",
      "pbrMetallicRoughness": {
        "baseColorFactor": [
          0.05780535936355591, 0.057805370539426804, 0.05780542641878128, 1
        ],
        "metallicFactor": 0,
        "roughnessFactor": 0.8554179668426514
      }
    },
    {
      "emissiveFactor": [1, 1, 1],
      "emissiveTexture": {
        "index": 0
      },
      "name": "dcl_MiniTown_TX_emit",
      "pbrMetallicRoughness": {
        "baseColorFactor": [
          0.0014726442750543356, 0.0014726442750543356, 0.0014726442750543356, 1
        ],
        "metallicFactor": 0,
        "roughnessFactor": 0.5
      }
    }
  ],
  "meshes": [
    {
      "name": "Cylinder.002",
      "primitives": [
        {
          "attributes": {
            "POSITION": 0,
            "NORMAL": 1,
            "TEXCOORD_0": 2
          },
          "indices": 3,
          "material": 0
        }
      ]
    },
    {
      "name": "Cylinder.006",
      "primitives": [
        {
          "attributes": {
            "POSITION": 4,
            "NORMAL": 5,
            "TEXCOORD_0": 6
          },
          "indices": 7
        }
      ]
    },
    {
      "name": "Cylinder.003",
      "primitives": [
        {
          "attributes": {
            "POSITION": 8,
            "NORMAL": 9,
            "TEXCOORD_0": 10
          },
          "indices": 11,
          "material": 1
        },
        {
          "attributes": {
            "POSITION": 12,
            "NORMAL": 13,
            "TEXCOORD_0": 14
          },
          "indices": 15,
          "material": 2
        },
        {
          "attributes": {
            "POSITION": 16,
            "NORMAL": 17,
            "TEXCOORD_0": 18
          },
          "indices": 19,
          "material": 3
        },
        {
          "attributes": {
            "POSITION": 20,
            "NORMAL": 21,
            "TEXCOORD_0": 22
          },
          "indices": 23,
          "material": 4
        }
      ]
    }
  ],
  "textures": [
    {
      "sampler": 0,
      "source": 0
    }
  ],
  "images": [
    {
      "mimeType": "image/png",
      "name": "MiniTown_TX",
      "uri": "tex/MiniTown_TX.png"
    }
  ],
  "skins": [
    {
      "inverseBindMatrices": 26,
      "joints": [2],
      "name": "Armature"
    }
  ],
  "accessors": [
    {
      "bufferView": 0,
      "componentType": 5126,
      "count": 264,
      "max": [1.5428884029388428, 0.6135678887367249, 1.5428911447525024],
      "min": [-1.5428884029388428, 0, -1.5428911447525024],
      "type": "VEC3"
    },
    {
      "bufferView": 1,
      "componentType": 5126,
      "count": 264,
      "type": "VEC3"
    },
    {
      "bufferView": 2,
      "componentType": 5126,
      "count": 264,
      "type": "VEC2"
    },
    {
      "bufferView": 3,
      "componentType": 5123,
      "count": 420,
      "type": "SCALAR"
    },
    {
      "bufferView": 4,
      "componentType": 5126,
      "count": 72,
      "max": [1.5428884029388428, 0.6135669946670532, 1.5428911447525024],
      "min": [-1.5428884029388428, 0, -1.5428911447525024],
      "type": "VEC3"
    },
    {
      "bufferView": 5,
      "componentType": 5126,
      "count": 72,
      "type": "VEC3"
    },
    {
      "bufferView": 6,
      "componentType": 5126,
      "count": 72,
      "type": "VEC2"
    },
    {
      "bufferView": 7,
      "componentType": 5123,
      "count": 132,
      "type": "SCALAR"
    },
    {
      "bufferView": 8,
      "componentType": 5126,
      "count": 304,
      "max": [2.475931406021118, 0.3605276048183441, 2.4759318828582764],
      "min": [-2.475931406021118, 0.10678640753030777, -2.4759321212768555],
      "type": "VEC3"
    },
    {
      "bufferView": 9,
      "componentType": 5126,
      "count": 304,
      "type": "VEC3"
    },
    {
      "bufferView": 10,
      "componentType": 5126,
      "count": 304,
      "type": "VEC2"
    },
    {
      "bufferView": 11,
      "componentType": 5123,
      "count": 456,
      "type": "SCALAR"
    },
    {
      "bufferView": 12,
      "componentType": 5126,
      "count": 160,
      "max": [1.6512593030929565, 0.31983116269111633, 1.6512596607208252],
      "min": [-1.6512593030929565, 0.005889190826565027, -1.6512590646743774],
      "type": "VEC3"
    },
    {
      "bufferView": 13,
      "componentType": 5126,
      "count": 160,
      "type": "VEC3"
    },
    {
      "bufferView": 14,
      "componentType": 5126,
      "count": 160,
      "type": "VEC2"
    },
    {
      "bufferView": 15,
      "componentType": 5123,
      "count": 240,
      "type": "SCALAR"
    },
    {
      "bufferView": 16,
      "componentType": 5126,
      "count": 252,
      "max": [2.4998393058776855, 0.1725148856639862, 2.4998397827148438],
      "min": [-2.4998397827148438, 0.00017591864161659032, -2.499840021133423],
      "type": "VEC3"
    },
    {
      "bufferView": 17,
      "componentType": 5126,
      "count": 252,
      "type": "VEC3"
    },
    {
      "bufferView": 18,
      "componentType": 5126,
      "count": 252,
      "type": "VEC2"
    },
    {
      "bufferView": 19,
      "componentType": 5123,
      "count": 390,
      "type": "SCALAR"
    },
    {
      "bufferView": 20,
      "componentType": 5126,
      "count": 150,
      "max": [2.4235575199127197, 0.3605276048183441, 2.423557996749878],
      "min": [-2.423557758331299, 0.139286071062088, -2.423557996749878],
      "type": "VEC3"
    },
    {
      "bufferView": 21,
      "componentType": 5126,
      "count": 150,
      "type": "VEC3"
    },
    {
      "bufferView": 22,
      "componentType": 5126,
      "count": 150,
      "type": "VEC2"
    },
    {
      "bufferView": 23,
      "componentType": 5123,
      "count": 246,
      "type": "SCALAR"
    },
    {
      "bufferView": 24,
      "componentType": 5126,
      "count": 600,
      "max": [10],
      "min": [0.016666666666666666],
      "type": "SCALAR"
    },
    {
      "bufferView": 25,
      "componentType": 5126,
      "count": 600,
      "type": "VEC3"
    },
    {
      "bufferView": 26,
      "componentType": 5126,
      "count": 1,
      "type": "MAT4"
    }
  ],
  "bufferViews": [
    {
      "buffer": 0,
      "byteLength": 3168,
      "byteOffset": 0
    },
    {
      "buffer": 0,
      "byteLength": 3168,
      "byteOffset": 3168
    },
    {
      "buffer": 0,
      "byteLength": 2112,
      "byteOffset": 6336
    },
    {
      "buffer": 0,
      "byteLength": 840,
      "byteOffset": 8448
    },
    {
      "buffer": 0,
      "byteLength": 864,
      "byteOffset": 9288
    },
    {
      "buffer": 0,
      "byteLength": 864,
      "byteOffset": 10152
    },
    {
      "buffer": 0,
      "byteLength": 576,
      "byteOffset": 11016
    },
    {
      "buffer": 0,
      "byteLength": 264,
      "byteOffset": 11592
    },
    {
      "buffer": 0,
      "byteLength": 3648,
      "byteOffset": 11856
    },
    {
      "buffer": 0,
      "byteLength": 3648,
      "byteOffset": 15504
    },
    {
      "buffer": 0,
      "byteLength": 2432,
      "byteOffset": 19152
    },
    {
      "buffer": 0,
      "byteLength": 912,
      "byteOffset": 21584
    },
    {
      "buffer": 0,
      "byteLength": 1920,
      "byteOffset": 22496
    },
    {
      "buffer": 0,
      "byteLength": 1920,
      "byteOffset": 24416
    },
    {
      "buffer": 0,
      "byteLength": 1280,
      "byteOffset": 26336
    },
    {
      "buffer": 0,
      "byteLength": 480,
      "byteOffset": 27616
    },
    {
      "buffer": 0,
      "byteLength": 3024,
      "byteOffset": 28096
    },
    {
      "buffer": 0,
      "byteLength": 3024,
      "byteOffset": 31120
    },
    {
      "buffer": 0,
      "byteLength": 2016,
      "byteOffset": 34144
    },
    {
      "buffer": 0,
      "byteLength": 780,
      "byteOffset": 36160
    },
    {
      "buffer": 0,
      "byteLength": 1800,
      "byteOffset": 36940
    },
    {
      "buffer": 0,
      "byteLength": 1800,
      "byteOffset": 38740
    },
    {
      "buffer": 0,
      "byteLength": 1200,
      "byteOffset": 40540
    },
    {
      "buffer": 0,
      "byteLength": 492,
      "byteOffset": 41740
    },
    {
      "buffer": 0,
      "byteLength": 2400,
      "byteOffset": 42232
    },
    {
      "buffer": 0,
      "byteLength": 7200,
      "byteOffset": 44632
    },
    {
      "buffer": 0,
      "byteLength": 64,
      "byteOffset": 51832
    }
  ],
  "samplers": [
    {
      "magFilter": 9729,
      "minFilter": 9987
    }
  ],
  "buffers": [
    {
      "byteLength": 51896,
      "uri": "piston-lift.bin"
    }
  ]
}
