{
  "asset": {
    "generator": "Khronos glTF Blender I/O v3.2.40",
    "version": "2.0"
  },
  "scene": 0,
  "scenes": [
    {
      "name": "Scene",
      "nodes": [0, 1]
    }
  ],
  "nodes": [
    {
      "mesh": 0,
      "name": "Cube",
      "scale": [1.0793758630752563, 0.10000002384185791, 1.0793758630752563],
      "translation": [0, 0.1243828535079956, 0]
    },
    {
      "mesh": 1,
      "name": "Cube.001",
      "scale": [1.666261076927185, 0.11331640928983688, 0.6081746816635132],
      "translation": [0, 0.6738314628601074, 0.5919742584228516]
    }
  ],
  "materials": [
    {
      "doubleSided": true,
      "castShadows": false,
      "name": "dummy-test",
      "pbrMetallicRoughness": {
        "baseColorFactor": [0.8000000715255737, 0, 0.0012371110497042537, 1],
        "metallicFactor": 0,
        "roughnessFactor": 0.5
      }
    },
    {
      "name": "shadow-canopy",
      "castShadows": false,
      "pbrMetallicRoughness": {
        "baseColorFactor": [0.800000011920929, 0.800000011920929, 0.800000011920929, 1],
        "metallicFactor": 0,
        "roughnessFactor": 0.5
      }
    }
  ],
  "meshes": [
    {
      "name": "Cube",
      "primitives": [
        {
          "attributes": {
            "POSITION": 0,
            "NORMAL": 1,
            "TANGENT": 2,
            "TEXCOORD_0": 3
          },
          "indices": 4,
          "material": 0
        }
      ]
    },
    {
      "name": "Cube.001",
      "primitives": [
        {
          "attributes": {
            "POSITION": 5,
            "NORMAL": 6,
            "TANGENT": 7,
            "TEXCOORD_0": 8
          },
          "indices": 4,
          "material": 1
        }
      ]
    }
  ],
  "accessors": [
    {
      "bufferView": 0,
      "componentType": 5126,
      "count": 24,
      "max": [1, 1, 1],
      "min": [-1, -1, -1],
      "type": "VEC3"
    },
    {
      "bufferView": 1,
      "componentType": 5126,
      "count": 24,
      "type": "VEC3"
    },
    {
      "bufferView": 2,
      "componentType": 5126,
      "count": 24,
      "type": "VEC4"
    },
    {
      "bufferView": 3,
      "componentType": 5126,
      "count": 24,
      "type": "VEC2"
    },
    {
      "bufferView": 4,
      "componentType": 5123,
      "count": 36,
      "type": "SCALAR"
    },
    {
      "bufferView": 5,
      "componentType": 5126,
      "count": 24,
      "max": [1, 1, 2.6442644596099854],
      "min": [-1, -1, -1],
      "type": "VEC3"
    },
    {
      "bufferView": 6,
      "componentType": 5126,
      "count": 24,
      "type": "VEC3"
    },
    {
      "bufferView": 7,
      "componentType": 5126,
      "count": 24,
      "type": "VEC4"
    },
    {
      "bufferView": 8,
      "componentType": 5126,
      "count": 24,
      "type": "VEC2"
    }
  ],
  "bufferViews": [
    {
      "buffer": 0,
      "byteLength": 288,
      "byteOffset": 0
    },
    {
      "buffer": 0,
      "byteLength": 288,
      "byteOffset": 288
    },
    {
      "buffer": 0,
      "byteLength": 384,
      "byteOffset": 576
    },
    {
      "buffer": 0,
      "byteLength": 192,
      "byteOffset": 960
    },
    {
      "buffer": 0,
      "byteLength": 72,
      "byteOffset": 1152
    },
    {
      "buffer": 0,
      "byteLength": 288,
      "byteOffset": 1224
    },
    {
      "buffer": 0,
      "byteLength": 288,
      "byteOffset": 1512
    },
    {
      "buffer": 0,
      "byteLength": 384,
      "byteOffset": 1800
    },
    {
      "buffer": 0,
      "byteLength": 192,
      "byteOffset": 2184
    }
  ],
  "buffers": [
    {
      "byteLength": 2376,
      "uri": "shadow-removal-test.bin"
    }
  ]
}
