{
  "asset": {
    "generator": "Khronos glTF Blender I/O v3.2.43",
    "version": "2.0"
  },
  "scene": 0,
  "scenes": [
    {
      "name": "Scene",
      "nodes": [0, 8]
    }
  ],
  "nodes": [
    {
      "name": "origin"
    },
    {
      "mesh": 0,
      "name": "water.001",
      "translation": [-1.0275388956069946, 0, 2.0482325553894043]
    },
    {
      "mesh": 1,
      "name": "water.004",
      "translation": [-1, -0.30000004172325134, 2]
    },
    {
      "children": [1, 2],
      "name": "Bone.001",
      "translation": [1.0275388956069946, 0, -1.9679287672042847]
    },
    {
      "mesh": 2,
      "name": "water.002",
      "translation": [-1.0001821517944336, -0.04999998211860657, 0.9997678399085999]
    },
    {
      "mesh": 3,
      "name": "water.003",
      "translation": [-1.0001821517944336, -0.3500000238418579, 0.9997678399085999]
    },
    {
      "children": [4, 5],
      "name": "Bone.003",
      "translation": [1.049912691116333, -0.10000002384185791, -1.0469890832901]
    },
    {
      "children": [3, 6],
      "name": "Bone"
    },
    {
      "children": [7],
      "name": "Armature",
      "translation": [0, 0, -0.08030376583337784]
    }
  ],
  "animations": [
    {
      "channels": [
        {
          "sampler": 0,
          "target": {
            "node": 3,
            "path": "translation"
          }
        },
        {
          "sampler": 1,
          "target": {
            "node": 6,
            "path": "translation"
          }
        }
      ],
      "name": "ArmatureAction.001",
      "samplers": [
        {
          "input": 17,
          "interpolation": "LINEAR",
          "output": 18
        },
        {
          "input": 17,
          "interpolation": "LINEAR",
          "output": 19
        }
      ]
    }
  ],
  "materials": [
    {
      "alphaMode": "BLEND",
      "name": "glTF_tex_water",
      "pbrMetallicRoughness": {
        "baseColorTexture": {
          "index": 0
        },
        "metallicFactor": 0.8999999761581421,
        "roughnessFactor": 0.5
      }
    }
  ],
  "meshes": [
    {
      "name": "Plane.003",
      "primitives": [
        {
          "attributes": {
            "POSITION": 0,
            "NORMAL": 1,
            "TANGENT": 2,
            "TEXCOORD_0": 3
          },
          "indices": 4,
          "material": 0
        }
      ]
    },
    {
      "name": "Plane",
      "primitives": [
        {
          "attributes": {
            "POSITION": 5,
            "NORMAL": 6,
            "TANGENT": 7,
            "TEXCOORD_0": 8
          },
          "indices": 4,
          "material": 0
        }
      ]
    },
    {
      "name": "Plane.001",
      "primitives": [
        {
          "attributes": {
            "POSITION": 9,
            "NORMAL": 10,
            "TANGENT": 11,
            "TEXCOORD_0": 12
          },
          "indices": 4,
          "material": 0
        }
      ]
    },
    {
      "name": "Plane.004",
      "primitives": [
        {
          "attributes": {
            "POSITION": 13,
            "NORMAL": 14,
            "TANGENT": 15,
            "TEXCOORD_0": 16
          },
          "indices": 4,
          "material": 0
        }
      ]
    }
  ],
  "textures": [
    {
      "sampler": 0,
      "source": 0
    }
  ],
  "images": [
    {
      "mimeType": "image/png",
      "name": "water-tile-water-tile-gray",
      "uri": "tex/water-tile-water-tile-gray.png"
    }
  ],
  "skins": [
    {
      "inverseBindMatrices": 20,
      "joints": [7, 3, 6],
      "name": "Armature"
    }
  ],
  "accessors": [
    {
      "bufferView": 0,
      "componentType": 5126,
      "count": 4,
      "max": [5.000002861022949, 0, 4.8588738441467285],
      "min": [-5.000002861022949, 0, -4.8588738441467285],
      "type": "VEC3"
    },
    {
      "bufferView": 1,
      "componentType": 5126,
      "count": 4,
      "type": "VEC3"
    },
    {
      "bufferView": 2,
      "componentType": 5126,
      "count": 4,
      "type": "VEC4"
    },
    {
      "bufferView": 3,
      "componentType": 5126,
      "count": 4,
      "type": "VEC2"
    },
    {
      "bufferView": 4,
      "componentType": 5123,
      "count": 6,
      "type": "SCALAR"
    },
    {
      "bufferView": 5,
      "componentType": 5126,
      "count": 4,
      "max": [4.999999523162842, 0, 4.858870506286621],
      "min": [-4.999999523162842, 0, -4.858870506286621],
      "type": "VEC3"
    },
    {
      "bufferView": 6,
      "componentType": 5126,
      "count": 4,
      "type": "VEC3"
    },
    {
      "bufferView": 7,
      "componentType": 5126,
      "count": 4,
      "type": "VEC4"
    },
    {
      "bufferView": 8,
      "componentType": 5126,
      "count": 4,
      "type": "VEC2"
    },
    {
      "bufferView": 9,
      "componentType": 5126,
      "count": 4,
      "max": [4.999999046325684, 0, 4.858870029449463],
      "min": [-4.999999046325684, 0, -4.858870029449463],
      "type": "VEC3"
    },
    {
      "bufferView": 10,
      "componentType": 5126,
      "count": 4,
      "type": "VEC3"
    },
    {
      "bufferView": 11,
      "componentType": 5126,
      "count": 4,
      "type": "VEC4"
    },
    {
      "bufferView": 12,
      "componentType": 5126,
      "count": 4,
      "type": "VEC2"
    },
    {
      "bufferView": 13,
      "componentType": 5126,
      "count": 4,
      "max": [5.000000953674316, 0, 4.858872413635254],
      "min": [-5.000000953674316, 0, -4.858872413635254],
      "type": "VEC3"
    },
    {
      "bufferView": 14,
      "componentType": 5126,
      "count": 4,
      "type": "VEC3"
    },
    {
      "bufferView": 15,
      "componentType": 5126,
      "count": 4,
      "type": "VEC4"
    },
    {
      "bufferView": 16,
      "componentType": 5126,
      "count": 4,
      "type": "VEC2"
    },
    {
      "bufferView": 17,
      "componentType": 5126,
      "count": 300,
      "max": [5],
      "min": [0.016666666666666666],
      "type": "SCALAR"
    },
    {
      "bufferView": 18,
      "componentType": 5126,
      "count": 300,
      "type": "VEC3"
    },
    {
      "bufferView": 19,
      "componentType": 5126,
      "count": 300,
      "type": "VEC3"
    },
    {
      "bufferView": 20,
      "componentType": 5126,
      "count": 3,
      "type": "MAT4"
    }
  ],
  "bufferViews": [
    {
      "buffer": 0,
      "byteLength": 48,
      "byteOffset": 0
    },
    {
      "buffer": 0,
      "byteLength": 48,
      "byteOffset": 48
    },
    {
      "buffer": 0,
      "byteLength": 64,
      "byteOffset": 96
    },
    {
      "buffer": 0,
      "byteLength": 32,
      "byteOffset": 160
    },
    {
      "buffer": 0,
      "byteLength": 12,
      "byteOffset": 192
    },
    {
      "buffer": 0,
      "byteLength": 48,
      "byteOffset": 204
    },
    {
      "buffer": 0,
      "byteLength": 48,
      "byteOffset": 252
    },
    {
      "buffer": 0,
      "byteLength": 64,
      "byteOffset": 300
    },
    {
      "buffer": 0,
      "byteLength": 32,
      "byteOffset": 364
    },
    {
      "buffer": 0,
      "byteLength": 48,
      "byteOffset": 396
    },
    {
      "buffer": 0,
      "byteLength": 48,
      "byteOffset": 444
    },
    {
      "buffer": 0,
      "byteLength": 64,
      "byteOffset": 492
    },
    {
      "buffer": 0,
      "byteLength": 32,
      "byteOffset": 556
    },
    {
      "buffer": 0,
      "byteLength": 48,
      "byteOffset": 588
    },
    {
      "buffer": 0,
      "byteLength": 48,
      "byteOffset": 636
    },
    {
      "buffer": 0,
      "byteLength": 64,
      "byteOffset": 684
    },
    {
      "buffer": 0,
      "byteLength": 32,
      "byteOffset": 748
    },
    {
      "buffer": 0,
      "byteLength": 1200,
      "byteOffset": 780
    },
    {
      "buffer": 0,
      "byteLength": 3600,
      "byteOffset": 1980
    },
    {
      "buffer": 0,
      "byteLength": 3600,
      "byteOffset": 5580
    },
    {
      "buffer": 0,
      "byteLength": 192,
      "byteOffset": 9180
    }
  ],
  "samplers": [
    {
      "magFilter": 9729,
      "minFilter": 9987
    }
  ],
  "buffers": [
    {
      "byteLength": 9372,
      "uri": "water.bin"
    }
  ]
}
